<?xml version="1.0" encoding="UTF-8"?>
<!DOCTYPE svg PUBLIC "-//W3C//DTD SVG 1.1//EN" "http://www.w3.org/Graphics/SVG/1.1/DTD/svg11.dtd">
<!-- Creator: CorelDRAW -->
<svg xmlns="http://www.w3.org/2000/svg" xml:space="preserve" width="550px" height="417px" version="1.1" style="shape-rendering:geometricPrecision; text-rendering:geometricPrecision; image-rendering:optimizeQuality; fill-rule:evenodd; clip-rule:evenodd"
viewBox="0 0 550 417"
 xmlns:xlink="http://www.w3.org/1999/xlink"
 xmlns:xodm="http://www.corel.com/coreldraw/odm/2003">
 <defs>
  <style type="text/css">
   <![CDATA[
    .str0 {stroke:#5E5E5E;stroke-width:2;stroke-miterlimit:22.9256}
    .str1 {stroke:white;stroke-width:0.6;stroke-miterlimit:22.9256}
    .fil17 {fill:none;fill-rule:nonzero}
    .fil14 {fill:#004C04}
    .fil2 {fill:#00840C}
    .fil20 {fill:#222A52}
    .fil0 {fill:#299C34}
    .fil10 {fill:#2BB212}
    .fil11 {fill:#4424D9}
    .fil9 {fill:#54BB12}
    .fil6 {fill:#6777E4}
    .fil13 {fill:#AB0063}
    .fil1 {fill:#D58200}
    .fil3 {fill:#E02C24}
    .fil4 {fill:#E39900}
    .fil5 {fill:#EFAC00}
    .fil15 {fill:#F7D300}
    .fil19 {fill:#F7D300}
    .fil7 {fill:#F9C00A}
    .fil12 {fill:#FFCE1C}
    .fil8 {fill:#FFD534}
    .fil21 {fill:#222A52;fill-rule:nonzero}
    .fil18 {fill:#F7D300;fill-rule:nonzero}
    .fil16 {fill:white;fill-rule:nonzero}
   ]]>
  </style>
 </defs>
 <g id="Capa_x0020_1">
  <metadata id="CorelCorpID_0Corel-Layer"/>
  <g id="_1317389467488">
   <path class="fil0" d="M449.047 21.839c0,-5.21 0.733,-4.141 1.17,-6.011 0.394,0.274 0.333,-0.127 0.333,1.336 0,1.745 -0.474,3.986 -1.503,4.675zm-38.209 -20.84l2.268 0c0.468,1.407 0.76,2.567 0.875,2.807 0.412,-0.278 0.506,-0.451 0.875,-0.795 0.849,-0.795 1.579,-1.463 2.25,-2.012l4.077 0c-1.627,1.149 -3.392,2.746 -4.158,3.513 -1.872,1.875 -2.09,1.61 -4.484,0.565 -1.239,-0.539 -1.053,-1.869 -1.703,-4.078zm14.671 0l2.988 0c0.062,0.094 0.122,0.195 0.178,0.301 1.371,0 6.118,0.734 7.241,1.276 2.057,0.995 3.097,2.684 3.613,4.904 1.918,-0.922 7.852,0.416 8.997,0.854 0.891,0.34 1.768,0.916 2.487,1.52 1.748,1.472 0.628,0.162 5.668,1.012 0.759,0.128 1.921,0.267 2.72,0.454 -0.239,0.147 0.045,0.051 -0.322,0.076 -5.455,0.373 -2.78,0.453 -5.523,1.092 0.062,0.799 2.948,5.066 0.528,9.712 -1.782,3.422 -3.75,1.846 -7.01,0.944 -3.477,-0.961 -2.198,-6.239 -0.8,-8.586 0.896,-1.501 2.17,-2.198 2.773,-2.738 -0.519,-0.775 -1.007,-1.484 -1.708,-2.131 -0.347,-0.32 -1.763,-1.383 -2.136,-1.55 -1.08,-0.489 -4.559,1.155 -5.34,1.678 0,3.178 -0.498,7.487 -2.169,9.854 -1.834,2.601 -2.399,1.569 -5.494,0.48 -4.474,-1.575 -1.192,-6.775 0.854,-8.962 0.366,-0.393 0.52,-0.427 0.913,-0.756 0.56,-0.471 1.34,-1.261 2.055,-1.451 -0.522,-2.243 -0.195,-3.189 -1.831,-5.348 -1.337,-1.765 -2.9,-1.932 -4.848,-0.998 0.888,1.85 -0.308,6.179 -1.67,6.179 -0.974,0 -1.876,-0.409 -2.71,-0.629 -1.084,-0.286 -1.464,-0.39 -1.464,-1.71 0,-1.259 0.086,-1.941 0.737,-2.935 0.369,-0.563 0.94,-1.229 1.6,-1.406 -0.011,-0.522 -0.131,-0.841 -0.327,-1.136zm8.009 18.002c0,-1.826 0.707,-4.531 2.17,-5.511 -0.408,1.753 -0.935,4.09 -2.17,5.511z"/>
   <path class="fil1" d="M336.5 80.451c0.054,0.658 0.341,0.983 0.501,1.669l4.689 -1.155c4.165,-0.863 11.397,-2.604 15.349,-1.683 -0.5,1.875 -6.774,5.333 -8.651,6.545 -1.601,1.034 -3.09,1.921 -4.613,3.068 -0.913,0.689 -1.267,1 -2.058,1.784 -1.808,1.792 -1.83,2.177 -0.933,4.023 0.827,1.7 6.151,0.212 7.836,-0.127 2.137,-0.431 3.745,-0.766 6.248,-0.766 -1.856,2.773 -10.353,7.052 -10.353,9.018 0,0.35 0.431,1.428 0.599,1.738 0.7,1.297 3.665,0.459 5.648,0.167 2.97,-0.438 3.688,-0.42 6.436,-0.226 0.784,0.054 1.324,0.332 2.012,0.492 -0.069,0.831 -0.638,1.393 -1.124,1.882 -0.525,0.526 -1.139,1.045 -1.714,1.458l-3.842 2.504c0.172,0.358 0.58,1.293 0.668,1.67 0.757,-0.4 1.279,-0.751 1.996,-1.176 0.374,-0.221 0.626,-0.42 0.985,-0.686 1.13,-0.837 4.033,-2.885 4.033,-4.317 0,-0.409 -0.379,-1.239 -0.553,-1.617 -0.839,-1.825 -2.467,-2.057 -5.124,-2.057 -3.267,0 -5.615,0.835 -8.684,0.835 0.519,-0.774 1.651,-1.617 2.455,-2.219 1.353,-1.013 7.731,-4.952 7.731,-6.798l-0.609 -1.728c-0.717,-1.386 -4.33,-0.446 -5.807,-0.179 -2.546,0.46 -5.515,1.239 -8.278,1.239 0.497,-1.865 6.533,-5.572 8.356,-6.671 1.607,-0.967 3.024,-1.864 4.602,-2.912 1.032,-0.686 3.74,-2.535 3.74,-3.942 0,-0.508 -0.724,-2.031 -1.037,-2.303 -2.512,-2.178 -19.088,1.791 -20.504,2.47z"/>
   <path class="fil2" d="M376.824 55.229c0,0.877 -0.039,1.894 0.728,2.444 0.097,0.069 1.769,0.896 1.776,0.896 3.364,0 10.387,-13.723 14.026,-14.694 0,4.62 -4.182,12.016 -1.792,13.314 0.378,0.206 1,0.546 1.458,0.546 1.537,0 4.269,-3.51 5.293,-4.728 0.259,-0.309 0.238,-0.347 0.513,-0.655 0.792,-0.89 2.5,-3.189 3.546,-3.468 -0.137,0.592 -0.215,1.201 -0.345,1.826 -0.557,2.701 -1.865,6.995 -0.983,9.855 0.332,1.078 0.637,1.053 1.788,1.718 2.128,1.23 4.64,-2.075 6.052,-3.881 0.503,-0.643 0.87,-1.141 1.336,-1.836 -0.534,-0.359 -0.926,-0.53 -1.503,-0.835 -0.415,0.619 -0.785,1.108 -1.262,1.742 -0.944,1.251 -2.434,2.938 -3.742,3.773 -0.444,0.283 -0.539,0.271 -1.007,0.496 -1.241,-5.327 1.168,-8.542 1.168,-12.858 0,-0.571 -1.609,-1.336 -2.003,-1.336 -1.089,0 -2.006,1.254 -2.63,1.879 -1.698,1.697 -2.832,3.293 -4.343,5.008 -0.763,0.867 -1.514,1.585 -2.545,2.131 0.069,-3.118 2.671,-9.039 2.671,-12.19 0,-0.805 -1.457,-1.67 -2.337,-1.67 -3.78,0 -9.744,12.507 -14.194,14.861 0,-0.736 -0.107,-0.694 -0.148,-1.198 -0.173,-2.129 1.588,-8.7 2.222,-10.921 0.239,-0.837 0.524,-1.535 0.73,-2.277 0.222,-0.806 0.432,-1.465 0.682,-2.156 0.262,-0.728 0.669,-1.411 0.689,-2.317 -0.574,-0.133 -1.029,-0.417 -1.503,-0.668l-2.563 8.124c-0.676,2.341 -1.778,6.683 -1.778,9.075z"/>
   <path class="fil3" d="M172.354 44.55c-2.088,0 -4.085,-1.83 -5.55,-3.133 -4.491,-3.993 -2.81,-2.156 -5.47,-0.374 0.617,2.652 2.405,7.499 2.504,8.683 -0.728,-0.17 -2.484,-1.317 -3.242,-1.768 -3.511,-2.082 -3.77,-1.509 -4.98,-0.277 -1.614,1.643 -2.07,0.781 -1.143,5.399 0.249,1.237 0.618,2.994 0.283,4.596 -0.37,1.769 -1.052,1.925 -2.954,2.067 -3.19,0.238 -7.25,-2.2 -7.835,-2.337 -0.492,0.331 -1.691,1.456 -1.837,2.005 1.079,0.251 4.946,2.936 8.948,2.102 1.725,-0.359 3.391,-2.09 4.539,-3.311 2.629,-2.795 0.54,-7.148 0.54,-9.478 1.473,0.343 4.335,2.482 5.818,3.032 1.04,0.385 1.375,0.597 2.164,-0.226 1.901,-1.988 2.616,-1.057 1.095,-6.206 -0.247,-0.833 -0.54,-1.474 -0.728,-2.278l1.837 1.504c2.365,1.849 3.906,3.143 6.011,0z"/>
   <path class="fil4" d="M116.713 77.556c0.023,-0.004 0.025,0.05 0.011,0.07 0,-0.006 -0.033,-0.066 -0.011,-0.07zm-1.068 -16.214c-0.554,0.767 -0.982,2.222 -1.066,3.044 -0.275,2.68 4.005,5.254 6.125,6.783 -0.136,0.012 -0.299,0.028 -0.473,0.038 -0.286,0.017 -0.326,0.019 -0.596,0.016l-3.383 -0.216c-4.688,-0.387 -4.654,-0.463 -5.155,1.836 -0.18,0.829 -0.281,0.177 0.04,0.831 0.469,0.954 4.489,3.304 5.343,3.92l-1.092 -0.097c-1.043,-0.195 -1.21,-0.35 -2.465,-0.451 -3.124,-0.25 -3.732,-0.686 -4.208,1.685l-0.086 0.612c0.748,-0.652 1.587,-0.513 2.805,-0.412 2.06,0.171 8.757,1.795 9.071,1.36 0.127,-0.177 0.845,-1.663 0.341,-2.333 -0.193,-0.256 -2.033,-1.405 -2.552,-1.721 -1.772,-1.079 -3.268,-1.957 -5.207,-3.357l2.407 0.102c0.839,0.072 1.553,0.109 2.422,0.176 0.833,0.065 1.606,0.082 2.397,0.033 1.42,-0.088 1.36,-0.804 1.539,-1.487 0.493,-1.891 0.29,-1.974 -2.955,-4.31 -1.035,-0.744 -1.61,-1.202 -2.415,-2.001 -0.362,-0.36 -1.441,-1.787 -1.137,-2.208 1.348,-1.868 6.612,-1.963 8.903,-1.9 0.557,0.015 0.94,0.087 1.452,0.105 0.094,-0.529 0.308,-1.342 0.533,-1.881 -0.739,-0.308 -3.031,-0.221 -3.979,-0.198 -1.802,0.044 -5.476,0.46 -6.609,2.031z"/>
   <path class="fil3" d="M321.972 42.212c2.289,3.418 7.766,5.009 12.023,5.009 0.198,-0.848 1.607,-3.785 1.61,-4.072 0.004,-0.662 -0.296,-0.321 -2.089,-0.625 -2.236,-0.38 -4.549,-1.084 -6.465,-2.219 -0.655,-0.389 -1.148,-0.695 -1.717,-1.121 -0.573,-0.429 -0.968,-1.121 -1.691,-1.314 -0.344,1.473 -1.327,2.867 -1.671,4.342z"/>
   <path class="fil3" d="M191.8 35.594c0.323,0.482 3.079,2.608 3.673,3.005 0.708,-0.164 2.236,-1.249 2.791,-1.718 2.226,-1.883 5.028,-6.276 5.224,-8.635 -0.581,-0.155 -3.197,-2.407 -3.84,-2.838 -0.794,3.407 -4.492,8.41 -7.848,10.186z"/>
   <path class="fil5" d="M252.173 32.694c0.604,0.16 0.523,0.304 0.963,0.705 0.37,0.336 0.526,0.384 0.915,0.755l1.795 1.544c1.167,-0.616 1.814,-0.881 2.842,-1.666 1.026,-0.782 1.431,-1.294 2.295,-2.214 1.085,-1.154 2.8,-4.198 3.212,-5.971 -0.294,-0.439 -0.423,-0.525 -0.834,-0.836l-1.795 -1.544c-0.418,-0.403 -0.592,-0.49 -1.044,-0.793 -0.399,1.714 -2.294,4.472 -3.361,5.823 -0.688,0.87 -1.342,1.563 -2.244,2.265l-2.744 1.932z"/>
   <path class="fil6" d="M208.423 49.392c0,1.509 0.324,2.726 0.634,4.04l0.701 3.808c-1.406,-0.376 -4.031,-3.507 -6.011,-3.507 -0.328,0 -2.096,1.31 -2.338,1.67 2.772,-0.646 6.115,5.085 8.278,3.614 0.445,-0.305 0.849,-0.643 1.247,-0.936 0.735,-0.542 0.828,-0.709 0.828,-1.675 0,-1.912 -0.47,-3.612 -0.834,-5.178 0.447,0.328 1.58,1.883 3.241,3.105 0.655,0.482 1.316,0.954 2.161,0.473 0.35,-0.198 1.602,-1.167 1.778,-1.407 -1.308,0 -1.569,-0.292 -2.317,-0.856 -1.977,-1.493 -3.509,-3.97 -5.03,-4.988 -0.552,0.128 -1.382,0.787 -1.85,1.156 -0.252,0.201 -0.488,0.24 -0.488,0.681z"/>
   <path class="fil3" d="M170.2 75.866c2.537,-1.342 5.96,0.334 9.351,0.334 0.418,-0.789 0.609,-1.7 0.836,-2.672 -0.552,-0.822 -2.154,-2.193 -2.983,-2.862 -0.743,-0.6 -2.57,-2.131 -3.029,-2.816l5.282 -0.228c0.908,-0.142 1.518,-0.267 1.841,-0.998 0.219,-0.496 0.545,-1.667 0.558,-2.28 -1.368,1.574 -5.295,0.679 -7.259,1.09 -1.041,0.218 -1.265,0.351 -1.528,1.31 -0.756,2.763 -0.947,2.182 2.147,5.243 0.518,0.512 1.07,0.785 1.464,1.374 -1.628,-0.136 -3.729,-0.894 -5.404,-0.226 -0.952,0.378 -1.255,1.809 -1.276,2.731z"/>
   <path class="fil1" d="M172.521 18.333c0.642,-0.15 1.313,-0.578 2.022,-0.817 0.79,-0.266 1.424,-0.373 2.32,-0.63 0.749,0.042 1.513,0.123 2.208,0.397 0.319,0.125 0.068,0.005 0.349,0.16 0.209,0.117 0.208,0.125 0.329,0.222l0.12 0.166c0.04,0.028 0.384,0.251 0.403,0.258 0.403,0.158 0.11,0.097 0.431,0.078l4.008 0c-0.127,-0.885 -1.064,-1.884 -1.665,-2.343 -1.036,-0.79 -1.537,-0.989 -3.011,-1.333 0.495,-2.12 2.346,-5.156 4.682,-5.341 1.289,-0.101 1.915,0.161 2.722,0.61 1.802,1.003 4.636,4.488 3.238,6.858 -0.281,0.479 -0.005,0.163 -0.398,0.436l-1.226 0.611c1.937,0 3.86,0.169 4.714,-0.964 1.717,-2.28 -2.531,-9.036 -8.038,-8.371 -2.442,0.294 -5.528,2.779 -6.889,4.633 -2.798,3.813 0.479,0.597 -4.581,4.102 -0.54,0.374 -1.415,0.827 -1.738,1.268z"/>
   <path class="fil7" d="M186.565 107.926c1.448,0 2.218,-0.472 4.328,0.181 0.751,0.232 1.323,0.66 2.017,0.821 0.253,-3.039 2.468,-4.707 3.007,-5.51 -0.963,-1.819 -2.689,-3.379 -4.51,-4.342 -1.554,2.322 -2.268,2.537 -3.889,6.297 -0.332,0.769 -0.77,1.766 -0.953,2.553z"/>
   <path class="fil6" d="M300.765 24.678c0.466,0.636 2.213,1.305 3.006,1.837 2.694,-1.804 5.279,-6.993 5.344,-9.853 -0.434,-0.29 -2.71,-1.561 -3.173,-1.669 -0.634,1.32 -0.755,4.775 -4.211,8.646l-0.966 1.039z"/>
   <path class="fil6" d="M215.937 12.154c0.143,0.538 0.947,1.604 1.281,2.226 0.436,0.809 0.737,1.536 1.106,2.4 0.693,1.625 1.119,3.796 1.119,6.061l3.499 -1.195c0.008,-2.807 -0.236,-3.963 -0.97,-6.008 -0.266,-0.742 -2.185,-4.485 -2.696,-4.485 -0.67,0 -2.522,0.811 -3.339,1.001z"/>
   <path class="fil6" d="M343.799 33.657c1.88,2.817 3.514,5.878 3.514,10.542 0.212,-0.017 3.507,-0.748 3.507,-1.502 0,-4.513 -1.068,-6.545 -3.507,-10.187l-3.514 1.147z"/>
   <path class="fil7" d="M251 105.765c2.402,-0.2 3.076,-0.542 5.678,0.835 0.265,-0.554 0.238,-1.14 1.053,-2.787 0.623,-1.256 1.158,-1.286 1.786,-2.222 -1.123,-1.677 -2.24,-2.985 -4.175,-4.009 -0.374,0.707 -0.769,1.091 -1.237,1.768 -1.181,1.71 -2.641,4.422 -3.105,6.415z"/>
   <path class="fil3" d="M237.812 4.973c0.683,1.292 1.184,1.953 2.838,2.338 0.323,-0.48 1.093,-1.355 1.599,-1.742 1.082,-0.826 1.701,-1.663 3.675,-3.003l2.195 -1.567 -5.993 0 -0.663 0.445c-1.144,0.914 -2.865,2.358 -3.651,3.529z"/>
   <path class="fil5" d="M184.711 18.167l-4.008 0c0.436,1.067 1.062,1.384 1.169,2.671 -1.073,-0.251 -1.974,-1.71 -2.003,-3.007 -0.226,0 -0.182,0.053 -0.12,-0.166 -0.121,-0.097 -0.12,-0.105 -0.329,-0.222 -0.281,-0.155 -0.03,-0.035 -0.349,-0.16 -0.695,-0.274 -1.459,-0.355 -2.208,-0.397 -0.698,2.009 0.437,7.308 3.056,6.832 1.241,-0.226 2.087,-1.268 3.101,-2.067 0.849,-0.671 2.37,-1.74 1.691,-3.484z"/>
   <path class="fil3" d="M273.754 2.088c0,1.276 -0.216,7.347 1.837,7.347 1.698,0 2.38,-0.15 3.674,-0.835 -0.88,-1.834 -1.334,-4.873 -0.835,-7.013 -0.75,0.063 -1.198,0.492 -2.152,0.695 -1.267,0.269 -1.348,-0.095 -2.524,-0.194z"/>
   <path class="fil3" d="M427.253 31.35c0.323,1.211 2.505,3.261 3.48,4.034 0.551,0.437 1.078,0.649 1.695,0.977 1.265,-0.847 1.544,-0.969 2.368,-2.141 0.251,-0.359 0.364,-0.569 0.472,-1.033 -0.429,-0.584 -1.514,-0.918 -2.797,-2.211 -1.373,-1.385 -1.827,-2.483 -2.38,-2.631 -0.321,1.377 -1.452,2.683 -2.838,3.005z"/>
   <path class="fil3" d="M393.108 12.321c0.732,1.094 3.698,4.814 5.21,4.904 0.648,0.04 2.654,-1.868 2.972,-3.234 -1.728,-0.914 -2.934,-1.853 -4.106,-3.408 -0.383,-0.511 -0.617,-1.102 -1.071,-1.434 -0.333,1.428 -1.555,2.834 -3.005,3.172z"/>
   <path class="fil8" d="M309.4 72.206c0.25,0.697 1.282,2.059 2.168,4.148l0.337 0.645c1.462,-0.797 0.109,-0.234 1.589,-0.742 0.715,-0.244 1.308,-0.9 2.13,-1.211 0.426,-0.161 0.172,0.05 0.594,-0.2 -0.013,-1.264 -1.751,-4.088 -2.475,-4.959 -0.852,0.078 -0.76,0.125 -1.253,0.527 -1.448,1.18 -0.894,0.599 -2.486,1.503 -0.621,0.352 0.075,0.174 -0.604,0.289z"/>
   <path class="fil9" d="M67.588 25.931c0.366,0.724 0.633,0.703 1.396,1.388 0.8,0.718 3.788,3.262 4.561,3.587 0.614,-0.728 1.752,-2.125 1.837,-3.138 -1.619,-0.135 -3.956,-2.099 -5.01,-3.674 -1.205,0.637 -1.741,0.891 -2.784,1.837z"/>
   <path class="fil9" d="M241.367 94.477c1.324,0.231 1.968,0.502 3.626,0.502 0,-1.713 -0.056,-3.388 0.566,-4.945 0.235,-0.588 0.458,-0.783 0.602,-1.401 -0.878,-0.588 -1.692,-1.428 -2.896,-1.67 -0.096,1.086 -0.641,2.607 -0.969,3.682 -0.321,1.048 -0.831,2.701 -0.929,3.832z"/>
   <path class="fil5" d="M309.4 72.206c0.679,-0.115 -0.017,0.063 0.604,-0.289 1.592,-0.904 1.038,-0.323 2.486,-1.503 0.493,-0.402 0.401,-0.449 1.253,-0.527 -0.242,-0.267 -0.297,-0.428 -0.622,-0.761 -0.347,-0.355 -0.487,-0.455 -0.808,-0.867 -0.308,-0.394 -1.375,-1.349 -1.744,-1.596 -0.715,0.379 -1.318,0.747 -2.057,1.116l-2.117 1.056c0.407,0.607 1.023,1.045 1.503,1.669 0.283,0.368 0.462,0.513 0.766,0.907 0.165,0.216 0.142,0.241 0.356,0.48 0.379,0.426 0.165,0.212 0.38,0.315z"/>
   <path class="fil10" d="M355.577 63.037c0.23,-0.991 1.295,-2.218 1.961,-2.881 0.856,-0.85 2.191,-1.764 2.548,-2.295 -1.021,-0.272 -1.097,-0.823 -1.503,-1.67 -1.054,0.245 -3.019,2.27 -3.8,3.048 -0.598,0.596 -1.513,1.113 -0.996,2.063 0.333,0.611 1.127,1.559 1.79,1.735z"/>
   <path class="fil10" d="M99.427 21.923c0.516,0.594 0.679,1.396 1.838,2.171 0.785,-0.526 1.094,-2.445 4.675,-4.843 -0.519,-0.773 -1.245,-0.906 -1.336,-2.004 -0.666,0.179 -2.287,1.535 -2.8,2.043 -0.872,0.863 -1.703,1.627 -2.377,2.633z"/>
   <path class="fil2" d="M73.545 30.906c-0.773,-0.325 -3.761,-2.869 -4.561,-3.587 -0.763,-0.685 -1.03,-0.664 -1.396,-1.388 -1.056,0.926 -0.997,0.667 -1.892,2.004 1.163,0.271 2.945,1.964 3.65,2.529 1.491,1.193 1.1,1.358 2.028,1.979 0.924,-0.489 1.391,-0.972 2.171,-1.537z"/>
   <path class="fil2" d="M241.367 94.477c0.098,-1.131 0.608,-2.784 0.929,-3.832 0.328,-1.075 0.873,-2.596 0.969,-3.682l-2.448 -0.835c0,3.901 -1.641,5.905 -1.669,7.181 0.391,0.104 1.955,0.927 2.219,1.168z"/>
   <path class="fil10" d="M276.883 104.094c0.554,0.828 0.829,1.002 1.837,1.002 0.534,0 0.987,-1.534 1.549,-2.792 0.482,-1.082 1.016,-1.978 1.623,-2.885l-0.142 -0.191c-0.367,-0.576 -0.589,-1.386 -1.695,-1.479 -0.339,1.457 -3.032,5.742 -3.172,6.345z"/>
   <path class="fil10" d="M454.391 57.073c0,1.187 0.968,1.336 2.17,1.336 0.206,-0.881 1.341,-3.295 1.845,-4.167 0.067,-0.118 0.828,-1.34 0.828,-1.344 0,-0.81 -0.866,-1.667 -1.503,-1.837 -0.437,0.32 -1.118,2.089 -1.612,3.064 -0.298,0.586 -0.517,0.914 -0.841,1.496 -0.109,0.195 -0.887,1.451 -0.887,1.452z"/>
   <path class="fil1" d="M311.905 76.999c0.054,0.673 0.25,0.917 0.404,1.618 0.105,0.484 0.254,1.278 0.264,1.74 0.715,-0.379 1.318,-0.748 2.058,-1.116 0.391,-0.195 0.63,-0.291 1,-0.502 0.454,-0.258 0.579,-0.429 1.116,-0.553 0,-0.895 0.009,-2.114 -0.348,-2.997 -0.126,-0.314 -0.03,-0.141 -0.181,-0.343 -0.422,0.25 -0.168,0.039 -0.594,0.2 -0.822,0.311 -1.415,0.967 -2.13,1.211 -1.48,0.508 -0.127,-0.055 -1.589,0.742z"/>
   <path class="fil10" d="M395.946 55.737c1.322,0.354 3.23,2.591 3.34,2.672 0.742,-0.392 0.882,-0.624 1.465,-1.207 0.645,-0.645 0.629,-0.855 1.04,-1.632 -1.226,-0.285 -2.44,-1.1 -3.006,-2.171 -0.979,0.229 -2.594,1.423 -2.839,2.338z"/>
   <path class="fil3" d="M181.706 49.057l-1.336 -0.166c0,2.282 -0.212,4.675 1.336,4.675 0.878,0 1.436,-0.201 2.003,-0.501 -0.143,-1.716 -0.501,-0.014 -0.501,-4.508 -0.673,0.156 -0.834,0.5 -1.502,0.5z"/>
   <path class="fil11" d="M198.42 81.043c4.835,0 2.469,0.164 5.344,0.834 0.015,-0.645 0.102,-0.591 0.197,-1.167 0.078,-0.472 0.173,-0.494 -0.243,-0.779 -0.957,-0.65 -3.144,-0.927 -4.321,-0.759 -0.382,0.055 -0.977,-0.426 -0.977,1.871z"/>
   <path class="fil3" d="M256.054 72.555c2.442,0 3.847,-0.212 5.511,0.669 0,-0.928 0.109,-1.153 0.166,-1.837 -1.335,-0.707 -3.981,-1.133 -5.142,-0.635 -0.762,0.328 -0.092,-0.095 -0.535,1.803z"/>
   <path class="fil3" d="M274.883 9.649c0.056,0.682 0.133,0.595 0.428,1.075 0.769,1.251 1.074,2.571 1.074,4.102 2.261,-0.05 2.189,-1.199 1.316,-3.487 -1.144,-2.996 -1.629,-1.789 -2.818,-1.69z"/>
   <path class="fil11" d="M284.274 36.154c0.055,0.653 0.41,1.182 0.669,1.669 1.926,-0.161 4.018,-1.273 4.842,-2.505 -0.25,-0.474 -0.535,-0.93 -0.668,-1.502 -4.534,3.035 -3.354,1.623 -4.843,2.338z"/>
   <path class="fil3" d="M168.698 95.57c0,0.926 -0.152,1.11 -0.167,1.837 1.885,-0.157 2.533,-0.448 4.754,0.293 0.555,0.185 0.626,0.297 0.749,-0.297 0.003,-0.011 0.043,-0.599 0.044,-0.634 0.002,-0.059 0.002,-0.215 0,-0.26 -0.062,-1.544 -4.225,-1.06 -5.38,-0.939z"/>
   <path class="fil3" d="M258.347 74.706c0.481,0.229 1.092,0.366 1.67,0.5 0.975,-1.456 1.67,-2.594 1.67,-5.009 -0.533,-0.283 -1.174,-0.514 -1.837,-0.668 0,1.168 -0.124,1.98 -0.433,2.906 -0.39,1.167 -0.589,1.363 -1.07,2.271z"/>
   <path class="fil11" d="M406.132 38.203c0.17,0.728 0.499,0.943 0.668,1.671 1.826,0 4.121,-1.261 4.843,-2.338 -0.132,-0.567 -0.351,-0.86 -0.501,-1.503 -0.703,0.164 -0.561,0.21 -1.073,0.596 -0.982,0.74 -2.641,1.467 -3.937,1.574z"/>
   <path class="fil10" d="M297.299 70.05c0.932,1.392 1.67,2.661 1.67,5.01 0.708,-0.058 1.17,-0.345 1.837,-0.5 0,-2.18 -1.238,-5.01 -1.837,-5.01 -0.423,0 -1.363,0.354 -1.67,0.5z"/>
   <path class="fil4" d="M323.683 81.072c0.297,0.562 0.657,0.988 1.001,1.503 1.567,-0.752 2.564,-0.684 4.343,-3.34 -0.298,-0.445 -0.705,-0.892 -1.003,-1.336 -1.116,0.747 -2.175,2.668 -4.341,3.173z"/>
   <path class="fil10" d="M297.466 21.793c0.82,1.548 1.67,2.59 1.67,5.009 0.399,-0.033 0.575,-0.08 0.959,-0.211 0.917,-0.31 0.88,-0.832 0.671,-1.913 -0.073,-0.376 -0.188,-0.884 -0.36,-1.317 -0.93,-2.353 -1.242,-2.383 -2.94,-1.568z"/>
   <path class="fil3" d="M360.292 32.186c0.316,0.472 3.034,2.342 3.173,4.007 0.829,-0.069 0.86,-0.572 1.503,-1.002 -0.518,-2.218 -1.984,-2.994 -3.34,-4.174 -0.593,0.397 -0.93,0.561 -1.336,1.169z"/>
   <path class="fil11" d="M114.745 6.811l-1.169 0c-0.046,2.065 -1.201,1.817 1.676,1.831 2.169,0.008 2.513,0.759 3.5,0.841 0,-0.928 0.167,-0.99 0.167,-1.837 -2.068,-0.482 -0.719,-0.835 -4.174,-0.835z"/>
   <path class="fil7" d="M432.683 32.192l-0.167 1.169c1.52,0 1.675,0.141 2.671,0.668 0.567,-0.846 1.215,-1.044 1.337,-2.505 -0.785,-0.065 -2.281,-0.959 -4.175,-1.001 0.065,0.783 0.334,0.825 0.334,1.669z"/>
   <path class="fil7" d="M147.306 12.822c0.263,0.983 0.859,0.451 1.337,2.505 2.288,-1.21 3.006,0.182 3.006,-2.171 0,-0.576 -0.124,-0.647 -0.167,-1.169 -1.813,0 -2.802,0.515 -4.176,0.835z"/>
   <path class="fil7" d="M430.425 87.791c0.131,0.491 -0.003,0.158 0.396,0.606l0.399 0.437c0.345,0.437 0.526,0.738 0.541,1.462 2.884,-1.384 3.006,0.693 3.006,-2.839 0,-1.28 -3.219,0.241 -4.342,0.334z"/>
   <path class="fil7" d="M129.484 18.417l-0.167 1.168c1.521,0 1.675,0.14 2.673,0.669 0.664,-0.994 0.971,-0.774 1.335,-2.338 -1.071,-0.567 -2.676,-1.045 -4.175,-1.17 0.065,0.784 0.334,0.826 0.334,1.671z"/>
   <path class="fil7" d="M204.249 120.026c0.245,0.923 0.906,0.664 1.335,2.505 0.416,-0.221 0.734,-0.357 1.211,-0.47 0.922,-0.219 0.66,-0.098 1.461,-0.031 0.589,-2.525 0.167,-1.344 0.167,-2.839 -1.991,0 -3.306,0.763 -4.174,0.835z"/>
   <path class="fil7" d="M428.676 61.248l0 1.335c1.546,0.035 1.986,0.508 2.67,0.668 0.505,-0.753 1.07,-1.142 1.17,-2.338 -1.103,-0.529 -2.541,-1.001 -4.174,-1.001 0.193,0.404 0.334,0.731 0.334,1.336z"/>
   <path class="fil7" d="M250.376 19.287c0,0.61 -0.149,0.398 -0.166,1.169 1.36,0 1.685,0.12 2.504,0.668 1.036,-0.693 0.978,-1.244 1.503,-2.337 -1.905,-0.915 -2.463,-0.77 -4.174,-1.17 0.015,0.704 0.333,1.284 0.333,1.67z"/>
   <path class="fil7" d="M282.063 50.226c0.728,-0.487 1.108,-1.357 1.335,-2.337 -1.18,-0.275 -2.192,-1.002 -4.174,-1.002 0.083,0.356 0.258,0.921 0.298,1.212 0.345,2.473 -1.053,1.232 1.327,1.671 0.482,0.088 0.626,0.32 1.214,0.456z"/>
   <path class="fil7" d="M87.738 39.29c1.539,0 1.892,0.486 2.672,0.667 0.307,-0.457 1.17,-1.302 1.17,-2.003 0,-0.863 -3.014,-1.336 -4.176,-1.336 0.655,1.237 0.334,1.317 0.334,2.672z"/>
   <path class="fil7" d="M350.694 21.005c0,0.45 -0.081,0.46 -0.168,0.834 1.361,0 1.687,0.12 2.505,0.668 0.744,-0.498 1.27,-1.338 1.504,-2.338 -0.533,-0.282 -1.249,-0.538 -1.944,-0.729 -0.652,-0.18 -1.8,-0.232 -2.232,-0.439 0.068,0.809 0.335,1.046 0.335,2.004z"/>
   <path class="fil7" d="M262.566 50.68c1.547,0.035 1.988,0.509 2.672,0.668 0.656,-0.439 1.126,-1.435 1.336,-2.338 -1.372,-0.319 -1.957,-1.001 -4.175,-1.001 0.184,0.791 0.631,1.704 0.167,2.671z"/>
   <path class="fil3" d="M358.454 61.408c0.323,1.208 1.426,0.475 0.836,3.005 1.968,-0.458 2.838,-0.698 2.838,-2.004 0,-0.768 -0.767,-1.568 -1.352,-1.62 -0.49,-0.043 -1.542,0.554 -2.322,0.619z"/>
   <path class="fil3" d="M246.328 60.746c1.6,0.427 1.024,2.411 1.003,2.673 0.608,-0.143 1.14,-0.34 1.783,-0.554 2.059,-0.685 0.687,-3.07 -0.425,-3.067 -0.174,0 -0.937,0.278 -1.258,0.382 -0.641,0.207 -0.787,0.135 -1.103,0.566z"/>
   <path class="fil3" d="M411.723 85.954c0.234,0.352 1.169,1.116 1.169,2.004 0,0.433 -0.112,0.172 -0.167,0.836 0.769,-0.065 2.364,-0.503 2.654,-1.203 0.387,-0.935 -0.384,-2.304 -1.318,-2.304 -0.582,0 -1.693,0.517 -2.338,0.667z"/>
   <path class="fil3" d="M290.954 55.022c0.322,1.207 1.424,0.476 0.835,3.006 1.046,-0.502 2.839,-0.466 2.839,-1.837 0,-0.788 -0.549,-1.622 -1.232,-1.77 -0.537,-0.115 -1.639,0.534 -2.442,0.601z"/>
   <path class="fil10" d="M294.587 82.789c0,0.854 -0.481,1.703 -0.668,2.505 1.338,0.708 1.141,0.667 2.505,0.667 0,-1.952 0.215,-1.443 0.5,-2.671 -0.583,-0.392 -1.414,-0.981 -2.337,-1.003l0 0.502z"/>
   <path class="fil10" d="M287.908 117.521c0,0.805 0.518,1.18 1.001,1.503 0.452,-0.331 0.504,-0.761 1.376,-1.63 0.969,-0.966 1.292,-0.9 1.463,-1.543 -0.625,-0.167 -0.685,-0.357 -0.835,-1.001 -0.53,0.355 -1.148,0.759 -1.63,1.207 -0.207,0.193 -1.375,1.315 -1.375,1.464z"/>
   <path class="fil10" d="M330.823 14.993c0.871,0 1.086,0.026 1.836,-0.334 -1.353,-2.557 0.81,-2.338 -2.672,-2.338 0.107,0.454 0.264,0.907 0.306,1.365 0.06,0.649 -0.184,1.307 0.53,1.307z"/>
   <path class="fil10" d="M385.673 90.13c0.081,0.957 0.334,1.498 0.334,2.671 0.993,0 1.317,0.075 2.171,-0.333 -0.213,-0.917 -0.501,-1.027 -0.501,-2.338 -1.379,0 0.011,-0.211 -2.004,0z"/>
   <path class="fil10" d="M425.502 85.628l0 0.834c1.335,0 1.059,0.092 2.171,-0.167 -0.082,-0.993 -0.334,-0.371 -0.334,-2.338 -0.808,-0.188 -1.161,-0.166 -2.17,-0.166 0.146,0.63 0.333,1.044 0.333,1.837z"/>
   <path class="fil3" d="M131.944 29.187c-0.054,0.648 -0.15,0.435 -0.167,1.169 3.944,0 3.34,0.869 3.34,-0.836 -0.572,-0.133 -0.78,-0.268 -1.461,-0.389 -0.727,-0.128 -0.728,0.056 -1.712,0.056z"/>
   <path class="fil3" d="M435.769 66.584c0.45,0.672 0.501,0.203 0.501,1.336 2.378,-0.198 0.884,-1.596 0.835,-1.669 -0.54,0.125 -0.733,0.283 -1.336,0.333z"/>
   <path class="fil11" d="M281.269 70.217l0.343 0.664c0.805,-0.185 1.422,-0.391 1.828,-0.998 -0.127,-0.224 -0.092,-0.184 -0.168,-0.5 -0.609,0.142 -0.47,0.205 -0.91,0.425 -0.389,0.195 -0.729,0.235 -1.093,0.409z"/>
   <path class="fil12" d="M347.561 85.413l0 0.334c0.33,0.159 0.772,0.241 1.169,0.335 0.363,-0.685 0.837,-1.337 -1.169,-1.337l0 0.668z"/>
   <path class="fil12" d="M314.499 69.883l0 0.668c0.658,0 0.677,0.053 1.169,0.168 0.207,-0.391 0.286,-0.435 0.334,-1.002 -0.673,-0.157 -0.8,-0.334 -1.671,-0.334 0.115,0.204 0.168,0.178 0.168,0.5z"/>
   <path class="fil7" d="M172.521 18.333c-0.408,0.107 -0.225,-0.075 -0.334,0.334l0.334 -0.334z"/>
   <polygon class="fil13" points="170.2,75.866 170.008,76.191 "/>
   <polygon class="fil13" points="172.354,44.55 172.713,44.457 "/>
   <polygon class="fil14" points="63.525,1.217 63.201,1.025 "/>
  </g>
  <polygon class="fil15" points="55,128.32 106.137,142.051 107.883,168.199 55,153.998 "/>
  <polygon class="fil15" points="495,126.95 443.863,140.682 442.117,166.83 495,152.629 "/>
  <path class="fil16" d="M127.072 142.943l3.871 0 0 -3.871 -3.871 0 0 3.871zm-0.073 21.691l4.017 0 0 -10.663 -0.511 -8.143 -2.995 0 -0.511 8.143 0 10.663z"/>
  <polygon id="_1" class="fil16" points="138.028,164.634 142.044,164.634 142.044,153.752 146.901,139.072 142.994,139.072 140.255,148.457 140.182,148.457 137.443,139.072 133.17,139.072 138.028,153.752 "/>
  <path id="_2" class="fil16" d="M145.988 164.634l3.725 0 0.73 -5.003 4.565 0 0 -0.073 0.73 5.076 4.017 0 -4.163 -25.562 -5.441 0 -4.163 25.562zm4.929 -8.472l1.754 -12.635 0.072 0 1.79 12.635 -3.616 0z"/>
  <polygon id="_3" class="fil16" points="170.673,164.634 174.69,164.634 174.69,142.724 178.89,142.724 178.89,139.072 166.474,139.072 166.474,142.724 170.673,142.724 "/>
  <polygon id="_4" class="fil16" points="180.824,164.634 191.78,164.634 191.78,160.982 184.842,160.982 184.842,153.131 190.356,153.131 190.356,149.48 184.842,149.48 184.842,142.724 191.78,142.724 191.78,139.072 180.824,139.072 "/>
  <polygon id="_5" class="fil16" points="194.08,164.634 197.659,164.634 197.659,145.973 197.732,145.973 202.553,164.634 206.68,164.634 206.68,139.072 203.101,139.072 203.101,154.372 203.028,154.372 199.12,139.072 194.08,139.072 "/>
  <polygon id="_6" class="fil16" points="209.673,164.634 220.629,164.634 220.629,160.982 213.691,160.982 213.691,153.131 219.205,153.131 219.205,149.48 213.691,149.48 213.691,142.724 220.629,142.724 220.629,139.072 209.673,139.072 "/>
  <polygon id="_7" class="fil16" points="222.929,164.634 226.435,164.634 226.435,145.28 226.508,145.28 229.43,164.634 232.789,164.634 235.71,145.28 235.783,145.28 235.783,164.634 239.581,164.634 239.581,139.072 233.848,139.072 231.292,157.367 231.219,157.367 228.663,139.072 222.929,139.072 "/>
  <path id="_8" class="fil16" d="M248.382 164.999c3.944,0 6.098,-2.337 6.098,-6.427l0 -13.438c0,-4.091 -2.154,-6.428 -6.098,-6.428 -3.943,0 -6.099,2.337 -6.099,6.428l0 13.438c0,4.09 2.156,6.427 6.099,6.427zm0 -3.652c-1.278,0 -2.081,-0.693 -2.081,-2.519l0 -13.95c0,-1.826 0.803,-2.52 2.081,-2.52 1.279,0 2.082,0.694 2.082,2.52l0 13.95c0,1.826 -0.803,2.519 -2.082,2.519z"/>
  <path id="_9" class="fil16" d="M262.405 164.999c3.944,0 6.062,-2.337 6.062,-6.5 0,-3.177 -1.059,-5.222 -4.419,-8.18 -2.629,-2.301 -3.468,-3.651 -3.468,-5.514 0,-1.753 0.729,-2.447 2.007,-2.447 1.278,0 2.009,0.694 2.009,2.52l0 1.315 3.798 0 0 -1.059c0,-4.091 -1.936,-6.428 -5.843,-6.428 -3.907,0 -5.989,2.337 -5.989,6.355 0,2.921 1.095,5.003 4.455,7.96 2.629,2.301 3.433,3.652 3.433,5.77 0,1.899 -0.804,2.556 -2.081,2.556 -1.278,0 -2.082,-0.657 -2.082,-2.483l0 -1.753 -3.798 0 0 1.461c0,4.09 1.972,6.427 5.916,6.427z"/>
  <path id="_10" class="fil16" d="M282.453 164.999c3.943,0 5.989,-2.337 5.989,-6.427l0 -19.5 -3.871 0 0 19.792c0,1.826 -0.767,2.483 -2.045,2.483 -1.279,0 -2.046,-0.657 -2.046,-2.483l0 -19.792 -4.016 0 0 19.5c0,4.09 2.045,6.427 5.989,6.427z"/>
  <polygon id="_11" class="fil16" points="291.29,164.634 294.869,164.634 294.869,145.973 294.942,145.973 299.762,164.634 303.889,164.634 303.889,139.072 300.31,139.072 300.31,154.372 300.237,154.372 296.329,139.072 291.29,139.072 "/>
  <path id="_12" class="fil16" d="M318.422 164.999c3.944,0 5.989,-2.337 5.989,-6.427l0 -8.363 -5.806 0 0 3.652 2.008 0 0 5.003c0,1.826 -0.803,2.483 -2.082,2.483 -1.277,0 -2.081,-0.657 -2.081,-2.483l0 -13.986c0,-1.826 0.804,-2.52 2.081,-2.52 1.279,0 2.082,0.694 2.082,2.52l0 2.446 3.798 0 0 -2.19c0,-4.091 -2.045,-6.428 -5.989,-6.428 -3.943,0 -5.989,2.337 -5.989,6.428l0 13.438c0,4.09 2.046,6.427 5.989,6.427z"/>
  <path id="_13" class="fil16" d="M325.945 164.634l3.724 0 0.731 -5.003 4.565 0 0 -0.073 0.729 5.076 4.018 0 -4.163 -25.562 -5.441 0 -4.163 25.562zm4.929 -8.472l1.754 -12.635 0.072 0 1.79 12.635 -3.616 0z"/>
  <polygon id="_14" class="fil16" points="341.646,164.634 345.225,164.634 345.225,145.973 345.298,145.973 350.119,164.634 354.246,164.634 354.246,139.072 350.667,139.072 350.667,154.372 350.594,154.372 346.686,139.072 341.646,139.072 "/>
  <path id="_15" class="fil16" d="M356.181 164.634l3.725 0 0.73 -5.003 4.565 0 0 -0.073 0.73 5.076 4.017 0 -4.163 -25.562 -5.441 0 -4.163 25.562zm4.929 -8.472l1.754 -12.635 0.072 0 1.79 12.635 -3.616 0z"/>
  <path id="_16" class="fil16" d="M371.883 164.634l6.135 0c4.017,0 5.989,-2.228 5.989,-6.317l0 -12.928c0,-4.09 -1.972,-6.317 -5.989,-6.317l-6.135 0 0 25.562zm4.017 -3.652l0 -18.258 2.045 0c1.278,0 2.045,0.657 2.045,2.482l0 13.293c0,1.826 -0.767,2.483 -2.045,2.483l-2.045 0z"/>
  <path id="_17" class="fil16" d="M392.515 164.999c3.944,0 6.098,-2.337 6.098,-6.427l0 -13.438c0,-4.091 -2.154,-6.428 -6.098,-6.428 -3.943,0 -6.098,2.337 -6.098,6.428l0 13.438c0,4.09 2.155,6.427 6.098,6.427zm0 -3.652c-1.278,0 -2.081,-0.693 -2.081,-2.519l0 -13.95c0,-1.826 0.803,-2.52 2.081,-2.52 1.279,0 2.082,0.694 2.082,2.52l0 13.95c0,1.826 -0.803,2.519 -2.082,2.519z"/>
  <path id="_18" class="fil16" d="M401.316 164.634l4.017 0 0 -10.955 1.387 0c1.826,0 2.52,0.767 2.52,3.14l0 4.675c0,2.081 0.147,2.482 0.366,3.14l4.089 0c-0.401,-0.95 -0.438,-1.862 -0.438,-3.104l0 -4.491c0,-2.885 -0.657,-4.785 -2.666,-5.405l0 -0.073c1.79,-0.731 2.629,-2.411 2.629,-5.04l0 -1.57c0,-3.944 -1.789,-5.879 -5.951,-5.879l-5.953 0 0 25.562zm4.017 -14.607l0 -7.303 1.826 0c1.424,0 2.045,0.803 2.045,2.629l0 1.971c0,2.045 -0.913,2.703 -2.41,2.703l-1.461 0z"/>
  <path id="_19" class="fil16" d="M416.872 157.878l2.995 0 0.511 -8.143 0 -10.663 -4.017 0 0 10.663 0.511 8.143zm-0.437 6.756l3.871 0 0 -3.871 -3.871 0 0 3.871z"/>
  <path id="_20" class="fil17 str0" d="M127.072 142.943l3.871 0 0 -3.871 -3.871 0 0 3.871zm-0.073 21.691l4.017 0 0 -10.663 -0.511 -8.143 -2.995 0 -0.511 8.143 0 10.663z"/>
  <polygon id="_21" class="fil17 str0" points="138.028,164.634 142.044,164.634 142.044,153.752 146.901,139.072 142.994,139.072 140.255,148.457 140.182,148.457 137.443,139.072 133.17,139.072 138.028,153.752 "/>
  <path id="_22" class="fil17 str0" d="M145.988 164.634l3.725 0 0.73 -5.003 4.565 0 0 -0.073 0.73 5.076 4.017 0 -4.163 -25.562 -5.441 0 -4.163 25.562zm4.929 -8.472l1.754 -12.635 0.072 0 1.79 12.635 -3.616 0z"/>
  <polygon id="_23" class="fil17 str0" points="170.673,164.634 174.69,164.634 174.69,142.724 178.89,142.724 178.89,139.072 166.474,139.072 166.474,142.724 170.673,142.724 "/>
  <polygon id="_24" class="fil17 str0" points="180.824,164.634 191.78,164.634 191.78,160.982 184.842,160.982 184.842,153.131 190.356,153.131 190.356,149.48 184.842,149.48 184.842,142.724 191.78,142.724 191.78,139.072 180.824,139.072 "/>
  <polygon id="_25" class="fil17 str0" points="194.08,164.634 197.659,164.634 197.659,145.973 197.732,145.973 202.553,164.634 206.68,164.634 206.68,139.072 203.101,139.072 203.101,154.372 203.028,154.372 199.12,139.072 194.08,139.072 "/>
  <polygon id="_26" class="fil17 str0" points="209.673,164.634 220.629,164.634 220.629,160.982 213.691,160.982 213.691,153.131 219.205,153.131 219.205,149.48 213.691,149.48 213.691,142.724 220.629,142.724 220.629,139.072 209.673,139.072 "/>
  <polygon id="_27" class="fil17 str0" points="222.929,164.634 226.435,164.634 226.435,145.28 226.508,145.28 229.43,164.634 232.789,164.634 235.71,145.28 235.783,145.28 235.783,164.634 239.581,164.634 239.581,139.072 233.848,139.072 231.292,157.367 231.219,157.367 228.663,139.072 222.929,139.072 "/>
  <path id="_28" class="fil17 str0" d="M248.382 164.999c3.944,0 6.098,-2.337 6.098,-6.427l0 -13.438c0,-4.091 -2.154,-6.428 -6.098,-6.428 -3.943,0 -6.099,2.337 -6.099,6.428l0 13.438c0,4.09 2.156,6.427 6.099,6.427zm0 -3.652c-1.278,0 -2.081,-0.693 -2.081,-2.519l0 -13.95c0,-1.826 0.803,-2.52 2.081,-2.52 1.279,0 2.082,0.694 2.082,2.52l0 13.95c0,1.826 -0.803,2.519 -2.082,2.519z"/>
  <path id="_29" class="fil17 str0" d="M262.405 164.999c3.944,0 6.062,-2.337 6.062,-6.5 0,-3.177 -1.059,-5.222 -4.419,-8.18 -2.629,-2.301 -3.468,-3.651 -3.468,-5.514 0,-1.753 0.729,-2.447 2.007,-2.447 1.278,0 2.009,0.694 2.009,2.52l0 1.315 3.798 0 0 -1.059c0,-4.091 -1.936,-6.428 -5.843,-6.428 -3.907,0 -5.989,2.337 -5.989,6.355 0,2.921 1.095,5.003 4.455,7.96 2.629,2.301 3.433,3.652 3.433,5.77 0,1.899 -0.804,2.556 -2.081,2.556 -1.278,0 -2.082,-0.657 -2.082,-2.483l0 -1.753 -3.798 0 0 1.461c0,4.09 1.972,6.427 5.916,6.427z"/>
  <path id="_30" class="fil17 str0" d="M282.453 164.999c3.943,0 5.989,-2.337 5.989,-6.427l0 -19.5 -3.871 0 0 19.792c0,1.826 -0.767,2.483 -2.045,2.483 -1.279,0 -2.046,-0.657 -2.046,-2.483l0 -19.792 -4.016 0 0 19.5c0,4.09 2.045,6.427 5.989,6.427z"/>
  <polygon id="_31" class="fil17 str0" points="291.29,164.634 294.869,164.634 294.869,145.973 294.942,145.973 299.762,164.634 303.889,164.634 303.889,139.072 300.31,139.072 300.31,154.372 300.237,154.372 296.329,139.072 291.29,139.072 "/>
  <path id="_32" class="fil17 str0" d="M318.422 164.999c3.944,0 5.989,-2.337 5.989,-6.427l0 -8.363 -5.806 0 0 3.652 2.008 0 0 5.003c0,1.826 -0.803,2.483 -2.082,2.483 -1.277,0 -2.081,-0.657 -2.081,-2.483l0 -13.986c0,-1.826 0.804,-2.52 2.081,-2.52 1.279,0 2.082,0.694 2.082,2.52l0 2.446 3.798 0 0 -2.19c0,-4.091 -2.045,-6.428 -5.989,-6.428 -3.943,0 -5.989,2.337 -5.989,6.428l0 13.438c0,4.09 2.046,6.427 5.989,6.427z"/>
  <path id="_33" class="fil17 str0" d="M325.945 164.634l3.724 0 0.731 -5.003 4.565 0 0 -0.073 0.729 5.076 4.018 0 -4.163 -25.562 -5.441 0 -4.163 25.562zm4.929 -8.472l1.754 -12.635 0.072 0 1.79 12.635 -3.616 0z"/>
  <polygon id="_34" class="fil17 str0" points="341.646,164.634 345.225,164.634 345.225,145.973 345.298,145.973 350.119,164.634 354.246,164.634 354.246,139.072 350.667,139.072 350.667,154.372 350.594,154.372 346.686,139.072 341.646,139.072 "/>
  <path id="_35" class="fil17 str0" d="M356.181 164.634l3.725 0 0.73 -5.003 4.565 0 0 -0.073 0.73 5.076 4.017 0 -4.163 -25.562 -5.441 0 -4.163 25.562zm4.929 -8.472l1.754 -12.635 0.072 0 1.79 12.635 -3.616 0z"/>
  <path id="_36" class="fil17 str0" d="M371.883 164.634l6.135 0c4.017,0 5.989,-2.228 5.989,-6.317l0 -12.928c0,-4.09 -1.972,-6.317 -5.989,-6.317l-6.135 0 0 25.562zm4.017 -3.652l0 -18.258 2.045 0c1.278,0 2.045,0.657 2.045,2.482l0 13.293c0,1.826 -0.767,2.483 -2.045,2.483l-2.045 0z"/>
  <path id="_37" class="fil17 str0" d="M392.515 164.999c3.944,0 6.098,-2.337 6.098,-6.427l0 -13.438c0,-4.091 -2.154,-6.428 -6.098,-6.428 -3.943,0 -6.098,2.337 -6.098,6.428l0 13.438c0,4.09 2.155,6.427 6.098,6.427zm0 -3.652c-1.278,0 -2.081,-0.693 -2.081,-2.519l0 -13.95c0,-1.826 0.803,-2.52 2.081,-2.52 1.279,0 2.082,0.694 2.082,2.52l0 13.95c0,1.826 -0.803,2.519 -2.082,2.519z"/>
  <path id="_38" class="fil17 str0" d="M401.316 164.634l4.017 0 0 -10.955 1.387 0c1.826,0 2.52,0.767 2.52,3.14l0 4.675c0,2.081 0.147,2.482 0.366,3.14l4.089 0c-0.401,-0.95 -0.438,-1.862 -0.438,-3.104l0 -4.491c0,-2.885 -0.657,-4.785 -2.666,-5.405l0 -0.073c1.79,-0.731 2.629,-2.411 2.629,-5.04l0 -1.57c0,-3.944 -1.789,-5.879 -5.951,-5.879l-5.953 0 0 25.562zm4.017 -14.607l0 -7.303 1.826 0c1.424,0 2.045,0.803 2.045,2.629l0 1.971c0,2.045 -0.913,2.703 -2.41,2.703l-1.461 0z"/>
  <path id="_39" class="fil17 str0" d="M416.872 157.878l2.995 0 0.511 -8.143 0 -10.663 -4.017 0 0 10.663 0.511 8.143zm-0.437 6.756l3.871 0 0 -3.871 -3.871 0 0 3.871z"/>
  <path class="fil16" d="M127.072 142.943l3.871 0 0 -3.871 -3.871 0 0 3.871zm-0.073 21.691l4.017 0 0 -10.663 -0.511 -8.143 -2.995 0 -0.511 8.143 0 10.663z"/>
  <polygon id="_1_0" class="fil16" points="138.028,164.634 142.044,164.634 142.044,153.752 146.901,139.072 142.994,139.072 140.255,148.457 140.182,148.457 137.443,139.072 133.17,139.072 138.028,153.752 "/>
  <path id="_2_1" class="fil16" d="M145.988 164.634l3.725 0 0.73 -5.003 4.565 0 0 -0.073 0.73 5.076 4.017 0 -4.163 -25.562 -5.441 0 -4.163 25.562zm4.929 -8.472l1.754 -12.635 0.072 0 1.79 12.635 -3.616 0z"/>
  <polygon id="_3_2" class="fil16" points="170.673,164.634 174.69,164.634 174.69,142.724 178.89,142.724 178.89,139.072 166.474,139.072 166.474,142.724 170.673,142.724 "/>
  <polygon id="_4_3" class="fil16" points="180.824,164.634 191.78,164.634 191.78,160.982 184.842,160.982 184.842,153.131 190.356,153.131 190.356,149.48 184.842,149.48 184.842,142.724 191.78,142.724 191.78,139.072 180.824,139.072 "/>
  <polygon id="_5_4" class="fil16" points="194.08,164.634 197.659,164.634 197.659,145.973 197.732,145.973 202.553,164.634 206.68,164.634 206.68,139.072 203.101,139.072 203.101,154.372 203.028,154.372 199.12,139.072 194.08,139.072 "/>
  <polygon id="_6_5" class="fil16" points="209.673,164.634 220.629,164.634 220.629,160.982 213.691,160.982 213.691,153.131 219.205,153.131 219.205,149.48 213.691,149.48 213.691,142.724 220.629,142.724 220.629,139.072 209.673,139.072 "/>
  <polygon id="_7_6" class="fil16" points="222.929,164.634 226.435,164.634 226.435,145.28 226.508,145.28 229.43,164.634 232.789,164.634 235.71,145.28 235.783,145.28 235.783,164.634 239.581,164.634 239.581,139.072 233.848,139.072 231.292,157.367 231.219,157.367 228.663,139.072 222.929,139.072 "/>
  <path id="_8_7" class="fil16" d="M248.382 164.999c3.944,0 6.098,-2.337 6.098,-6.427l0 -13.438c0,-4.091 -2.154,-6.428 -6.098,-6.428 -3.943,0 -6.099,2.337 -6.099,6.428l0 13.438c0,4.09 2.156,6.427 6.099,6.427zm0 -3.652c-1.278,0 -2.081,-0.693 -2.081,-2.519l0 -13.95c0,-1.826 0.803,-2.52 2.081,-2.52 1.279,0 2.082,0.694 2.082,2.52l0 13.95c0,1.826 -0.803,2.519 -2.082,2.519z"/>
  <path id="_9_8" class="fil16" d="M262.405 164.999c3.944,0 6.062,-2.337 6.062,-6.5 0,-3.177 -1.059,-5.222 -4.419,-8.18 -2.629,-2.301 -3.468,-3.651 -3.468,-5.514 0,-1.753 0.729,-2.447 2.007,-2.447 1.278,0 2.009,0.694 2.009,2.52l0 1.315 3.798 0 0 -1.059c0,-4.091 -1.936,-6.428 -5.843,-6.428 -3.907,0 -5.989,2.337 -5.989,6.355 0,2.921 1.095,5.003 4.455,7.96 2.629,2.301 3.433,3.652 3.433,5.77 0,1.899 -0.804,2.556 -2.081,2.556 -1.278,0 -2.082,-0.657 -2.082,-2.483l0 -1.753 -3.798 0 0 1.461c0,4.09 1.972,6.427 5.916,6.427z"/>
  <path id="_10_9" class="fil16" d="M282.453 164.999c3.943,0 5.989,-2.337 5.989,-6.427l0 -19.5 -3.871 0 0 19.792c0,1.826 -0.767,2.483 -2.045,2.483 -1.279,0 -2.046,-0.657 -2.046,-2.483l0 -19.792 -4.016 0 0 19.5c0,4.09 2.045,6.427 5.989,6.427z"/>
  <polygon id="_11_10" class="fil16" points="291.29,164.634 294.869,164.634 294.869,145.973 294.942,145.973 299.762,164.634 303.889,164.634 303.889,139.072 300.31,139.072 300.31,154.372 300.237,154.372 296.329,139.072 291.29,139.072 "/>
  <path id="_12_11" class="fil16" d="M318.422 164.999c3.944,0 5.989,-2.337 5.989,-6.427l0 -8.363 -5.806 0 0 3.652 2.008 0 0 5.003c0,1.826 -0.803,2.483 -2.082,2.483 -1.277,0 -2.081,-0.657 -2.081,-2.483l0 -13.986c0,-1.826 0.804,-2.52 2.081,-2.52 1.279,0 2.082,0.694 2.082,2.52l0 2.446 3.798 0 0 -2.19c0,-4.091 -2.045,-6.428 -5.989,-6.428 -3.943,0 -5.989,2.337 -5.989,6.428l0 13.438c0,4.09 2.046,6.427 5.989,6.427z"/>
  <path id="_13_12" class="fil16" d="M325.945 164.634l3.724 0 0.731 -5.003 4.565 0 0 -0.073 0.729 5.076 4.018 0 -4.163 -25.562 -5.441 0 -4.163 25.562zm4.929 -8.472l1.754 -12.635 0.072 0 1.79 12.635 -3.616 0z"/>
  <polygon id="_14_13" class="fil16" points="341.646,164.634 345.225,164.634 345.225,145.973 345.298,145.973 350.119,164.634 354.246,164.634 354.246,139.072 350.667,139.072 350.667,154.372 350.594,154.372 346.686,139.072 341.646,139.072 "/>
  <path id="_15_14" class="fil16" d="M356.181 164.634l3.725 0 0.73 -5.003 4.565 0 0 -0.073 0.73 5.076 4.017 0 -4.163 -25.562 -5.441 0 -4.163 25.562zm4.929 -8.472l1.754 -12.635 0.072 0 1.79 12.635 -3.616 0z"/>
  <path id="_16_15" class="fil16" d="M371.883 164.634l6.135 0c4.017,0 5.989,-2.228 5.989,-6.317l0 -12.928c0,-4.09 -1.972,-6.317 -5.989,-6.317l-6.135 0 0 25.562zm4.017 -3.652l0 -18.258 2.045 0c1.278,0 2.045,0.657 2.045,2.482l0 13.293c0,1.826 -0.767,2.483 -2.045,2.483l-2.045 0z"/>
  <path id="_17_16" class="fil16" d="M392.515 164.999c3.944,0 6.098,-2.337 6.098,-6.427l0 -13.438c0,-4.091 -2.154,-6.428 -6.098,-6.428 -3.943,0 -6.098,2.337 -6.098,6.428l0 13.438c0,4.09 2.155,6.427 6.098,6.427zm0 -3.652c-1.278,0 -2.081,-0.693 -2.081,-2.519l0 -13.95c0,-1.826 0.803,-2.52 2.081,-2.52 1.279,0 2.082,0.694 2.082,2.52l0 13.95c0,1.826 -0.803,2.519 -2.082,2.519z"/>
  <path id="_18_17" class="fil16" d="M401.316 164.634l4.017 0 0 -10.955 1.387 0c1.826,0 2.52,0.767 2.52,3.14l0 4.675c0,2.081 0.147,2.482 0.366,3.14l4.089 0c-0.401,-0.95 -0.438,-1.862 -0.438,-3.104l0 -4.491c0,-2.885 -0.657,-4.785 -2.666,-5.405l0 -0.073c1.79,-0.731 2.629,-2.411 2.629,-5.04l0 -1.57c0,-3.944 -1.789,-5.879 -5.951,-5.879l-5.953 0 0 25.562zm4.017 -14.607l0 -7.303 1.826 0c1.424,0 2.045,0.803 2.045,2.629l0 1.971c0,2.045 -0.913,2.703 -2.41,2.703l-1.461 0z"/>
  <path id="_19_18" class="fil16" d="M416.872 157.878l2.995 0 0.511 -8.143 0 -10.663 -4.017 0 0 10.663 0.511 8.143zm-0.437 6.756l3.871 0 0 -3.871 -3.871 0 0 3.871z"/>
  <path class="fil18" d="M214.2 199.865l5.599 0c3.667,0 5.467,-2.033 5.467,-5.766l0 -11.8c0,-3.733 -1.8,-5.766 -5.467,-5.766l-5.599 0 0 23.332zm3.666 -3.333l0 -16.666 1.867 0c1.166,0 1.866,0.6 1.866,2.266l0 12.133c0,1.667 -0.7,2.267 -1.866,2.267l-1.867 0z"/>
  <polygon id="_1_19" class="fil18" points="227.733,199.865 237.732,199.865 237.732,196.532 231.399,196.532 231.399,189.365 236.432,189.365 236.432,186.032 231.399,186.032 231.399,179.866 237.732,179.866 237.732,176.533 227.733,176.533 "/>
  <polygon id="_2_20" class="fil18" points="239.833,199.865 249.532,199.865 249.532,196.532 243.499,196.532 243.499,176.533 239.833,176.533 "/>
  <path id="_3_21" class="fil18" d="M261.398 200.198c3.6,0 5.533,-2.133 5.533,-5.933 0,-2.9 -0.966,-4.766 -4.033,-7.466 -2.4,-2.1 -3.167,-3.333 -3.167,-5.033 0,-1.6 0.667,-2.234 1.834,-2.234 1.166,0 1.833,0.634 1.833,2.3l0 1.2 3.467 0 0 -0.966c0,-3.733 -1.767,-5.867 -5.334,-5.867 -3.566,0 -5.466,2.134 -5.466,5.8 0,2.667 1,4.567 4.066,7.266 2.4,2.1 3.134,3.334 3.134,5.267 0,1.733 -0.734,2.333 -1.9,2.333 -1.167,0 -1.9,-0.6 -1.9,-2.266l0 -1.6 -3.467 0 0 1.333c0,3.733 1.8,5.866 5.4,5.866z"/>
  <path id="_4_22" class="fil18" d="M274.331 200.198c3.6,0 5.567,-2.133 5.567,-5.866l0 -12.266c0,-3.733 -1.967,-5.867 -5.567,-5.867 -3.599,0 -5.566,2.134 -5.566,5.867l0 12.266c0,3.733 1.967,5.866 5.566,5.866zm0 -3.333c-1.166,0 -1.9,-0.633 -1.9,-2.3l0 -12.733c0,-1.666 0.734,-2.3 1.9,-2.3 1.167,0 1.9,0.634 1.9,2.3l0 12.733c0,1.667 -0.733,2.3 -1.9,2.3z"/>
  <path id="_5_23" class="fil18" d="M282.365 199.865l3.666 0 0 -10 1.267 0c1.667,0 2.3,0.7 2.3,2.867l0 4.266c0,1.9 0.133,2.267 0.333,2.867l3.734 0c-0.367,-0.867 -0.4,-1.7 -0.4,-2.833l0 -4.1c0,-2.633 -0.6,-4.367 -2.434,-4.933l0 -0.067c1.634,-0.666 2.4,-2.2 2.4,-4.6l0 -1.433c0,-3.6 -1.633,-5.366 -5.433,-5.366l-5.433 0 0 23.332zm3.666 -13.333l0 -6.666 1.667 0c1.3,0 1.867,0.733 1.867,2.4l0 1.8c0,1.866 -0.834,2.466 -2.2,2.466l-1.334 0z"/>
  <polygon id="_6_24" class="fil18" points="298.598,199.865 302.265,199.865 302.265,179.866 306.098,179.866 306.098,176.533 294.765,176.533 294.765,179.866 298.598,179.866 "/>
  <polygon id="_7_25" class="fil18" points="307.865,199.865 317.864,199.865 317.864,196.532 311.531,196.532 311.531,189.365 316.564,189.365 316.564,186.032 311.531,186.032 311.531,179.866 317.864,179.866 317.864,176.533 307.865,176.533 "/>
  <path id="_8_26" class="fil18" d="M325.264 200.198c3.6,0 5.567,-2.133 5.567,-5.866l0 -12.266c0,-3.733 -1.967,-5.867 -5.567,-5.867 -3.599,0 -5.566,2.134 -5.566,5.867l0 12.266c0,3.733 1.967,5.866 5.566,5.866zm0 -3.333c-1.166,0 -1.9,-0.633 -1.9,-2.3l0 -12.733c0,-1.666 0.734,-2.3 1.9,-2.3 1.167,0 1.9,0.634 1.9,2.3l0 12.733c0,1.667 -0.733,2.3 -1.9,2.3z"/>
  <rect class="fil19" x="141.4" y="208.999" width="262.4" height="32.8" rx="8" ry="8"/>
  <rect class="fil20" x="166.2" y="252.199" width="212.154" height="47.2" rx="11.2" ry="9.052"/>
  <path class="fil16" d="M171.489 312.873l0 1.452 -1.474 0 0 -1.452 1.474 0zm-0.334 2.593l0.389 5.522 0 2.311 -1.585 0 0 -2.311 0.37 -5.522 0.826 0z"/>
  <path id="_1_27" class="fil16" d="M179.174 316.34l0 -1.226 4.418 0 0 3.863c-1.366,1.085 -2.803,1.626 -4.318,1.626 -1.607,0 -2.896,-0.482 -3.867,-1.452 -0.97,-0.97 -1.459,-2.267 -1.459,-3.885 0,-1.526 0.437,-2.815 1.307,-3.867 0.871,-1.048 2.175,-1.574 3.915,-1.574 2.33,0 3.748,1.03 4.263,3.093l-1.241 0.34c-0.437,-1.5 -1.44,-2.251 -3.018,-2.251 -1.207,0 -2.144,0.366 -2.807,1.103 -0.663,0.737 -0.997,1.76 -0.997,3.071 0,1.463 0.371,2.526 1.104,3.185 0.737,0.659 1.644,0.989 2.722,0.989 1.215,0 2.23,-0.36 3.045,-1.078l0 -1.937 -3.067 0z"/>
  <path id="_2_28" class="fil16" d="M185.44 320.425l0 -7.552 1.156 0 0 1.145c0.481,-0.874 1.026,-1.311 1.633,-1.311 0.43,0 0.867,0.137 1.311,0.411l-0.437 1.189c-0.311,-0.186 -0.626,-0.278 -0.94,-0.278 -0.963,0 -1.441,0.815 -1.441,2.44l0 3.956 -1.282 0z"/>
  <path id="_3_29" class="fil16" d="M195.233 319.492c-0.863,0.733 -1.789,1.1 -2.778,1.1 -0.703,0 -1.311,-0.174 -1.818,-0.523 -0.508,-0.348 -0.763,-0.892 -0.763,-1.637 0,-0.5 0.13,-0.922 0.393,-1.255 0.259,-0.337 0.581,-0.585 0.966,-0.745 0.385,-0.159 0.922,-0.277 1.615,-0.359 1.033,-0.122 1.793,-0.27 2.278,-0.437 0,-0.496 -0.03,-0.848 -0.097,-1.052 -0.063,-0.203 -0.229,-0.392 -0.507,-0.563 -0.274,-0.174 -0.678,-0.259 -1.207,-0.259 -0.523,0 -0.941,0.093 -1.26,0.27 -0.318,0.182 -0.555,0.571 -0.711,1.167l-1.248 -0.174c0.315,-1.544 1.448,-2.318 3.404,-2.318 0.818,0 1.444,0.111 1.874,0.34 0.426,0.226 0.711,0.523 0.844,0.882 0.137,0.359 0.204,0.9 0.204,1.626l0.007 3.326c0,0.54 0.134,1.055 0.4,1.544l-1.34 0c-0.134,-0.263 -0.219,-0.574 -0.256,-0.933zm-0.107 -2.852c-0.471,0.189 -1.167,0.352 -2.089,0.481 -0.822,0.111 -1.326,0.289 -1.515,0.53 -0.185,0.241 -0.281,0.489 -0.281,0.752 0,0.792 0.507,1.192 1.518,1.192 1.578,0 2.367,-0.829 2.367,-2.492l0 -0.463z"/>
  <path id="_4_30" class="fil16" d="M203.333 317.658l1.259 0.163c-0.133,0.86 -0.481,1.537 -1.044,2.03 -0.563,0.496 -1.259,0.741 -2.096,0.741 -1.082,0 -1.923,-0.345 -2.53,-1.041 -0.604,-0.693 -0.904,-1.652 -0.904,-2.874 0,-1.374 0.326,-2.382 0.986,-3.019 0.655,-0.637 1.474,-0.951 2.455,-0.951 1.7,0 2.707,0.792 3.015,2.385l-1.248 0.196c-0.237,-1.022 -0.811,-1.53 -1.719,-1.53 -1.452,0 -2.178,0.96 -2.178,2.886 0,1.933 0.704,2.903 2.108,2.903 1.089,0 1.722,-0.629 1.896,-1.889z"/>
  <path id="_5_31" class="fil16" d="M205.696 311.473l0 -1.47 1.277 0 0 1.47 -1.277 0zm0 8.952l0 -7.552 1.277 0 0 7.552 -1.277 0z"/>
  <path id="_6_32" class="fil16" d="M213.847 319.492c-0.863,0.733 -1.789,1.1 -2.778,1.1 -0.703,0 -1.311,-0.174 -1.818,-0.523 -0.508,-0.348 -0.763,-0.892 -0.763,-1.637 0,-0.5 0.13,-0.922 0.393,-1.255 0.259,-0.337 0.581,-0.585 0.966,-0.745 0.385,-0.159 0.922,-0.277 1.615,-0.359 1.033,-0.122 1.793,-0.27 2.278,-0.437 0,-0.496 -0.03,-0.848 -0.097,-1.052 -0.063,-0.203 -0.229,-0.392 -0.507,-0.563 -0.274,-0.174 -0.678,-0.259 -1.207,-0.259 -0.523,0 -0.941,0.093 -1.26,0.27 -0.318,0.182 -0.555,0.571 -0.711,1.167l-1.248 -0.174c0.315,-1.544 1.448,-2.318 3.404,-2.318 0.818,0 1.444,0.111 1.874,0.34 0.426,0.226 0.711,0.523 0.844,0.882 0.137,0.359 0.204,0.9 0.204,1.626l0.007 3.326c0,0.54 0.134,1.055 0.4,1.544l-1.34 0c-0.134,-0.263 -0.219,-0.574 -0.256,-0.933zm-0.107 -2.852c-0.471,0.189 -1.167,0.352 -2.089,0.481 -0.822,0.111 -1.326,0.289 -1.515,0.53 -0.185,0.241 -0.281,0.489 -0.281,0.752 0,0.792 0.507,1.192 1.518,1.192 1.578,0 2.367,-0.829 2.367,-2.492l0 -0.463z"/>
  <path id="_7_33" class="fil16" d="M216.514 318.173l1.263 -0.2c0.144,1.048 0.796,1.574 1.952,1.574 1.159,0 1.737,-0.403 1.737,-1.207 0,-0.282 -0.104,-0.493 -0.311,-0.633 -0.208,-0.141 -0.667,-0.3 -1.378,-0.482 -0.774,-0.196 -1.345,-0.363 -1.715,-0.5 -0.37,-0.137 -0.689,-0.367 -0.948,-0.689 -0.259,-0.322 -0.389,-0.707 -0.389,-1.155 0,-0.637 0.248,-1.16 0.748,-1.567 0.5,-0.407 1.174,-0.607 2.03,-0.607 1.8,0 2.8,0.703 2.992,2.114l-1.252 0.174c-0.118,-0.825 -0.67,-1.237 -1.648,-1.237 -1.089,0 -1.633,0.323 -1.633,0.971 0,0.263 0.093,0.463 0.285,0.592 0.189,0.134 0.685,0.308 1.489,0.526 0.882,0.241 1.482,0.422 1.804,0.548 0.318,0.123 0.607,0.345 0.859,0.663 0.252,0.319 0.381,0.704 0.381,1.149 0,0.725 -0.285,1.307 -0.851,1.737 -0.571,0.433 -1.3,0.648 -2.193,0.648 -1.863,0 -2.937,-0.804 -3.222,-2.419z"/>
  <path id="_8_34" class="fil16" d="M234.209 319.492c-0.863,0.733 -1.789,1.1 -2.778,1.1 -0.703,0 -1.311,-0.174 -1.818,-0.523 -0.507,-0.348 -0.763,-0.892 -0.763,-1.637 0,-0.5 0.13,-0.922 0.393,-1.255 0.259,-0.337 0.581,-0.585 0.966,-0.745 0.385,-0.159 0.922,-0.277 1.615,-0.359 1.033,-0.122 1.793,-0.27 2.278,-0.437 0,-0.496 -0.03,-0.848 -0.096,-1.052 -0.063,-0.203 -0.23,-0.392 -0.508,-0.563 -0.274,-0.174 -0.678,-0.259 -1.207,-0.259 -0.522,0 -0.941,0.093 -1.26,0.27 -0.318,0.182 -0.555,0.571 -0.711,1.167l-1.248 -0.174c0.315,-1.544 1.448,-2.318 3.404,-2.318 0.818,0 1.444,0.111 1.874,0.34 0.426,0.226 0.711,0.523 0.844,0.882 0.137,0.359 0.204,0.9 0.204,1.626l0.008 3.326c0,0.54 0.133,1.055 0.4,1.544l-1.341 0c-0.134,-0.263 -0.219,-0.574 -0.256,-0.933zm-0.107 -2.852c-0.471,0.189 -1.167,0.352 -2.089,0.481 -0.822,0.111 -1.326,0.289 -1.515,0.53 -0.185,0.241 -0.281,0.489 -0.281,0.752 0,0.792 0.507,1.192 1.518,1.192 1.578,0 2.367,-0.829 2.367,-2.492l0 -0.463z"/>
  <path id="_9_35" class="fil16" d="M245.161 319.281l0.185 1.129c-0.363,0.074 -0.685,0.111 -0.966,0.111 -0.404,0 -0.737,-0.059 -1,-0.177 -0.263,-0.119 -0.46,-0.3 -0.589,-0.545 -0.126,-0.244 -0.193,-0.774 -0.193,-1.589l0 -4.34 -0.937 0 0 -0.997 0.937 0 0 -1.866 1.274 -0.771 0 2.637 1.289 0 0 0.997 -1.289 0 0 4.418c0,0.385 0.045,0.656 0.126,0.811 0.085,0.152 0.282,0.23 0.596,0.23 0.145,0 0.334,-0.015 0.567,-0.048z"/>
  <path id="_10_36" class="fil16" d="M245.935 316.647c0,-1.411 0.363,-2.422 1.085,-3.029 0.719,-0.608 1.541,-0.911 2.46,-0.911 1.077,0 1.937,0.348 2.574,1.048 0.637,0.7 0.959,1.629 0.959,2.792 0,1.385 -0.341,2.404 -1.022,3.059 -0.678,0.66 -1.515,0.986 -2.511,0.986 -1.23,0 -2.13,-0.386 -2.693,-1.156 -0.567,-0.77 -0.852,-1.7 -0.852,-2.789zm1.319 0c0,0.889 0.192,1.593 0.577,2.115 0.386,0.522 0.938,0.785 1.649,0.785 0.744,0 1.3,-0.278 1.666,-0.833 0.363,-0.556 0.548,-1.259 0.548,-2.107 0,-0.76 -0.177,-1.426 -0.533,-1.993 -0.355,-0.567 -0.915,-0.852 -1.681,-0.852 -0.749,0 -1.308,0.274 -1.674,0.819 -0.367,0.548 -0.552,1.237 -0.552,2.066z"/>
  <path id="_11_37" class="fil16" d="M259.413 320.425l0 -0.956c-0.482,0.749 -1.185,1.123 -2.111,1.123 -1.011,0 -1.808,-0.374 -2.385,-1.126 -0.574,-0.748 -0.863,-1.685 -0.863,-2.808 0,-1.307 0.303,-2.292 0.915,-2.959 0.611,-0.663 1.37,-0.992 2.274,-0.992 0.888,0 1.585,0.344 2.085,1.033l0 -3.737 1.274 0 0 10.422 -1.189 0zm-4.048 -3.767c0,0.849 0.181,1.541 0.544,2.078 0.36,0.541 0.867,0.811 1.511,0.811 0.663,0 1.163,-0.266 1.504,-0.792 0.341,-0.53 0.511,-1.193 0.511,-1.993 0,-0.907 -0.178,-1.633 -0.533,-2.181 -0.352,-0.545 -0.867,-0.819 -1.541,-0.819 -1.33,0 -1.996,0.967 -1.996,2.896z"/>
  <path id="_12_38" class="fil16" d="M262.135 316.647c0,-1.411 0.363,-2.422 1.085,-3.029 0.719,-0.608 1.541,-0.911 2.46,-0.911 1.077,0 1.937,0.348 2.574,1.048 0.637,0.7 0.959,1.629 0.959,2.792 0,1.385 -0.341,2.404 -1.022,3.059 -0.678,0.66 -1.515,0.986 -2.511,0.986 -1.23,0 -2.13,-0.386 -2.693,-1.156 -0.567,-0.77 -0.852,-1.7 -0.852,-2.789zm1.319 0c0,0.889 0.192,1.593 0.577,2.115 0.386,0.522 0.938,0.785 1.649,0.785 0.744,0 1.3,-0.278 1.666,-0.833 0.363,-0.556 0.548,-1.259 0.548,-2.107 0,-0.76 -0.177,-1.426 -0.533,-1.993 -0.355,-0.567 -0.915,-0.852 -1.681,-0.852 -0.749,0 -1.308,0.274 -1.674,0.819 -0.367,0.548 -0.552,1.237 -0.552,2.066z"/>
  <path id="_13_39" class="fil16" d="M270.206 318.173l1.263 -0.2c0.144,1.048 0.796,1.574 1.951,1.574 1.16,0 1.737,-0.403 1.737,-1.207 0,-0.282 -0.103,-0.493 -0.311,-0.633 -0.207,-0.141 -0.666,-0.3 -1.377,-0.482 -0.775,-0.196 -1.345,-0.363 -1.715,-0.5 -0.371,-0.137 -0.689,-0.367 -0.948,-0.689 -0.26,-0.322 -0.389,-0.707 -0.389,-1.155 0,-0.637 0.248,-1.16 0.748,-1.567 0.5,-0.407 1.174,-0.607 2.029,-0.607 1.8,0 2.8,0.703 2.993,2.114l-1.252 0.174c-0.118,-0.825 -0.67,-1.237 -1.648,-1.237 -1.089,0 -1.633,0.323 -1.633,0.971 0,0.263 0.092,0.463 0.285,0.592 0.189,0.134 0.685,0.308 1.489,0.526 0.881,0.241 1.481,0.422 1.803,0.548 0.319,0.123 0.608,0.345 0.86,0.663 0.252,0.319 0.381,0.704 0.381,1.149 0,0.725 -0.285,1.307 -0.852,1.737 -0.57,0.433 -1.3,0.648 -2.192,0.648 -1.863,0 -2.937,-0.804 -3.222,-2.419z"/>
  <path id="_14_40" class="fil16" d="M282.975 323.318l0 -10.445 1.167 0 0 0.982c0.552,-0.767 1.278,-1.148 2.189,-1.148 1.059,0 1.855,0.374 2.392,1.122 0.537,0.752 0.808,1.674 0.808,2.766 0,1.33 -0.334,2.33 -1,2.997 -0.671,0.666 -1.434,1 -2.293,1 -0.818,0 -1.478,-0.315 -1.981,-0.948l0 3.674 -1.282 0zm1.156 -6.626c0,0.855 0.174,1.544 0.526,2.066 0.348,0.526 0.848,0.789 1.5,0.789 0.681,0 1.196,-0.281 1.544,-0.841 0.348,-0.555 0.522,-1.266 0.522,-2.122 0,-0.844 -0.174,-1.533 -0.526,-2.07 -0.348,-0.537 -0.844,-0.807 -1.488,-0.807 -0.656,0 -1.167,0.296 -1.53,0.881 -0.367,0.585 -0.548,1.285 -0.548,2.104z"/>
  <path id="_15_41" class="fil16" d="M290.597 316.647c0,-1.411 0.363,-2.422 1.086,-3.029 0.718,-0.608 1.54,-0.911 2.459,-0.911 1.078,0 1.937,0.348 2.574,1.048 0.637,0.7 0.959,1.629 0.959,2.792 0,1.385 -0.341,2.404 -1.022,3.059 -0.678,0.66 -1.515,0.986 -2.511,0.986 -1.23,0 -2.13,-0.386 -2.693,-1.156 -0.566,-0.77 -0.852,-1.7 -0.852,-2.789zm1.319 0c0,0.889 0.193,1.593 0.578,2.115 0.385,0.522 0.937,0.785 1.648,0.785 0.744,0 1.3,-0.278 1.667,-0.833 0.362,-0.556 0.548,-1.259 0.548,-2.107 0,-0.76 -0.178,-1.426 -0.534,-1.993 -0.355,-0.567 -0.914,-0.852 -1.681,-0.852 -0.748,0 -1.308,0.274 -1.674,0.819 -0.367,0.548 -0.552,1.237 -0.552,2.066z"/>
  <path id="_16_42" class="fil16" d="M299.16 320.425l0 -7.552 1.156 0 0 1.145c0.481,-0.874 1.026,-1.311 1.633,-1.311 0.43,0 0.867,0.137 1.311,0.411l-0.437 1.189c-0.311,-0.186 -0.626,-0.278 -0.94,-0.278 -0.963,0 -1.441,0.815 -1.441,2.44l0 3.956 -1.282 0z"/>
  <path id="_17_43" class="fil16" d="M309.008 323.318l0 -10.445 1.167 0 0 0.982c0.552,-0.767 1.278,-1.148 2.189,-1.148 1.059,0 1.855,0.374 2.392,1.122 0.537,0.752 0.808,1.674 0.808,2.766 0,1.33 -0.334,2.33 -1,2.997 -0.671,0.666 -1.434,1 -2.293,1 -0.818,0 -1.478,-0.315 -1.981,-0.948l0 3.674 -1.282 0zm1.156 -6.626c0,0.855 0.174,1.544 0.526,2.066 0.348,0.526 0.848,0.789 1.5,0.789 0.681,0 1.196,-0.281 1.544,-0.841 0.348,-0.555 0.522,-1.266 0.522,-2.122 0,-0.844 -0.174,-1.533 -0.526,-2.07 -0.348,-0.537 -0.844,-0.807 -1.488,-0.807 -0.656,0 -1.167,0.296 -1.53,0.881 -0.367,0.585 -0.548,1.285 -0.548,2.104z"/>
  <path id="_18_44" class="fil16" d="M322.034 319.492c-0.863,0.733 -1.789,1.1 -2.778,1.1 -0.703,0 -1.311,-0.174 -1.818,-0.523 -0.508,-0.348 -0.763,-0.892 -0.763,-1.637 0,-0.5 0.13,-0.922 0.393,-1.255 0.259,-0.337 0.581,-0.585 0.966,-0.745 0.385,-0.159 0.922,-0.277 1.615,-0.359 1.033,-0.122 1.793,-0.27 2.278,-0.437 0,-0.496 -0.03,-0.848 -0.097,-1.052 -0.063,-0.203 -0.229,-0.392 -0.507,-0.563 -0.274,-0.174 -0.678,-0.259 -1.207,-0.259 -0.523,0 -0.941,0.093 -1.26,0.27 -0.318,0.182 -0.555,0.571 -0.711,1.167l-1.248 -0.174c0.315,-1.544 1.448,-2.318 3.404,-2.318 0.818,0 1.444,0.111 1.874,0.34 0.426,0.226 0.711,0.523 0.844,0.882 0.137,0.359 0.204,0.9 0.204,1.626l0.007 3.326c0,0.54 0.134,1.055 0.4,1.544l-1.34 0c-0.134,-0.263 -0.219,-0.574 -0.256,-0.933zm-0.107 -2.852c-0.471,0.189 -1.167,0.352 -2.089,0.481 -0.822,0.111 -1.326,0.289 -1.515,0.53 -0.185,0.241 -0.281,0.489 -0.281,0.752 0,0.792 0.507,1.192 1.518,1.192 1.578,0 2.367,-0.829 2.367,-2.492l0 -0.463z"/>
  <path id="_19_45" class="fil16" d="M325.193 320.425l0 -7.552 1.156 0 0 1.145c0.481,-0.874 1.026,-1.311 1.633,-1.311 0.43,0 0.867,0.137 1.311,0.411l-0.437 1.189c-0.311,-0.186 -0.626,-0.278 -0.94,-0.278 -0.963,0 -1.441,0.815 -1.441,2.44l0 3.956 -1.282 0z"/>
  <path id="_20_46" class="fil16" d="M332.857 319.281l0.185 1.129c-0.363,0.074 -0.685,0.111 -0.967,0.111 -0.404,0 -0.737,-0.059 -1,-0.177 -0.263,-0.119 -0.459,-0.3 -0.589,-0.545 -0.126,-0.244 -0.192,-0.774 -0.192,-1.589l0 -4.34 -0.937 0 0 -0.997 0.937 0 0 -1.866 1.274 -0.771 0 2.637 1.289 0 0 0.997 -1.289 0 0 4.418c0,0.385 0.044,0.656 0.126,0.811 0.085,0.152 0.281,0.23 0.596,0.23 0.144,0 0.333,-0.015 0.567,-0.048z"/>
  <path id="_21_47" class="fil16" d="M334.116 311.473l0 -1.47 1.277 0 0 1.47 -1.277 0zm0 8.952l0 -7.552 1.277 0 0 7.552 -1.277 0z"/>
  <path id="_22_48" class="fil16" d="M342.267 317.658l1.259 0.163c-0.133,0.86 -0.481,1.537 -1.044,2.03 -0.563,0.496 -1.259,0.741 -2.096,0.741 -1.082,0 -1.923,-0.345 -2.53,-1.041 -0.604,-0.693 -0.904,-1.652 -0.904,-2.874 0,-1.374 0.326,-2.382 0.986,-3.019 0.655,-0.637 1.474,-0.951 2.455,-0.951 1.7,0 2.707,0.792 3.015,2.385l-1.248 0.196c-0.237,-1.022 -0.811,-1.53 -1.719,-1.53 -1.452,0 -2.178,0.96 -2.178,2.886 0,1.933 0.704,2.903 2.108,2.903 1.089,0 1.722,-0.629 1.896,-1.889z"/>
  <path id="_23_49" class="fil16" d="M344.63 311.473l0 -1.47 1.277 0 0 1.47 -1.277 0zm0 8.952l0 -7.552 1.277 0 0 7.552 -1.277 0z"/>
  <path id="_24_50" class="fil16" d="M347.855 323.318l0 -10.445 1.167 0 0 0.982c0.552,-0.767 1.278,-1.148 2.189,-1.148 1.059,0 1.855,0.374 2.392,1.122 0.537,0.752 0.808,1.674 0.808,2.766 0,1.33 -0.334,2.33 -1,2.997 -0.671,0.666 -1.434,1 -2.293,1 -0.818,0 -1.478,-0.315 -1.981,-0.948l0 3.674 -1.282 0zm1.156 -6.626c0,0.855 0.174,1.544 0.526,2.066 0.348,0.526 0.848,0.789 1.5,0.789 0.681,0 1.196,-0.281 1.544,-0.841 0.348,-0.555 0.522,-1.266 0.522,-2.122 0,-0.844 -0.174,-1.533 -0.526,-2.07 -0.348,-0.537 -0.844,-0.807 -1.488,-0.807 -0.656,0 -1.167,0.296 -1.53,0.881 -0.367,0.585 -0.548,1.285 -0.548,2.104z"/>
  <path id="_25_51" class="fil16" d="M360.881 319.492c-0.863,0.733 -1.789,1.1 -2.778,1.1 -0.703,0 -1.311,-0.174 -1.818,-0.523 -0.508,-0.348 -0.763,-0.892 -0.763,-1.637 0,-0.5 0.13,-0.922 0.393,-1.255 0.259,-0.337 0.581,-0.585 0.966,-0.745 0.385,-0.159 0.922,-0.277 1.615,-0.359 1.033,-0.122 1.793,-0.27 2.278,-0.437 0,-0.496 -0.03,-0.848 -0.097,-1.052 -0.063,-0.203 -0.229,-0.392 -0.507,-0.563 -0.274,-0.174 -0.678,-0.259 -1.207,-0.259 -0.523,0 -0.941,0.093 -1.26,0.27 -0.318,0.182 -0.555,0.571 -0.711,1.167l-1.248 -0.174c0.315,-1.544 1.448,-2.318 3.404,-2.318 0.818,0 1.444,0.111 1.874,0.34 0.426,0.226 0.711,0.523 0.844,0.882 0.137,0.359 0.204,0.9 0.204,1.626l0.007 3.326c0,0.54 0.134,1.055 0.4,1.544l-1.34 0c-0.134,-0.263 -0.219,-0.574 -0.256,-0.933zm-0.107 -2.852c-0.471,0.189 -1.167,0.352 -2.089,0.481 -0.822,0.111 -1.326,0.289 -1.515,0.53 -0.185,0.241 -0.281,0.489 -0.281,0.752 0,0.792 0.507,1.192 1.518,1.192 1.578,0 2.367,-0.829 2.367,-2.492l0 -0.463z"/>
  <path id="_26_52" class="fil16" d="M364.04 320.425l0 -7.552 1.156 0 0 1.145c0.481,-0.874 1.026,-1.311 1.633,-1.311 0.43,0 0.867,0.137 1.311,0.411l-0.437 1.189c-0.311,-0.186 -0.626,-0.278 -0.94,-0.278 -0.963,0 -1.441,0.815 -1.441,2.44l0 3.956 -1.282 0z"/>
  <path id="_27_53" class="fil16" d="M369.592 317.836l-0.392 -5.522 0 -2.311 1.585 0 0 2.311 -0.37 5.522 -0.823 0zm-0.337 2.589l0 -1.459 1.471 0 0 1.459 -1.471 0z"/>
  <path class="fil21" d="M227.32 229.402c0,-2.031 -0.55,-4.148 -4.394,-5.888 -1.676,-0.754 -2.687,-1.479 -2.687,-2.929 0,-1.421 0.838,-2.291 2.399,-2.291 1.213,0 2.282,0.434 2.976,0.87l0.983 -2.871c-0.954,-0.639 -2.514,-1.161 -4.653,-1.161 -3.872,0 -6.3,2.785 -6.3,6.149 0,1.943 0.867,4.118 3.959,5.51 2.023,0.9 2.774,1.682 2.774,2.959 0,1.42 -1.012,2.378 -2.658,2.378 -1.388,0 -2.573,-0.493 -3.208,-0.929l-1.069 3.277c1.127,0.755 2.745,1.189 5.202,1.189 3.93,0 6.676,-2.667 6.676,-6.263z"/>
  <path id="_1_54" class="fil21" d="M245.353 225.399c0,-5.627 -2.225,-10.267 -7.774,-10.267 -5.548,0 -7.773,4.64 -7.773,10.267 0,5.655 2.225,10.266 7.773,10.266 5.549,0 7.774,-4.611 7.774,-10.266zm-4.769 -0.174c0,3.422 -0.434,6.989 -3.005,6.989 -2.544,0 -3.006,-3.567 -3.006,-6.989 0,-3.394 0.492,-6.99 3.006,-6.99 2.486,0 3.005,3.596 3.005,6.99z"/>
  <path id="_2_55" class="fil21" d="M263.069 235.376l-5.289 -8.875 0 -0.058c2.601,-0.406 4.595,-2.465 4.595,-5.075 0,-3.799 -2.485,-6.236 -7.861,-6.236 -2.457,0 -4.537,0.465 -5.982,1.161l0 19.083 4.624 0 0 -8.817 0.058 0 4.71 8.817 5.145 0zm-5.289 -13.776c0,2.407 -1.185,3.886 -3.612,3.886 -0.405,0 -0.839,-0.058 -1.012,-0.116l0 -7.309c0.347,-0.144 0.78,-0.26 1.358,-0.26 2.486,0 3.266,1.247 3.266,3.799z"/>
  <polygon id="_3_56" class="fil21" points="275.843,218.583 275.843,215.423 264.225,215.423 264.225,218.583 267.693,218.583 267.693,235.376 272.403,235.376 272.403,218.583 "/>
  <polygon id="_4_57" class="fil21" points="288.819,235.376 288.819,232.214 283.357,232.214 283.357,226.733 288.125,226.733 288.125,223.659 283.357,223.659 283.357,218.583 288.819,218.583 288.819,215.423 278.646,215.423 278.646,235.376 "/>
  <path id="_5_58" class="fil21" d="M306.476 225.399c0,-5.627 -2.226,-10.267 -7.774,-10.267 -5.548,0 -7.774,4.64 -7.774,10.267 0,5.655 2.226,10.266 7.774,10.266 5.548,0 7.774,-4.611 7.774,-10.266zm-4.768 -0.174c0,3.422 -0.434,6.989 -3.006,6.989 -2.543,0 -3.005,-3.567 -3.005,-6.989 0,-3.394 0.491,-6.99 3.005,-6.99 2.485,0 3.006,3.596 3.006,6.99z"/>
  <polygon id="_6_59" class="fil21" points="322.112,235.376 322.112,215.423 317.43,215.423 317.43,235.376 "/>
  <polygon id="_7_60" class="fil21" points="330.665,235.376 330.665,215.423 325.983,215.423 325.983,235.376 "/>
  <path id="_8_61" class="fil17 str1" d="M227.32 229.402c0,-2.031 -0.55,-4.148 -4.394,-5.888 -1.676,-0.754 -2.687,-1.479 -2.687,-2.929 0,-1.421 0.838,-2.291 2.399,-2.291 1.213,0 2.282,0.434 2.976,0.87l0.983 -2.871c-0.954,-0.639 -2.514,-1.161 -4.653,-1.161 -3.872,0 -6.3,2.785 -6.3,6.149 0,1.943 0.867,4.118 3.959,5.51 2.023,0.9 2.774,1.682 2.774,2.959 0,1.42 -1.012,2.378 -2.658,2.378 -1.388,0 -2.573,-0.493 -3.208,-0.929l-1.069 3.277c1.127,0.755 2.745,1.189 5.202,1.189 3.93,0 6.676,-2.667 6.676,-6.263z"/>
  <path id="_9_62" class="fil17 str1" d="M245.353 225.399c0,-5.627 -2.225,-10.267 -7.774,-10.267 -5.548,0 -7.773,4.64 -7.773,10.267 0,5.655 2.225,10.266 7.773,10.266 5.549,0 7.774,-4.611 7.774,-10.266zm-4.769 -0.174c0,3.422 -0.434,6.989 -3.005,6.989 -2.544,0 -3.006,-3.567 -3.006,-6.989 0,-3.394 0.492,-6.99 3.006,-6.99 2.486,0 3.005,3.596 3.005,6.99z"/>
  <path id="_10_63" class="fil17 str1" d="M263.069 235.376l-5.289 -8.875 0 -0.058c2.601,-0.406 4.595,-2.465 4.595,-5.075 0,-3.799 -2.485,-6.236 -7.861,-6.236 -2.457,0 -4.537,0.465 -5.982,1.161l0 19.083 4.624 0 0 -8.817 0.058 0 4.71 8.817 5.145 0zm-5.289 -13.776c0,2.407 -1.185,3.886 -3.612,3.886 -0.405,0 -0.839,-0.058 -1.012,-0.116l0 -7.309c0.347,-0.144 0.78,-0.26 1.358,-0.26 2.486,0 3.266,1.247 3.266,3.799z"/>
  <polygon id="_11_64" class="fil17 str1" points="275.843,218.583 275.843,215.423 264.225,215.423 264.225,218.583 267.693,218.583 267.693,235.376 272.403,235.376 272.403,218.583 "/>
  <polygon id="_12_65" class="fil17 str1" points="288.819,235.376 288.819,232.214 283.357,232.214 283.357,226.733 288.125,226.733 288.125,223.659 283.357,223.659 283.357,218.583 288.819,218.583 288.819,215.423 278.646,215.423 278.646,235.376 "/>
  <path id="_13_66" class="fil17 str1" d="M306.476 225.399c0,-5.627 -2.226,-10.267 -7.774,-10.267 -5.548,0 -7.774,4.64 -7.774,10.267 0,5.655 2.226,10.266 7.774,10.266 5.548,0 7.774,-4.611 7.774,-10.266zm-4.768 -0.174c0,3.422 -0.434,6.989 -3.006,6.989 -2.543,0 -3.005,-3.567 -3.005,-6.989 0,-3.394 0.491,-6.99 3.005,-6.99 2.485,0 3.006,3.596 3.006,6.99z"/>
  <polygon id="_14_67" class="fil17 str1" points="322.112,235.376 322.112,215.423 317.43,215.423 317.43,235.376 "/>
  <polygon id="_15_68" class="fil17 str1" points="330.665,235.376 330.665,215.423 325.983,215.423 325.983,235.376 "/>
  <path class="fil16" d="M214.749 282.771l0 -12.378 -2.465 0 0 6.297c0,0.648 0.072,1.241 0.072,1.241l-0.036 0c0,0 -0.251,-0.558 -0.629,-1.187l-3.797 -6.351 -2.573 0 0 12.378 2.448 0 0 -6.891c0,-0.683 -0.073,-1.349 -0.073,-1.349l0.036 0c0,0 0.27,0.648 0.648,1.295l4.12 6.945 2.249 0z"/>
  <path id="_1_69" class="fil16" d="M225.202 277.913c0,-2.896 -1.476,-5.019 -4.3,-5.019 -2.789,0 -4.264,2.123 -4.264,5.019 0,2.896 1.475,5.037 4.282,5.037 2.806,0 4.282,-2.141 4.282,-5.037zm-2.789 -0.036c0,1.745 -0.252,3.166 -1.493,3.166 -1.224,0 -1.493,-1.421 -1.493,-3.166 0,-1.727 0.251,-3.238 1.493,-3.238 1.241,0 1.493,1.511 1.493,3.238z"/>
  <path id="_2_70" class="fil16" d="M240.674 282.771l0 -6.801c0,-1.709 -1.187,-3.076 -3.491,-3.076 -1.6,0 -2.59,0.449 -3.202,0.971 -0.557,-0.54 -1.475,-0.971 -3.076,-0.971 -1.692,0 -2.843,0.234 -3.922,0.719l0 9.158 2.807 0 0 -7.934c0.341,-0.126 0.629,-0.18 1.133,-0.18 0.971,0 1.511,0.504 1.511,1.277l0 6.837 2.807 0 0 -7.647c0.324,-0.323 0.738,-0.467 1.224,-0.467 0.97,0 1.403,0.575 1.403,1.313l0 6.801 2.806 0z"/>
  <path id="_3_71" class="fil16" d="M251.271 277.643c0,-2.86 -1.584,-4.696 -3.869,-4.696 -0.845,0 -1.348,0.144 -1.798,0.36l0 -4.659 -2.807 0 0 13.583c0.648,0.414 1.835,0.719 3.509,0.719 3.184,0 4.965,-1.907 4.965,-5.307zm-2.771 0.181c0,2.176 -0.612,3.436 -2.033,3.436 -0.342,0 -0.647,-0.054 -0.863,-0.144l0 -6.351c0.269,-0.145 0.557,-0.216 1.007,-0.216 1.494,0 1.889,1.385 1.889,3.275z"/>
  <path id="_4_72" class="fil16" d="M258.251 272.93c-2.608,-0.126 -4.12,0.161 -5.199,0.683l0 9.158 2.807 0 0 -7.917c0.468,-0.215 1.187,-0.234 1.871,0.055l0.521 -1.979z"/>
  <path id="_5_73" class="fil16" d="M267.302 278.075c0.126,-3.274 -1.296,-5.181 -4.103,-5.181 -2.788,0 -4.371,1.96 -4.371,5.001 0,3.095 1.709,5.055 4.678,5.055 1.637,0 2.716,-0.323 3.472,-0.701l-0.63 -1.745c-0.522,0.27 -1.386,0.522 -2.519,0.522 -1.421,0 -2.141,-0.702 -2.338,-2.124l5.811 -0.827zm-2.609 -1.044l-3.383 0.504c-0.09,-1.996 0.63,-2.986 1.781,-2.986 1.026,0 1.602,0.756 1.602,2.482z"/>
  <path id="_6_74" class="fil16" d="M282.739 282.231l0 -6.729 -4.211 0 0 1.745 1.476 0 0 3.509c-0.162,0.09 -0.45,0.179 -0.917,0.179 -1.512,0 -2.501,-1.439 -2.501,-4.335 0,-3.005 1.115,-4.318 3.094,-4.318 1.062,0 1.691,0.216 2.087,0.449l0.846 -1.799c-0.792,-0.449 -1.818,-0.719 -3.275,-0.719 -3.562,0 -5.703,2.555 -5.703,6.315 0,3.958 1.853,6.422 5.613,6.422 1.691,0 2.681,-0.251 3.491,-0.719z"/>
  <path id="_7_75" class="fil16" d="M292.472 282.231l0 -5.793c0,-2.627 -1.619,-3.544 -3.815,-3.544 -1.708,0 -2.968,0.449 -3.651,0.737l0.611 1.601c0.63,-0.287 1.584,-0.593 2.519,-0.593 1.025,0 1.709,0.288 1.709,1.295l0 0.45c-2.914,0.27 -5.415,1.007 -5.415,3.508 0,2.015 1.439,3.058 4.246,3.058 1.673,0 2.986,-0.287 3.796,-0.719zm-2.627 -1.025c-0.251,0.125 -0.611,0.197 -1.025,0.197 -1.116,0 -1.763,-0.485 -1.763,-1.619 0,-1.547 1.097,-1.943 2.788,-2.104l0 3.526z"/>
  <path id="_8_76" class="fil16" d="M302.835 282.771l0 -6.801c0,-1.763 -1.098,-3.076 -4.174,-3.076 -1.728,0 -3.095,0.287 -4.067,0.719l0 9.158 2.808 0 0 -7.934c0.323,-0.109 0.629,-0.198 1.187,-0.198 1.133,0 1.439,0.666 1.439,1.349l0 6.783 2.807 0z"/>
  <path id="_9_77" class="fil16" d="M312.55 282.231l0 -5.793c0,-2.627 -1.619,-3.544 -3.815,-3.544 -1.708,0 -2.968,0.449 -3.652,0.737l0.612 1.601c0.63,-0.287 1.584,-0.593 2.519,-0.593 1.025,0 1.709,0.288 1.709,1.295l0 0.45c-2.914,0.27 -5.415,1.007 -5.415,3.508 0,2.015 1.439,3.058 4.246,3.058 1.673,0 2.986,-0.287 3.796,-0.719zm-2.627 -1.025c-0.251,0.125 -0.611,0.197 -1.025,0.197 -1.116,0 -1.763,-0.485 -1.763,-1.619 0,-1.547 1.097,-1.943 2.788,-2.104l0 3.526z"/>
  <path id="_10_78" class="fil16" d="M322.805 282.231l0 -13.583 -2.789 0 0 4.48c-0.36,-0.09 -0.846,-0.163 -1.422,-0.163 -2.5,0 -4.263,1.907 -4.263,5.02 0,3.239 1.835,4.965 4.767,4.965 1.674,0 2.825,-0.251 3.707,-0.719zm-2.789 -1.205c-0.198,0.108 -0.486,0.143 -0.864,0.143 -1.421,0 -2.05,-1.204 -2.05,-3.31 0,-1.997 0.593,-3.328 2.141,-3.328 0.287,0 0.539,0.036 0.773,0.108l0 6.387z"/>
  <path id="_11_79" class="fil16" d="M333.15 277.913c0,-2.896 -1.476,-5.019 -4.3,-5.019 -2.789,0 -4.264,2.123 -4.264,5.019 0,2.896 1.475,5.037 4.282,5.037 2.806,0 4.282,-2.141 4.282,-5.037zm-2.789 -0.036c0,1.745 -0.252,3.166 -1.493,3.166 -1.224,0 -1.493,-1.421 -1.493,-3.166 0,-1.727 0.251,-3.238 1.493,-3.238 1.241,0 1.493,1.511 1.493,3.238z"/>
  <path id="_12_80" class="fil16" d="M340.13 272.93c-2.609,-0.126 -4.12,0.161 -5.199,0.683l0 9.158 2.807 0 0 -7.917c0.468,-0.215 1.187,-0.234 1.871,0.055l0.521 -1.979z"/>
  <g id="_1317389454528">
   <circle class="fil19" cx="57.326" cy="166.677" r="1.521"/>
   <circle class="fil19" cx="62.675" cy="168.194" r="1.521"/>
   <circle class="fil19" cx="68.405" cy="169.769" r="1.521"/>
   <circle class="fil19" cx="74.14" cy="171.243" r="1.521"/>
   <circle class="fil19" cx="79.866" cy="172.818" r="1.521"/>
   <circle class="fil19" cx="91.326" cy="175.866" r="1.521"/>
   <circle class="fil19" cx="97.062" cy="177.34" r="1.521"/>
   <circle class="fil19" cx="102.787" cy="178.536" r="1.521"/>
   <circle class="fil19" cx="114.247" cy="181.963" r="1.521"/>
   <circle class="fil19" cx="119.879" cy="183.055" r="1.521"/>
   <circle class="fil19" cx="57.326" cy="170.52" r="1.521"/>
   <circle class="fil19" cx="62.675" cy="172.036" r="1.521"/>
   <circle class="fil19" cx="68.405" cy="173.612" r="1.521"/>
   <circle class="fil19" cx="74.14" cy="175.085" r="1.521"/>
   <circle class="fil19" cx="79.866" cy="176.66" r="1.521"/>
   <circle class="fil19" cx="91.326" cy="179.709" r="1.521"/>
   <circle class="fil19" cx="97.062" cy="181.182" r="1.521"/>
   <circle class="fil19" cx="102.787" cy="182.378" r="1.521"/>
   <circle class="fil19" cx="114.247" cy="185.806" r="1.521"/>
   <circle class="fil19" cx="119.879" cy="186.898" r="1.521"/>
   <circle class="fil19" cx="57.326" cy="174.52" r="1.521"/>
   <circle class="fil19" cx="62.675" cy="176.036" r="1.521"/>
   <circle class="fil19" cx="68.405" cy="177.612" r="1.521"/>
   <circle class="fil19" cx="74.14" cy="179.085" r="1.521"/>
   <circle class="fil19" cx="79.866" cy="180.66" r="1.521"/>
   <circle class="fil19" cx="91.326" cy="183.709" r="1.521"/>
   <circle class="fil19" cx="97.062" cy="185.182" r="1.521"/>
   <circle class="fil19" cx="102.787" cy="186.378" r="1.521"/>
   <circle class="fil19" cx="114.247" cy="189.806" r="1.521"/>
   <circle class="fil19" cx="119.879" cy="190.898" r="1.521"/>
   <circle class="fil19" cx="57.326" cy="178.52" r="1.521"/>
   <circle class="fil19" cx="62.675" cy="180.036" r="1.521"/>
   <circle class="fil19" cx="68.405" cy="181.612" r="1.521"/>
   <circle class="fil19" cx="74.14" cy="183.085" r="1.521"/>
   <circle class="fil19" cx="79.866" cy="184.66" r="1.521"/>
   <circle class="fil19" cx="91.326" cy="187.709" r="1.521"/>
   <circle class="fil19" cx="97.062" cy="189.182" r="1.521"/>
   <circle class="fil19" cx="102.787" cy="190.378" r="1.521"/>
   <circle class="fil19" cx="114.247" cy="193.806" r="1.521"/>
   <circle class="fil19" cx="119.879" cy="194.898" r="1.521"/>
  </g>
  <g id="_1317389454480">
   <circle class="fil19" cx="490.995" cy="166.677" r="1.521"/>
   <circle class="fil19" cx="485.646" cy="168.194" r="1.521"/>
   <circle class="fil19" cx="479.917" cy="169.769" r="1.521"/>
   <circle class="fil19" cx="474.181" cy="171.243" r="1.521"/>
   <circle class="fil19" cx="468.456" cy="172.818" r="1.521"/>
   <circle class="fil19" cx="456.995" cy="175.866" r="1.521"/>
   <circle class="fil19" cx="451.26" cy="177.34" r="1.521"/>
   <circle class="fil19" cx="445.534" cy="178.536" r="1.521"/>
   <circle class="fil19" cx="434.074" cy="181.963" r="1.521"/>
   <circle class="fil19" cx="428.442" cy="183.055" r="1.521"/>
   <circle class="fil19" cx="490.995" cy="170.52" r="1.521"/>
   <circle class="fil19" cx="485.646" cy="172.036" r="1.521"/>
   <circle class="fil19" cx="479.917" cy="173.612" r="1.521"/>
   <circle class="fil19" cx="474.181" cy="175.085" r="1.521"/>
   <circle class="fil19" cx="468.456" cy="176.66" r="1.521"/>
   <circle class="fil19" cx="456.995" cy="179.709" r="1.521"/>
   <circle class="fil19" cx="451.26" cy="181.182" r="1.521"/>
   <circle class="fil19" cx="445.534" cy="182.378" r="1.521"/>
   <circle class="fil19" cx="434.074" cy="185.806" r="1.521"/>
   <circle class="fil19" cx="428.442" cy="186.898" r="1.521"/>
   <circle class="fil19" cx="490.995" cy="174.52" r="1.521"/>
   <circle class="fil19" cx="485.646" cy="176.036" r="1.521"/>
   <circle class="fil19" cx="479.917" cy="177.612" r="1.521"/>
   <circle class="fil19" cx="474.181" cy="179.085" r="1.521"/>
   <circle class="fil19" cx="468.456" cy="180.66" r="1.521"/>
   <circle class="fil19" cx="456.995" cy="183.709" r="1.521"/>
   <circle class="fil19" cx="451.26" cy="185.182" r="1.521"/>
   <circle class="fil19" cx="445.534" cy="186.378" r="1.521"/>
   <circle class="fil19" cx="434.074" cy="189.806" r="1.521"/>
   <circle class="fil19" cx="428.442" cy="190.898" r="1.521"/>
   <circle class="fil19" cx="490.995" cy="178.52" r="1.521"/>
   <circle class="fil19" cx="485.646" cy="180.036" r="1.521"/>
   <circle class="fil19" cx="479.917" cy="181.612" r="1.521"/>
   <circle class="fil19" cx="474.181" cy="183.085" r="1.521"/>
   <circle class="fil19" cx="468.456" cy="184.66" r="1.521"/>
   <circle class="fil19" cx="456.995" cy="187.709" r="1.521"/>
   <circle class="fil19" cx="451.26" cy="189.182" r="1.521"/>
   <circle class="fil19" cx="445.534" cy="190.378" r="1.521"/>
   <circle class="fil19" cx="434.074" cy="193.806" r="1.521"/>
   <circle class="fil19" cx="428.442" cy="194.898" r="1.521"/>
  </g>
 </g>
</svg>
