<?xml version="1.0" encoding="UTF-8"?>
<!DOCTYPE svg PUBLIC "-//W3C//DTD SVG 1.1//EN" "http://www.w3.org/Graphics/SVG/1.1/DTD/svg11.dtd">
<!-- Creator: CorelDRAW 2021 (64-Bit) -->
<svg xmlns="http://www.w3.org/2000/svg" xml:space="preserve" width="100%" height="100%" version="1.1" style="shape-rendering:geometricPrecision; text-rendering:geometricPrecision; image-rendering:optimizeQuality; fill-rule:evenodd; clip-rule:evenodd"
viewBox="0 0 6773.32 2184.4"
 xmlns:xlink="http://www.w3.org/1999/xlink"
 xmlns:xodm="http://www.corel.com/coreldraw/odm/2003">
 <defs>
  <style type="text/css">
   <![CDATA[
    .str0 {stroke:black;stroke-width:20;stroke-miterlimit:22.9256}
    .fil2 {fill:#FEFEFE}
    .fil1 {fill:black}
    .fil3 {fill:#FEFEFE;fill-rule:nonzero}
    .fil0 {fill:black;fill-rule:nonzero}
    .fil5 {fill:black;fill-rule:nonzero}
    .fil4 {fill:white;fill-rule:nonzero}
   ]]>
  </style>
 </defs>
 <g id="Capa_x0020_2">
  <metadata id="CorelCorpID_0Corel-Layer"/>
 </g>
 <g id="Capa_x0020_1">
  <metadata id="CorelCorpID_1Corel-Layer"/>
  <path class="fil0" d="M3560.17 1479.22l21.17 -19.05c123.83,-24.34 444.5,-67.73 444.5,-239.18 0,-57.15 -43.39,-129.12 -225.43,-129.12 -110.06,0 -307.97,41.28 -410.63,80.44 -35.98,13.76 -66.67,53.97 -88.9,83.61 -32.81,43.39 -48.68,81.49 -48.68,88.89 0,18 8.47,28.58 26.46,28.58 11.64,0 23.28,-4.23 32.81,-7.41 61.38,-20.11 81.49,-29.63 147.1,-40.22 13.76,-2.11 38.1,-8.46 38.1,-24.34 0,-8.46 -8.46,-12.7 -14.81,-15.87 160.86,-58.21 273.05,-71.97 297.39,-74.08 122.76,-8.47 152.4,28.57 153.46,51.85 2.11,28.58 -53.98,100.54 -293.16,133.35 87.84,-102.65 95.25,-116.41 102.66,-134.4 -105.84,0 -175.69,88.89 -244.48,155.57 -31.75,9.52 -179.91,11.64 -179.91,57.15 0,35.98 67.73,39.16 97.36,41.27 -122.76,161.93 -117.47,167.22 -117.47,201.09 0,96.31 105.83,121.7 182.03,117.47 284.69,-15.87 414.87,-158.75 414.87,-219.07 0,-101.6 -259.29,-122.77 -334.44,-136.53zm-46.56 52.92c43.39,0 261.4,15.87 261.4,70.91 0,42.33 -146.04,111.12 -240.24,112.18 -33.86,0 -117.47,-12.7 -117.47,-58.21 0,-22.22 23.28,-45.51 37.04,-60.32l59.27 -64.56z"/>
  <path id="_1" class="fil0" d="M4235.38 1645.38c-42.33,30.69 -97.36,86.78 -153.45,86.78 -48.69,0 -64.56,-23.28 -56.1,-66.67 44.45,-30.69 149.23,-124.88 149.23,-177.8 0,-23.28 -28.58,-29.63 -46.57,-29.63 -63.5,0 -195.79,125.94 -195.79,255.05 0,53.98 28.58,125.94 91.02,125.94 80.43,0 173.56,-95.24 221.19,-153.45l-9.53 -40.22zm-49.74 -351.36c-31.75,9.52 -101.6,28.57 -128.06,45.5 -12.7,8.47 -29.63,27.52 -29.63,43.39 0,8.47 7.41,9.53 14.82,9.53 10.58,0 24.34,-4.23 34.92,-8.47 27.52,-10.58 70.91,-17.99 100.54,-22.22 39.16,-5.29 51.86,-6.35 89.96,-4.24 43.39,3.18 40.22,0 37.04,-43.39 -2.11,-22.22 2.12,-45.5 -24.34,-45.5 -11.64,0 -22.22,3.17 -32.81,6.35l-62.44 19.05z"/>
  <path id="_2" class="fil0" d="M4489.39 1460.7c67.73,-65.79 224.36,-224.72 224.36,-321.02 0,-20.11 -9.52,-39.34 -30.69,-39.34 -44.45,0 -210.61,129.29 -296.33,232.13 -83.61,99.66 -146.05,213.07 -146.05,346.6 0,50.8 9.52,153.63 78.32,153.63 69.85,0 143.93,-64.73 189.44,-112.35 67.73,-1.06 121.71,-18 169.33,-67.91l-10.58 -34.93c-33.87,24.34 -68.79,47.63 -112.19,39.16 18,-39.16 50.8,-87.84 50.8,-132.47 0,-20.11 -6.35,-46.56 -31.75,-46.56 -62.44,0.17 -147.1,104.06 -147.1,165.45 0,17.11 6.35,27.69 14.81,41.45 -17.99,21.17 -37.04,49.74 -70.91,55.03 -40.21,5.29 -65.61,-49.74 -46.56,-116.59l165.1 -162.28zm135.46 -269.17l2.12 2.12c-17.99,38.1 -41.27,98.6 -262.47,318.91l-2.11 -2.12c62.44,-122.94 157.69,-229.83 262.46,-318.91z"/>
  <path id="_3" class="fil0" d="M4779.37 1522.61c49.74,-109 110.06,-204.25 161.92,-229.65 -19.05,60.32 -84.66,161.92 -159.81,231.77l-2.11 -2.12zm206.37 112.19c-42.33,38.1 -123.82,105.83 -182.03,105.83 -28.58,0 -43.39,-21.17 -52.92,-45.51 -5.29,-25.4 -2.11,-55.03 7.41,-73.02 229.66,-222.25 257.18,-315.39 264.58,-415.93 1.06,-13.75 -3.17,-39.15 -21.16,-39.15 -33.87,0 -134.41,98.42 -227.54,213.78 -68.8,84.66 -116.42,204.26 -116.42,315.38 0,62.44 16.93,137.58 94.19,137.58 91.02,0 190.5,-106.89 248.71,-167.21l-14.82 -31.75z"/>
  <path id="_4" class="fil0" d="M5270.43 1645.38c-42.33,30.69 -97.36,86.78 -153.45,86.78 -48.69,0 -64.56,-23.28 -56.1,-66.67 44.45,-30.69 149.23,-124.88 149.23,-177.8 0,-23.28 -28.58,-29.63 -46.57,-29.63 -63.5,0 -195.79,125.94 -195.79,255.05 0,53.98 28.58,125.94 91.02,125.94 80.43,0 173.56,-95.24 221.19,-153.45l-9.53 -40.22zm-49.74 -208.49c45.51,0 84.67,-51.86 84.67,-94.19 0,-19.05 -15.88,-32.81 -34.93,-32.81 -41.27,0 -92.07,38.1 -92.07,81.49 0,25.4 16.93,45.51 42.33,45.51z"/>
  <path id="_5" class="fil0" d="M5481.05 1557.54c1.05,20.11 11.64,46.57 35.98,46.57 28.57,0 112.18,-81.5 112.18,-139.7 0,-31.75 -14.81,-48.69 -47.62,-48.69 -59.27,0 -160.87,57.15 -208.49,93.14 -68.8,51.85 -100.54,84.66 -100.54,173.56 0,78.32 39.15,154.52 120.64,154.52 100.55,0 219.08,-104.78 283.64,-173.57l-12.7 -41.27c-61.39,47.62 -153.46,121.71 -233.89,121.71 -55.04,0 -80.44,-32.81 -80.44,-57.15 0,-29.64 19.05,-45.51 42.34,-62.45l88.9 -66.67z"/>
  <path id="_6" class="fil0" d="M6076.89 1619.98c-32.81,24.34 -62.45,64.56 -109.01,56.09 20.11,-41.27 41.27,-78.31 41.27,-124.88 0,-31.75 -6.35,-53.98 -38.1,-62.44 11.64,-6.35 24.34,-12.7 24.34,-28.58 0,-28.57 -34.92,-39.16 -58.2,-38.1 -64.56,3.18 -140.76,31.75 -197.91,78.32 -59.27,45.51 -98.43,98.42 -96.31,177.8 4.23,96.31 55.03,151.34 110.07,151.34 66.67,0 118.53,-33.87 162.98,-79.37 77.26,0 123.82,-25.4 171.45,-85.73l-10.58 -44.45zm-194.74 -82.55c4.24,2.12 -45.51,68.79 -45.51,123.83 0,17.99 5.3,31.75 12.7,48.68 -24.34,22.22 -46.56,42.33 -81.49,42.33 -26.46,0 -46.56,-9.52 -46.56,-40.21 0,-32.81 20.1,-74.09 43.39,-97.37 31.75,-30.69 81.49,-56.09 117.47,-77.26z"/>
  <circle class="fil1 str0" cx="1210.27" cy="1084.19" r="981.68"/>
  <path class="fil2 str0" d="M1948.88 368.23c20.75,-18.58 11.17,-11.19 21.49,-19.15 -6.35,7.82 -15.77,14.65 -20.08,20.92 -201.53,232.14 -405.29,463.88 -607.51,696.06 -43.99,50.84 -89.15,100.75 -132.29,152.31l-1.79 -0.77c-0.44,6.33 -3.36,8.96 -8.71,7.91 0.16,-1.66 0.4,-4.95 0.53,-6.57 0.48,-57.97 0.36,-115.99 -0.01,-173.96 -47.67,55.54 -93.57,112.66 -140.96,168.49l-3.36 3.4c-4.55,7.06 -10.18,13.3 -16.22,19.1 -8.51,13.46 -19.74,25.5 -31.14,36.73 -3.89,6.24 -8.27,12.2 -12.81,18 -3.32,3.85 -6.77,7.58 -10.26,11.27 -19.25,24.08 -39.52,47.35 -58.9,71.35 -16.1,-18.6 -31.42,-37.9 -47.07,-56.92l-1.18 -0.16c-9.36,-13.01 -20.39,-24.69 -30.36,-37.26 -51.51,-68.38 -19.32,-25.4 -51.98,-62.55 -47.11,-57.49 -94.34,-115.06 -142.46,-171.7 1.05,97.26 -0.24,194.52 0.16,291.78 -51.53,46.26 -103.3,92.28 -154.54,138.82 -4.34,3.57 -8.24,8.07 -13.63,10.01 1.91,-92.8 0.37,-185.68 0.89,-278.52 -0.16,-198.17 0.33,-396.38 -0.24,-594.54 6.16,-0.41 12.77,0.32 16.14,6.24 141.41,166.18 282.7,332.44 424.23,498.5 142.66,-167.56 285.65,-334.83 428.28,-502.43 3.08,-3.9 8.76,-1.5 12.97,-2.36 -0.28,114.21 -0.44,228.46 0.08,342.7 171.98,-174.53 345.91,-347.11 518.13,-521.36 20.61,-24.6 42.32,-42.12 62.6,-65.34z"/>
  <path class="fil2 str0" d="M1626.17 839.99c52.91,4.3 108.45,16.22 148.91,52.95 48.69,44.31 66.53,112.54 66.49,176.44 2.96,45 -14.43,89.19 -40.62,125.11 -23.52,30.2 -56.76,57.16 -96.49,59.35 89.35,12.57 160.63,92.68 171.61,180.7 4.62,62.03 -5.02,127.5 -40.3,180 -30.77,46.67 -81.61,77.56 -135.81,89.07 -38.31,8.96 -77.88,11.4 -117.17,10.87 -127.3,0.04 -254.64,-0.04 -381.98,0.04 -0.37,-104.56 0.12,-209.11 -0.25,-313.67 -163.91,153.29 -326.48,308.11 -489.9,461.97 -25.26,22.91 -48.29,48.41 -75.21,69.45 55.42,-57.57 108.33,-117.53 162.98,-175.87 117,-127.46 234.21,-254.77 351.29,-382.19 16.67,-19.62 35.68,-37.13 51.86,-57.2 2.76,-2.68 5.55,-5.35 8.35,-8.03 4.62,-5.31 9.49,-10.34 14.19,-15.57 2.31,-2.96 5.07,-5.55 8.23,-7.74 18.45,-23.39 40.66,-43.87 59.84,-66.81 3.93,-4.1 7.95,-8.15 11.88,-12.29 9.67,-12.24 35.28,-39.13 45.2,-49.74 6.37,-6.57 12.73,-13.14 18.93,-19.87 0.98,13.18 0.41,26.39 0.61,39.61 -0.2,6.08 -0.04,12.16 1.22,18.16 6.56,-0.49 155.23,0.12 211.99,-0.89 28.75,-1.5 55.99,-17.51 71.8,-41.43 16.66,-25.42 24.33,-57.49 18.29,-87.45 -7.71,-39.53 -41.07,-74.96 -82.26,-78.17 -30.25,-0.2 -60.45,-0.4 -90.69,0.21 41.55,-49.67 85.5,-97.3 127.01,-147.01z"/>
  <rect class="fil1 str0" x="1367.14" y="1364.63" width="249.08" height="231.98"/>
  <ellipse class="fil1 str0" cx="1617.58" cy="1480.56" rx="91.09" ry="115.93"/>
  <polygon class="fil3" points="834.36,367.94 845.04,367.94 845.04,471.55 833.9,471.55 833.9,393.96 834.47,398.51 814.42,457.15 806.48,457.15 786.42,399.95 786.98,393.96 786.98,471.55 775.84,471.55 775.84,367.94 786.54,367.94 810.44,436.36 "/>
  <path id="_1_0" class="fil3" d="M892.65 472.62c-6.02,0 -11.16,-1.51 -15.42,-4.52 -4.28,-3.02 -7.54,-7.42 -9.77,-13.19 -2.25,-5.76 -3.36,-12.72 -3.36,-20.84l0 -66.13 11.41 0 0 66.62c0,7.56 1.51,13.4 4.49,17.53 2.98,4.14 7.2,6.2 12.65,6.2 5.48,0 9.73,-2.06 12.73,-6.2 3.01,-4.13 4.51,-9.97 4.51,-17.53l0 -66.62 11.43 0 0 66.13c0,8.12 -1.13,15.08 -3.36,20.84 -2.24,5.77 -5.51,10.17 -9.81,13.19 -4.28,3.01 -9.46,4.52 -15.5,4.52z"/>
  <polygon id="_2_1" class="fil3" points="939.23,367.94 949.59,367.94 989.4,448.03 988.06,449.88 988.06,367.94 999.38,367.94 999.38,471.48 988.9,471.48 949.2,392.6 950.55,390.75 950.55,471.48 939.23,471.48 "/>
  <path id="_3_2" class="fil3" d="M1027.26 457.74l18.42 0c6.01,0 10.68,-2 13.96,-5.96 3.31,-3.97 4.97,-9.56 4.97,-16.79l0 -30.49c0,-7.23 -1.66,-12.82 -4.97,-16.79 -3.28,-3.96 -7.95,-5.93 -13.96,-5.93l-18.42 0 0 -13.84 18.09 0c6.53,0 12.11,1.46 16.73,4.35 4.63,2.9 8.17,7.13 10.6,12.67 2.42,5.57 3.63,12.26 3.63,20.12l0 29.36c0,7.83 -1.21,14.52 -3.63,20.08 -2.43,5.55 -5.97,9.78 -10.64,12.68 -4.64,2.89 -10.22,4.35 -16.76,4.35l-18.02 0 0 -13.81zm-7.74 -89.8l11.43 0 0 103.61 -11.43 0 0 -103.61z"/>
  <path id="_4_3" class="fil3" d="M1119.48 472.62c-5.67,0 -10.68,-1.58 -15.03,-4.74 -4.31,-3.16 -7.66,-7.62 -10.05,-13.4 -2.36,-5.77 -3.55,-12.46 -3.55,-20.04l0 -29.36c0,-7.61 1.19,-14.3 3.55,-20.07 2.39,-5.76 5.74,-10.24 10.05,-13.4 4.35,-3.16 9.36,-4.74 15.03,-4.74 5.66,0 10.66,1.58 15,4.74 4.32,3.16 7.69,7.64 10.06,13.4 2.36,5.77 3.55,12.46 3.55,20.07l0 29.36c0,7.58 -1.19,14.27 -3.55,20.04 -2.37,5.78 -5.74,10.24 -10.06,13.4 -4.34,3.16 -9.34,4.74 -15,4.74zm0 -14.33c3.35,0 6.31,-0.94 8.87,-2.89 2.56,-1.92 4.53,-4.65 5.93,-8.17 1.41,-3.55 2.09,-7.64 2.09,-12.31l0 -30.35c0,-4.65 -0.68,-8.76 -2.09,-12.28 -1.4,-3.56 -3.37,-6.28 -5.93,-8.2 -2.56,-1.92 -5.52,-2.89 -8.87,-2.89 -3.36,0 -6.33,0.97 -8.89,2.89 -2.56,1.92 -4.52,4.64 -5.92,8.2 -1.42,3.52 -2.1,7.63 -2.1,12.28l0 30.35c0,4.67 0.68,8.76 2.1,12.31 1.4,3.52 3.36,6.25 5.92,8.17 2.56,1.95 5.53,2.89 8.89,2.89z"/>
  <path id="_5_4" class="fil3" d="M1204.07 458.08l22.06 0c5.79,0 10.01,-1.39 12.65,-4.21 2.66,-2.8 3.98,-6.74 3.98,-11.82l0 -0.22c0,-3.5 -0.48,-6.52 -1.42,-9.05 -0.96,-2.5 -2.46,-4.45 -4.51,-5.81 -2.06,-1.34 -4.68,-2.02 -7.9,-2.02l-24.86 0 0 -13.11 24.86 0c4.21,0 7.4,-1.26 9.54,-3.77 2.17,-2.53 3.23,-6.25 3.23,-11.19l0 0c0,-5.18 -1.2,-9.05 -3.59,-11.62 -2.39,-2.56 -5.96,-3.85 -10.74,-3.85l-23.3 0 0 -13.47 25.36 0c5.26,0 9.67,1.14 13.21,3.43 3.55,2.29 6.21,5.5 7.95,9.68 1.76,4.18 2.63,9.17 2.63,14.98l0 0c0,3.55 -0.53,6.88 -1.61,10 -1.08,3.11 -2.74,5.76 -4.96,7.97 -2.21,2.22 -4.97,3.7 -8.25,4.46 3.28,0.63 6.11,2.11 8.5,4.45 2.39,2.36 4.23,5.3 5.48,8.8 1.28,3.53 1.92,7.32 1.92,11.41l0 0.22c0,5.59 -0.97,10.53 -2.93,14.81 -1.93,4.28 -4.72,7.59 -8.33,9.9 -3.61,2.33 -7.83,3.5 -12.65,3.5l-26.32 0 0 -13.47zm-6.72 -90.14l11.37 0 0 103.61 -11.37 0 0 -103.61z"/>
  <path id="_6_5" class="fil3" d="M1282.79 471.55l-11.42 0 0 -103.61 11.42 0 0 103.61zm-10.97 -119.13l15.45 -17.46 7.4 9.75 -16.52 16.1 -6.33 -8.39z"/>
  <path id="_7" class="fil3" d="M1309.67 458.08l22.06 0c5.79,0 10.01,-1.39 12.65,-4.21 2.65,-2.8 3.97,-6.74 3.97,-11.82l0 -0.22c0,-3.5 -0.47,-6.52 -1.41,-9.05 -0.96,-2.5 -2.47,-4.45 -4.51,-5.81 -2.07,-1.34 -4.68,-2.02 -7.9,-2.02l-24.86 0 0 -13.11 24.86 0c4.21,0 7.4,-1.26 9.54,-3.77 2.16,-2.53 3.23,-6.25 3.23,-11.19l0 0c0,-5.18 -1.2,-9.05 -3.59,-11.62 -2.39,-2.56 -5.96,-3.85 -10.74,-3.85l-23.3 0 0 -13.47 25.36 0c5.25,0 9.67,1.14 13.21,3.43 3.55,2.29 6.2,5.5 7.95,9.68 1.76,4.18 2.63,9.17 2.63,14.98l0 0c0,3.55 -0.53,6.88 -1.62,10 -1.07,3.11 -2.73,5.76 -4.95,7.97 -2.21,2.22 -4.97,3.7 -8.26,4.46 3.29,0.63 6.12,2.11 8.51,4.45 2.38,2.36 4.22,5.3 5.48,8.8 1.28,3.53 1.92,7.32 1.92,11.41l0 0.22c0,5.59 -0.98,10.53 -2.93,14.81 -1.93,4.28 -4.72,7.59 -8.33,9.9 -3.62,2.33 -7.84,3.5 -12.65,3.5l-26.32 0 0 -13.47zm-6.73 -90.14l11.37 0 0 103.61 -11.37 0 0 -103.61z"/>
  <path id="_8" class="fil3" d="M1376.97 367.94l11.42 0 0 103.61 -11.42 0 0 -103.61zm5.71 89.8l46.6 0 0 13.81 -46.6 0 0 -13.81z"/>
  <polygon id="_9" class="fil3" points="1454.12,471.55 1442.69,471.55 1442.69,367.94 1454.12,367.94 "/>
  <path id="_10" class="fil3" d="M1500.93 472.62c-5.64,0 -10.6,-1.58 -14.88,-4.77 -4.27,-3.18 -7.58,-7.71 -9.93,-13.54 -2.35,-5.84 -3.54,-12.63 -3.54,-20.31l0 -28.43c0,-7.69 1.19,-14.48 3.54,-20.31 2.35,-5.84 5.66,-10.36 9.93,-13.57 4.28,-3.22 9.24,-4.82 14.88,-4.82 4.66,0 8.96,1.29 12.88,3.82 3.91,2.55 7.18,6.13 9.82,10.8 2.64,4.64 4.42,10.04 5.35,16.17l0 0 -11.72 0 0 0c-0.7,-3.23 -1.89,-6.13 -3.55,-8.66 -1.66,-2.55 -3.61,-4.5 -5.84,-5.88 -2.24,-1.37 -4.55,-2.07 -6.94,-2.07 -3.33,0 -6.23,1.02 -8.74,3.06 -2.5,2.05 -4.46,4.92 -5.83,8.59 -1.38,3.7 -2.06,7.98 -2.06,12.87l0 28.43c0,4.84 0.68,9.12 2.06,12.81 1.37,3.73 3.33,6.57 5.83,8.59 2.51,2.02 5.41,3.04 8.74,3.04 2.43,0 4.74,-0.63 6.97,-1.92 2.21,-1.29 4.15,-3.19 5.81,-5.72 1.66,-2.5 2.85,-5.49 3.55,-8.97l0 0 11.72 0 0 0c-0.93,6.13 -2.73,11.53 -5.39,16.17 -2.63,4.67 -5.92,8.27 -9.84,10.8 -3.92,2.56 -8.2,3.82 -12.82,3.82z"/>
  <path id="_11" class="fil3" d="M1569.92 472.62c-5.67,0 -10.68,-1.58 -15.02,-4.74 -4.32,-3.16 -7.66,-7.62 -10.05,-13.4 -2.37,-5.77 -3.56,-12.46 -3.56,-20.04l0 -29.36c0,-7.61 1.19,-14.3 3.56,-20.07 2.39,-5.76 5.73,-10.24 10.05,-13.4 4.34,-3.16 9.35,-4.74 15.02,-4.74 5.66,0 10.67,1.58 15,4.74 4.32,3.16 7.69,7.64 10.06,13.4 2.37,5.77 3.55,12.46 3.55,20.07l0 29.36c0,7.58 -1.18,14.27 -3.55,20.04 -2.37,5.78 -5.74,10.24 -10.06,13.4 -4.33,3.16 -9.34,4.74 -15,4.74zm0 -14.33c3.35,0 6.31,-0.94 8.87,-2.89 2.57,-1.92 4.53,-4.65 5.93,-8.17 1.41,-3.55 2.1,-7.64 2.1,-12.31l0 -30.35c0,-4.65 -0.69,-8.76 -2.1,-12.28 -1.4,-3.56 -3.36,-6.28 -5.93,-8.2 -2.56,-1.92 -5.52,-2.89 -8.87,-2.89 -3.36,0 -6.32,0.97 -8.89,2.89 -2.56,1.92 -4.52,4.64 -5.92,8.2 -1.42,3.52 -2.1,7.63 -2.1,12.28l0 30.35c0,4.67 0.68,8.76 2.1,12.31 1.4,3.52 3.36,6.25 5.92,8.17 2.57,1.95 5.53,2.89 8.89,2.89z"/>
  <path class="fil4" d="M3555.5 1542.14l21.17 -19.05c123.83,-24.34 444.5,-67.73 444.5,-239.18 0,-57.15 -43.39,-129.12 -225.43,-129.12 -110.06,0 -307.97,41.28 -410.63,80.44 -35.98,13.76 -66.67,53.97 -88.9,83.61 -32.81,43.39 -48.68,81.49 -48.68,88.89 0,18 8.47,28.58 26.46,28.58 11.64,0 23.28,-4.23 32.81,-7.41 61.38,-20.11 81.49,-29.63 147.1,-40.22 13.76,-2.11 38.1,-8.46 38.1,-24.34 0,-8.46 -8.46,-12.7 -14.81,-15.87 160.86,-58.21 273.05,-71.97 297.39,-74.08 122.76,-8.47 152.4,28.57 153.46,51.85 2.11,28.58 -53.98,100.54 -293.16,133.35 87.84,-102.65 95.25,-116.41 102.66,-134.4 -105.84,0 -175.69,88.89 -244.48,155.57 -31.75,9.52 -179.91,11.64 -179.91,57.15 0,35.98 67.73,39.16 97.36,41.27 -122.76,161.93 -117.47,167.22 -117.47,201.09 0,96.31 105.83,121.7 182.03,117.47 284.69,-15.87 414.87,-158.75 414.87,-219.07 0,-101.6 -259.29,-122.77 -334.44,-136.53zm-46.56 52.92c43.39,0 261.4,15.87 261.4,70.91 0,42.33 -146.04,111.12 -240.24,112.18 -33.86,0 -117.47,-12.7 -117.47,-58.21 0,-22.22 23.28,-45.51 37.04,-60.32l59.27 -64.56z"/>
  <path id="_1_6" class="fil4" d="M4230.71 1708.3c-42.33,30.69 -97.36,86.78 -153.45,86.78 -48.69,0 -64.56,-23.28 -56.1,-66.67 44.45,-30.69 149.23,-124.88 149.23,-177.8 0,-23.28 -28.58,-29.63 -46.57,-29.63 -63.5,0 -195.79,125.94 -195.79,255.05 0,53.98 28.58,125.94 91.02,125.94 80.43,0 173.56,-95.24 221.19,-153.45l-9.53 -40.22zm-49.74 -351.36c-31.75,9.52 -101.6,28.57 -128.06,45.5 -12.7,8.47 -29.63,27.52 -29.63,43.39 0,8.47 7.41,9.53 14.82,9.53 10.58,0 24.34,-4.23 34.92,-8.47 27.52,-10.58 70.91,-17.99 100.54,-22.22 39.16,-5.29 51.86,-6.35 89.96,-4.24 43.39,3.18 40.22,0 37.04,-43.39 -2.11,-22.22 2.12,-45.5 -24.34,-45.5 -11.64,0 -22.22,3.17 -32.81,6.35l-62.44 19.05z"/>
  <path id="_2_7" class="fil4" d="M4484.72 1523.62c67.73,-65.79 224.36,-224.72 224.36,-321.02 0,-20.11 -9.52,-39.34 -30.69,-39.34 -44.45,0 -210.61,129.29 -296.33,232.13 -83.61,99.66 -146.05,213.07 -146.05,346.6 0,50.8 9.52,153.63 78.32,153.63 69.85,0 143.93,-64.73 189.44,-112.35 67.73,-1.06 121.71,-18 169.33,-67.91l-10.58 -34.93c-33.87,24.34 -68.79,47.63 -112.19,39.16 18,-39.16 50.8,-87.84 50.8,-132.47 0,-20.11 -6.35,-46.56 -31.75,-46.56 -62.44,0.17 -147.1,104.06 -147.1,165.45 0,17.11 6.35,27.69 14.81,41.45 -17.99,21.17 -37.04,49.74 -70.91,55.03 -40.21,5.29 -65.61,-49.74 -46.56,-116.59l165.1 -162.28zm135.46 -269.17l2.12 2.12c-17.99,38.1 -41.27,98.6 -262.47,318.91l-2.11 -2.12c62.44,-122.94 157.69,-229.83 262.46,-318.91z"/>
  <path id="_3_8" class="fil4" d="M4774.7 1585.53c49.74,-109 110.06,-204.25 161.92,-229.65 -19.05,60.32 -84.66,161.92 -159.81,231.77l-2.11 -2.12zm206.37 112.19c-42.33,38.1 -123.82,105.83 -182.03,105.83 -28.58,0 -43.39,-21.17 -52.92,-45.51 -5.29,-25.4 -2.11,-55.03 7.41,-73.02 229.66,-222.25 257.18,-315.39 264.58,-415.93 1.06,-13.75 -3.17,-39.15 -21.16,-39.15 -33.87,0 -134.41,98.42 -227.54,213.78 -68.8,84.66 -116.42,204.26 -116.42,315.38 0,62.44 16.93,137.58 94.19,137.58 91.02,0 190.5,-106.89 248.71,-167.21l-14.82 -31.75z"/>
  <path id="_4_9" class="fil4" d="M5265.76 1708.3c-42.33,30.69 -97.36,86.78 -153.45,86.78 -48.69,0 -64.56,-23.28 -56.1,-66.67 44.45,-30.69 149.23,-124.88 149.23,-177.8 0,-23.28 -28.58,-29.63 -46.57,-29.63 -63.5,0 -195.79,125.94 -195.79,255.05 0,53.98 28.58,125.94 91.02,125.94 80.43,0 173.56,-95.24 221.19,-153.45l-9.53 -40.22zm-49.74 -208.49c45.51,0 84.67,-51.86 84.67,-94.19 0,-19.05 -15.88,-32.81 -34.93,-32.81 -41.27,0 -92.07,38.1 -92.07,81.49 0,25.4 16.93,45.51 42.33,45.51z"/>
  <path id="_5_10" class="fil4" d="M5476.38 1620.46c1.05,20.11 11.64,46.57 35.98,46.57 28.57,0 112.18,-81.5 112.18,-139.7 0,-31.75 -14.81,-48.69 -47.62,-48.69 -59.27,0 -160.87,57.15 -208.49,93.14 -68.8,51.85 -100.54,84.66 -100.54,173.56 0,78.32 39.15,154.52 120.64,154.52 100.55,0 219.08,-104.78 283.64,-173.57l-12.7 -41.27c-61.39,47.62 -153.46,121.71 -233.89,121.71 -55.04,0 -80.44,-32.81 -80.44,-57.15 0,-29.64 19.05,-45.51 42.34,-62.45l88.9 -66.67z"/>
  <path id="_6_11" class="fil4" d="M6072.22 1682.9c-32.81,24.34 -62.45,64.56 -109.01,56.09 20.11,-41.27 41.27,-78.31 41.27,-124.88 0,-31.75 -6.35,-53.98 -38.1,-62.44 11.64,-6.35 24.34,-12.7 24.34,-28.58 0,-28.57 -34.92,-39.16 -58.2,-38.1 -64.56,3.18 -140.76,31.75 -197.91,78.32 -59.27,45.51 -98.43,98.42 -96.31,177.8 4.23,96.31 55.03,151.34 110.07,151.34 66.67,0 118.53,-33.87 162.98,-79.37 77.26,0 123.82,-25.4 171.45,-85.73l-10.58 -44.45zm-194.74 -82.55c4.24,2.12 -45.51,68.79 -45.51,123.83 0,17.99 5.3,31.75 12.7,48.68 -24.34,22.22 -46.56,42.33 -81.49,42.33 -26.46,0 -46.56,-9.52 -46.56,-40.21 0,-32.81 20.1,-74.09 43.39,-97.37 31.75,-30.69 81.49,-56.09 117.47,-77.26z"/>
  <path class="fil5" d="M2885.8 770.47c-16.93,22.23 -42.33,53.98 -42.33,83.61 0,30.69 14.81,106.89 56.09,106.89 26.45,0 77.25,-60.32 93.13,-80.43 166.16,-210.61 224.37,-258.24 404.28,-410.64l2.12 2.12c-74.08,96.31 -208.49,255.06 -208.49,382.06 0,61.38 23.28,128.06 93.13,128.06 91.02,0 318.56,-179.92 343.96,-252.94l-4.24 -40.22c-142.87,138.64 -225.42,186.27 -255.05,186.27 -25.4,0 -37.04,-30.7 -37.04,-51.86 0,-80.44 73.02,-180.98 121.7,-240.24l164.04 -200.03c12.7,-15.87 45.51,-52.91 45.51,-74.08 0,-22.23 -44.45,-91.02 -73.02,-91.02 -19.05,0 -40.22,22.23 -53.98,33.87 -138.64,110.07 -260.35,225.42 -390.52,337.61l-2.12 -2.12c43.39,-66.68 157.69,-223.31 157.69,-301.62 0,-55.04 -53.97,-74.09 -77.25,-73.03 -43.4,1.06 -133.35,80.43 -172.51,117.48l-168.28 162.98 -2.11 -2.12c11.64,-39.16 65.61,-149.22 65.61,-184.15 0,-15.87 -5.29,-26.46 -12.7,-40.21l-25.4 -44.45c-10.58,-18 -14.81,-32.81 -40.21,-33.87 -38.1,-2.12 -187.33,68.79 -200.03,74.08l-119.59 55.04 -2.12 -2.12c41.28,-35.98 56.1,-55.03 56.1,-61.38 0,-6.35 -7.41,-10.59 -12.7,-10.59 -7.41,0 -21.17,10.59 -26.46,14.82 -94.19,66.67 -87.84,64.56 -97.37,77.26 -8.47,9.52 -16.93,67.73 -27.52,124.88 -5.29,25.4 8.47,39.16 25.4,39.16 53.98,0 3.18,-2.12 329.15,-154.52 8.46,-4.23 24.34,-12.7 32.8,-12.7 18,0 37.05,21.17 -74.08,220.13l-221.19 279.4c11.64,32.81 32.81,116.42 77.26,116.42 33.86,0 60.32,-40.22 78.31,-64.56l158.75 -213.78 254 -275.17c7.41,-8.46 20.11,-22.22 32.81,-22.22 11.64,0 15.88,11.64 -2.12,45.51 -35.98,69.85 -71.96,128.05 -171.45,258.23l-71.96 94.19z"/>
  <path id="_1_12" class="fil5" d="M3795.96 748.25c-49.74,44.45 -107.95,75.14 -127,75.14 -7.41,0 -8.47,-10.59 -8.47,-15.88 0,-44.45 25.4,-67.73 58.21,-91.01 41.28,-29.64 47.63,-39.16 80.44,-76.2 11.64,-9.53 40.21,-39.16 42.33,-56.1 4.23,-31.75 -49.74,-22.22 -64.56,-22.22 -17.99,0 -31.75,2.12 -46.57,11.64 -67.73,44.45 -147.1,150.28 -147.1,252.94 0,45.51 28.57,104.78 80.43,104.78 58.21,0 129.12,-95.25 170.39,-131.24l2.12 2.12c-10.59,27.52 -22.23,57.15 -22.23,88.9 0,37.04 23.29,69.85 62.44,69.85 78.32,0 190.5,-121.71 244.48,-173.57l-6.35 -45.5c-31.75,25.4 -122.77,99.48 -162.98,99.48 -16.94,0 -26.46,-6.35 -26.46,-23.28 0,-47.63 75.14,-131.24 109.01,-161.93 16.93,-14.82 45.5,-39.16 43.39,-64.56 -4.24,-55.03 -15.88,-58.21 -24.34,-58.21 -26.46,0 -130.18,100.55 -152.4,120.65l-104.78 94.2z"/>
  <path id="_2_13" class="fil5" d="M4537.85 778.94c-19.05,15.87 -65.62,52.91 -91.02,52.91 -10.58,0 -19.05,-9.52 -19.05,-19.05 0,-73.02 130.18,-153.45 130.18,-194.73 -3.18,-22.22 -9.53,-41.27 -15.88,-57.15 -6.35,-14.82 -12.7,-20.11 -16.93,-20.11 -30.69,0 -225.43,130.18 -310.09,238.13 -4.24,5.29 -13.76,14.81 -21.17,14.81 -6.35,0 -11.64,-5.29 -11.64,-11.64 0,-25.4 133.35,-132.29 133.35,-173.56 0,-6.35 5.29,-21.17 -58.21,-23.29 -17.99,0 -27.52,1.06 -41.27,12.7 -61.39,51.86 -128.06,158.75 -124.89,231.78 1.06,35.98 12.7,102.66 59.27,102.66 28.57,0 67.73,-51.86 83.61,-71.97 47.62,-61.38 101.6,-116.42 162.98,-161.93l2.12 2.12c-33.87,48.68 -91.02,118.53 -91.02,182.03 0,35.99 19.05,69.85 59.27,69.85 77.26,0 186.26,-130.17 242.36,-179.91l-8.47 -46.57 -63.5 52.92z"/>
  <path id="_3_14" class="fil5" d="M5124.16 441.33c16.93,-26.46 45.51,-69.85 45.51,-101.6 0,-19.05 -12.7,-40.22 -33.87,-40.22 -77.25,0 -170.39,219.08 -205.31,279.4 -13.76,-15.87 -22.23,-30.69 -44.45,-29.63 -89.96,5.29 -300.57,111.12 -300.57,236.01 0,37.04 29.63,138.64 77.26,138.64 47.62,0 146.05,-102.66 183.09,-134.41 -4.23,26.46 -8.47,53.98 -8.47,80.43 0,33.87 15.88,76.2 56.1,76.2 77.25,0 186.26,-111.12 236,-166.15l-7.41 -34.93c-33.86,22.23 -131.23,107.95 -167.21,107.95 -23.28,0 -24.34,-35.98 -24.34,-52.92 0,-67.73 50.8,-136.52 85.72,-191.55l107.95 -167.22zm-229.66 200.02c-16.93,62.45 -187.32,189.45 -200.02,186.27 -11.64,-2.12 -16.93,-10.58 -15.88,-20.11 6.35,-69.85 29.64,-105.83 215.9,-166.16z"/>
  <path id="_4_15" class="fil5" d="M5544.32 732.37c-32.81,24.34 -62.45,64.56 -109.01,56.09 20.11,-41.27 41.27,-78.31 41.27,-124.88 0,-31.75 -6.35,-53.98 -38.1,-62.44 11.64,-6.35 24.34,-12.7 24.34,-28.58 0,-28.57 -34.92,-39.16 -58.2,-38.1 -64.56,3.18 -140.76,31.75 -197.91,78.32 -59.27,45.51 -98.43,98.42 -96.31,177.8 4.23,96.31 55.03,151.34 110.07,151.34 66.67,0 118.53,-33.87 162.98,-79.37 77.26,0 123.82,-25.4 171.45,-85.73l-10.58 -44.45zm-194.74 -82.55c4.24,2.12 -45.51,68.79 -45.51,123.83 0,17.99 5.3,31.75 12.7,48.68 -24.34,22.22 -46.56,42.33 -81.49,42.33 -26.46,0 -46.56,-9.52 -46.56,-40.21 0,-32.81 20.1,-74.09 43.39,-97.37 31.75,-30.69 81.49,-56.09 117.47,-77.26z"/>
  <path class="fil4" d="M2970.47 770.47c-16.93,22.23 -42.33,53.98 -42.33,83.61 0,30.69 14.81,106.89 56.09,106.89 26.45,0 77.25,-60.32 93.13,-80.43 166.16,-210.61 224.37,-258.24 404.28,-410.64l2.12 2.12c-74.08,96.31 -208.49,255.06 -208.49,382.06 0,61.38 23.28,128.06 93.13,128.06 91.02,0 318.56,-179.92 343.96,-252.94l-4.24 -40.22c-142.87,138.64 -225.42,186.27 -255.05,186.27 -25.4,0 -37.04,-30.7 -37.04,-51.86 0,-80.44 73.02,-180.98 121.7,-240.24l164.04 -200.03c12.7,-15.87 45.51,-52.91 45.51,-74.08 0,-22.23 -44.45,-91.02 -73.02,-91.02 -19.05,0 -40.22,22.23 -53.98,33.87 -138.64,110.07 -260.35,225.42 -390.52,337.61l-2.12 -2.12c43.39,-66.68 157.69,-223.31 157.69,-301.62 0,-55.04 -53.97,-74.09 -77.25,-73.03 -43.4,1.06 -133.35,80.43 -172.51,117.48l-168.28 162.98 -2.11 -2.12c11.64,-39.16 65.61,-149.22 65.61,-184.15 0,-15.87 -5.29,-26.46 -12.7,-40.21l-25.4 -44.45c-10.58,-18 -14.81,-32.81 -40.21,-33.87 -38.1,-2.12 -187.33,68.79 -200.03,74.08l-119.59 55.04 -2.12 -2.12c41.28,-35.98 56.1,-55.03 56.1,-61.38 0,-6.35 -7.41,-10.59 -12.7,-10.59 -7.41,0 -21.17,10.59 -26.46,14.82 -94.19,66.67 -87.84,64.56 -97.37,77.26 -8.47,9.52 -16.93,67.73 -27.52,124.88 -5.29,25.4 8.47,39.16 25.4,39.16 53.98,0 3.18,-2.12 329.15,-154.52 8.46,-4.23 24.34,-12.7 32.8,-12.7 18,0 37.05,21.17 -74.08,220.13l-221.19 279.4c11.64,32.81 32.81,116.42 77.26,116.42 33.86,0 60.32,-40.22 78.31,-64.56l158.75 -213.78 254 -275.17c7.41,-8.46 20.11,-22.22 32.81,-22.22 11.64,0 15.88,11.64 -2.12,45.51 -35.98,69.85 -71.96,128.05 -171.45,258.23l-71.96 94.19z"/>
  <path id="_1_16" class="fil4" d="M3880.63 748.25c-49.74,44.45 -107.95,75.14 -127,75.14 -7.41,0 -8.47,-10.59 -8.47,-15.88 0,-44.45 25.4,-67.73 58.21,-91.01 41.28,-29.64 47.63,-39.16 80.44,-76.2 11.64,-9.53 40.21,-39.16 42.33,-56.1 4.23,-31.75 -49.74,-22.22 -64.56,-22.22 -17.99,0 -31.75,2.12 -46.57,11.64 -67.73,44.45 -147.1,150.28 -147.1,252.94 0,45.51 28.57,104.78 80.43,104.78 58.21,0 129.12,-95.25 170.39,-131.24l2.12 2.12c-10.59,27.52 -22.23,57.15 -22.23,88.9 0,37.04 23.29,69.85 62.44,69.85 78.32,0 190.5,-121.71 244.48,-173.57l-6.35 -45.5c-31.75,25.4 -122.77,99.48 -162.98,99.48 -16.94,0 -26.46,-6.35 -26.46,-23.28 0,-47.63 75.14,-131.24 109.01,-161.93 16.93,-14.82 45.5,-39.16 43.39,-64.56 -4.24,-55.03 -15.88,-58.21 -24.34,-58.21 -26.46,0 -130.18,100.55 -152.4,120.65l-104.78 94.2z"/>
  <path id="_2_17" class="fil4" d="M4622.52 778.94c-19.05,15.87 -65.62,52.91 -91.02,52.91 -10.58,0 -19.05,-9.52 -19.05,-19.05 0,-73.02 130.18,-153.45 130.18,-194.73 -3.18,-22.22 -9.53,-41.27 -15.88,-57.15 -6.35,-14.82 -12.7,-20.11 -16.93,-20.11 -30.69,0 -225.43,130.18 -310.09,238.13 -4.24,5.29 -13.76,14.81 -21.17,14.81 -6.35,0 -11.64,-5.29 -11.64,-11.64 0,-25.4 133.35,-132.29 133.35,-173.56 0,-6.35 5.29,-21.17 -58.21,-23.29 -17.99,0 -27.52,1.06 -41.27,12.7 -61.39,51.86 -128.06,158.75 -124.89,231.78 1.06,35.98 12.7,102.66 59.27,102.66 28.57,0 67.73,-51.86 83.61,-71.97 47.62,-61.38 101.6,-116.42 162.98,-161.93l2.12 2.12c-33.87,48.68 -91.02,118.53 -91.02,182.03 0,35.99 19.05,69.85 59.27,69.85 77.26,0 186.26,-130.17 242.36,-179.91l-8.47 -46.57 -63.5 52.92z"/>
  <path id="_3_18" class="fil4" d="M5208.83 441.33c16.93,-26.46 45.51,-69.85 45.51,-101.6 0,-19.05 -12.7,-40.22 -33.87,-40.22 -77.25,0 -170.39,219.08 -205.31,279.4 -13.76,-15.87 -22.23,-30.69 -44.45,-29.63 -89.96,5.29 -300.57,111.12 -300.57,236.01 0,37.04 29.63,138.64 77.26,138.64 47.62,0 146.05,-102.66 183.09,-134.41 -4.23,26.46 -8.47,53.98 -8.47,80.43 0,33.87 15.88,76.2 56.1,76.2 77.25,0 186.26,-111.12 236,-166.15l-7.41 -34.93c-33.86,22.23 -131.23,107.95 -167.21,107.95 -23.28,0 -24.34,-35.98 -24.34,-52.92 0,-67.73 50.8,-136.52 85.72,-191.55l107.95 -167.22zm-229.66 200.02c-16.93,62.45 -187.32,189.45 -200.02,186.27 -11.64,-2.12 -16.93,-10.58 -15.88,-20.11 6.35,-69.85 29.64,-105.83 215.9,-166.16z"/>
  <path id="_4_19" class="fil4" d="M5628.99 732.37c-32.81,24.34 -62.45,64.56 -109.01,56.09 20.11,-41.27 41.27,-78.31 41.27,-124.88 0,-31.75 -6.35,-53.98 -38.1,-62.44 11.64,-6.35 24.34,-12.7 24.34,-28.58 0,-28.57 -34.92,-39.16 -58.2,-38.1 -64.56,3.18 -140.76,31.75 -197.91,78.32 -59.27,45.51 -98.43,98.42 -96.31,177.8 4.23,96.31 55.03,151.34 110.07,151.34 66.67,0 118.53,-33.87 162.98,-79.37 77.26,0 123.82,-25.4 171.45,-85.73l-10.58 -44.45zm-194.74 -82.55c4.24,2.12 -45.51,68.79 -45.51,123.83 0,17.99 5.3,31.75 12.7,48.68 -24.34,22.22 -46.56,42.33 -81.49,42.33 -26.46,0 -46.56,-9.52 -46.56,-40.21 0,-32.81 20.1,-74.09 43.39,-97.37 31.75,-30.69 81.49,-56.09 117.47,-77.26z"/>
 </g>
</svg>
