<?xml version="1.0" encoding="UTF-8"?>
<!DOCTYPE svg PUBLIC "-//W3C//DTD SVG 1.1//EN" "http://www.w3.org/Graphics/SVG/1.1/DTD/svg11.dtd">
<!-- Creator: CorelDRAW -->
<svg xmlns="http://www.w3.org/2000/svg" xml:space="preserve" width="421px" height="105px" version="1.1" style="shape-rendering:geometricPrecision; text-rendering:geometricPrecision; image-rendering:optimizeQuality; fill-rule:evenodd; clip-rule:evenodd"
viewBox="0 0 421 105.416"
 xmlns:xlink="http://www.w3.org/1999/xlink"
 xmlns:xodm="http://www.corel.com/coreldraw/odm/2003">
 <defs>
  <style type="text/css">
   <![CDATA[
    .fil0 {fill:white;fill-rule:nonzero}
    .fil1 {fill:url(#id0)}
    .fil2 {fill:url(#id1);fill-rule:nonzero}
    .fil3 {fill:url(#id2);fill-rule:nonzero}
    .fil4 {fill:url(#id3);fill-rule:nonzero}
   ]]>
  </style>
  <linearGradient id="id0" gradientUnits="userSpaceOnUse" x1="38.331" y1="51.802" x2="172.89" y2="51.802">
   <stop offset="0" style="stop-opacity:1; stop-color:#FEDC53"/>
   <stop offset="0.141176" style="stop-opacity:1; stop-color:#F1C635"/>
   <stop offset="0.309804" style="stop-opacity:1; stop-color:#E3B017"/>
   <stop offset="0.333333" style="stop-opacity:1; stop-color:#E3B017"/>
   <stop offset="0.580392" style="stop-opacity:1; stop-color:#E3B017"/>
   <stop offset="1" style="stop-opacity:1; stop-color:#FFE25F"/>
  </linearGradient>
  <linearGradient id="id1" gradientUnits="objectBoundingBox" x1="0%" y1="49.9999%" x2="99.9996%" y2="49.9999%">
   <stop offset="0" style="stop-opacity:1; stop-color:#FFDD55"/>
   <stop offset="0.2" style="stop-opacity:1; stop-color:#ECBA1D"/>
   <stop offset="0.360784" style="stop-opacity:1; stop-color:#E3B017"/>
   <stop offset="0.501961" style="stop-opacity:1; stop-color:#E3B017"/>
   <stop offset="0.631373" style="stop-opacity:1; stop-color:#F3DE5F"/>
   <stop offset="0.721569" style="stop-opacity:1; stop-color:#FFF584"/>
   <stop offset="0.8" style="stop-opacity:1; stop-color:#FEEE74"/>
   <stop offset="0.878431" style="stop-opacity:1; stop-color:#FFE667"/>
   <stop offset="1" style="stop-opacity:1; stop-color:#FFDD55"/>
  </linearGradient>
  <linearGradient id="id2" gradientUnits="objectBoundingBox" xlink:href="#id1" x1="0%" y1="49.9999%" x2="99.9994%" y2="49.9999%">
  </linearGradient>
  <linearGradient id="id3" gradientUnits="objectBoundingBox" xlink:href="#id1" x1="0%" y1="49.9999%" x2="99.9998%" y2="49.9999%">
  </linearGradient>
 </defs>
 <g id="Capa_x0020_1">
  <metadata id="CorelCorpID_0Corel-Layer"/>
  <path class="fil0" d="M233.907 46.557c6.13,0 9.422,-3.633 9.422,-10.104 0,-4.938 -1.646,-8.116 -6.868,-12.714 -4.087,-3.577 -5.393,-5.677 -5.393,-8.571 0,-2.725 1.136,-3.803 3.122,-3.803 1.987,0 3.122,1.078 3.122,3.916l0 2.044 5.903 0 0 -1.646c0,-6.357 -3.008,-9.99 -9.081,-9.99 -6.074,0 -9.309,3.633 -9.309,9.876 0,4.541 1.703,7.776 6.924,12.374 4.088,3.576 5.336,5.676 5.336,8.968 0,2.952 -1.248,3.973 -3.236,3.973 -1.986,0 -3.235,-1.021 -3.235,-3.859l0 -2.725 -5.903 0 0 2.271c0,6.357 3.065,9.99 9.196,9.99z"/>
  <path id="_1" class="fil0" d="M255.93 46.557c6.13,0 9.479,-3.633 9.479,-9.99l0 -20.888c0,-6.357 -3.349,-9.99 -9.479,-9.99 -6.13,0 -9.479,3.633 -9.479,9.99l0 20.888c0,6.357 3.349,9.99 9.479,9.99zm0 -5.677c-1.987,0 -3.236,-1.078 -3.236,-3.916l0 -21.683c0,-2.838 1.249,-3.916 3.236,-3.916 1.986,0 3.235,1.078 3.235,3.916l0 21.683c0,2.838 -1.249,3.916 -3.235,3.916z"/>
  <path id="_2" class="fil0" d="M269.609 45.989l6.244 0 0 -17.028 2.157 0c2.838,0 3.917,1.192 3.917,4.882l0 7.264c0,3.236 0.227,3.86 0.567,4.882l6.357 0c-0.624,-1.476 -0.681,-2.895 -0.681,-4.825l0 -6.981c0,-4.485 -1.021,-7.436 -4.143,-8.401l0 -0.114c2.781,-1.134 4.087,-3.746 4.087,-7.833l0 -2.44c0,-6.13 -2.781,-9.139 -9.253,-9.139l-9.252 0 0 39.733zm6.244 -22.704l0 -11.353 2.838 0c2.214,0 3.179,1.249 3.179,4.087l0 3.065c0,3.179 -1.419,4.201 -3.746,4.201l-2.271 0z"/>
  <polygon id="_3" class="fil0" points="297.252,45.989 303.496,45.989 303.496,11.932 310.024,11.932 310.024,6.256 290.724,6.256 290.724,11.932 297.252,11.932 "/>
  <polygon id="_4" class="fil0" points="313.032,45.989 330.06,45.989 330.06,40.313 319.276,40.313 319.276,28.11 327.847,28.11 327.847,22.434 319.276,22.434 319.276,11.932 330.06,11.932 330.06,6.256 313.032,6.256 "/>
  <path id="_5" class="fil0" d="M342.661 46.557c6.131,0 9.48,-3.633 9.48,-9.99l0 -20.888c0,-6.357 -3.349,-9.99 -9.48,-9.99 -6.13,0 -9.479,3.633 -9.479,9.99l0 20.888c0,6.357 3.349,9.99 9.479,9.99zm0 -5.677c-1.986,0 -3.235,-1.078 -3.235,-3.916l0 -21.683c0,-2.838 1.249,-3.916 3.235,-3.916 1.987,0 3.236,1.078 3.236,3.916l0 21.683c0,2.838 -1.249,3.916 -3.236,3.916z"/>
  <path class="fil1" d="M154.454 40.803c0.495,-0.905 2.95,-1.241 3.823,-1.263 1.554,-0.038 3.109,0.476 3.137,1.794 -1.057,0.981 -5.681,0.201 -6.96,-0.531zm-73.861 28.077l10.191 1.396c5.949,0.791 13.433,2.004 18.931,4.079 1.413,0.534 2.713,1.102 4.052,1.782 0.773,0.393 3.139,1.753 3.486,2.177 -6.914,-8.418 -16.413,-13.545 -27.42,-16.582 -3.552,-0.981 -8.372,-2.114 -12.164,-2.649 -3.814,-1.021 -7.238,-1.351 -12.115,-2.792 -7.916,-2.336 -13.832,-5.128 -20.159,-10.012 -1.247,-0.964 -2.779,-2.353 -3.807,-3.773 -0.844,-1.165 -2.31,-3.902 -3.102,-4.467 -0.862,4.481 2.1,10.891 3.892,14.024 2.37,4.137 5.14,6.851 9.131,9.242 3.81,2.286 8.474,3.833 13.317,5.037 2.179,0.543 14.077,2.837 15.767,2.538zm-12.25 -31.934c-1.189,-0.854 -5.618,-2.137 -12.47,-7.409 -7.375,-5.674 -6.888,-8.672 -8.934,-11.04 -0.764,1.15 -0.192,5.268 0.067,6.49 0.421,2.001 1.008,3.815 1.704,5.585 0.622,1.579 1.509,3.481 2.424,4.873 2.944,4.479 6.577,7.591 11.806,10.055 1.586,0.747 9.078,3.988 10.621,3.86 0.12,0.096 0.103,0.097 0.321,0.198 0.027,0.013 0.311,0.121 0.332,0.126l2.422 0.639c7.922,1.985 15.272,3.17 22.979,4.978 6.269,1.47 12.479,3.096 17.947,6.104 1.133,0.624 3.934,2.41 4.684,3.225 -1.337,-2.839 -7.428,-8.831 -9.694,-10.603 -11.73,-9.169 -23.053,-10.101 -36.626,-14.375l-7.583 -2.706zm-28.775 60.299c0.37,0.512 0.397,0.73 0.949,1.272 3.336,3.279 7.464,4.983 12.409,4.279 2.527,-0.36 5.296,-1.365 7.334,-2.328l6.524 -3.259c1.42,2.528 5.844,5.416 10.025,5.729 7.646,0.574 16.184,-5.564 22.712,-8.821 3.61,-1.802 7.149,-3.774 11.943,-3.966 -1.189,-0.608 -4.176,-1.058 -5.794,-1.145 -2.286,-0.12 -4.55,0.105 -6.569,0.618 -3.626,0.922 -6.933,2.592 -9.993,4.129 -5.19,2.608 -10.257,4.913 -16.521,4.775 -1.715,-0.038 -4.477,-0.576 -5.685,-1.47 5.73,-2.75 9.732,-6.295 17.332,-6.905 -2.895,-1.491 -8.964,-1.399 -12.375,-0.53 -3.516,0.896 -7.048,2.587 -9.989,4.132 -5.131,2.692 -10.434,4.883 -16.534,4.769 -3.764,-0.07 -4.536,-1.341 -5.768,-1.279zm100.901 -37.573c0.131,-1.261 -4.136,-11.097 -4.88,-12.651 -1.9,-3.979 -4.446,-7.642 -7.585,-10.193 -10.754,-8.74 -35.096,-10.444 -51.994,-18.84 -5.447,-2.706 -11.679,-6.762 -14.932,-11.575 -1.159,-1.714 -1.889,-4.184 -3.064,-5.787 -1.509,1.641 0.248,9.084 0.841,11.065 2.957,9.869 9.618,15.542 18.64,19.836 5.962,2.837 12.397,4.619 18.788,6.86 6.501,2.281 12.601,4.285 18.51,7.129 6.037,2.907 11.236,5.675 13.949,11.699 3.112,6.915 0.92,14.619 -2.377,20.179 -5.701,9.616 -14.786,15.724 -24.889,19.973 -1.31,0.552 -3.463,1.325 -4.28,2.157 3.559,0.279 27.531,-4.292 30.747,-5.104 6.523,-1.649 13.388,-4.315 18.391,-8.432 1.314,-1.081 3.408,-2.999 4.41,-4.608 1.806,-1.699 3.892,-7.118 4.47,-9.836 1.834,-8.648 0.055,-19.843 5.331,-23.516 3.6,-2.506 7.646,-1.714 12.345,-1.504 -0.913,-4.653 -5.883,-9.577 -11.254,-10.262 -4.587,-0.586 -7.822,0.472 -10.065,0.415 -1.131,-0.027 -3.016,-0.923 -4.004,-1.345 -0.824,-0.352 -3.052,-1.423 -3.84,-1.534 0.126,1.641 1.045,4.774 1.602,6.242 0.725,1.91 1.554,3.774 3.556,4.197 -3.073,2.836 -4.934,7.738 -6.353,12.014 -0.285,0.86 -1.151,4.245 -1.453,4.741 -0.192,-0.411 -0.197,-0.834 -0.61,-1.32z"/>
  <path class="fil2" d="M228.614 101.775l5.789 0 1.136 -7.776 7.095 0 0 -0.114 1.135 7.89 6.244 0 -6.471 -39.733 -8.457 0 -6.471 39.733zm7.662 -13.169l2.725 -19.639 0.114 0 2.781 19.639 -5.62 0z"/>
  <polygon id="_1_0" class="fil2" points="255.803,101.775 264.09,101.775 270.106,62.042 264.373,62.042 260.287,92.863 260.173,92.863 256.087,62.042 249.785,62.042 "/>
  <polygon id="_2_1" class="fil2" points="273.114,101.775 290.143,101.775 290.143,96.099 279.359,96.099 279.359,83.896 287.929,83.896 287.929,78.22 279.359,78.22 279.359,67.718 290.143,67.718 290.143,62.042 273.114,62.042 "/>
  <polygon class="fil3" points="181.413,101.778 198.442,101.778 198.442,96.101 187.657,96.101 187.657,83.898 196.228,83.898 196.228,78.222 187.657,78.222 187.657,67.721 198.442,67.721 198.442,62.044 181.413,62.044 "/>
  <polygon id="_1_2" class="fil3" points="202.018,101.778 218.536,101.778 218.536,96.101 208.262,96.101 208.262,62.044 202.018,62.044 "/>
  <polygon class="fil4" points="301.894,101.594 308.138,101.594 308.138,84.282 316.198,84.282 316.198,78.606 308.138,78.606 308.138,67.537 318.412,67.537 318.412,61.861 301.894,61.861 "/>
  <polygon id="_1_3" class="fil4" points="321.419,101.594 338.448,101.594 338.448,95.918 327.664,95.918 327.664,83.714 336.234,83.714 336.234,78.038 327.664,78.038 327.664,67.537 338.448,67.537 338.448,61.861 321.419,61.861 "/>
  <polygon id="_2_4" class="fil4" points="342.024,101.594 347.587,101.594 347.587,72.589 347.7,72.589 355.193,101.594 361.607,101.594 361.607,61.861 356.045,61.861 356.045,85.644 355.931,85.644 349.857,61.861 342.024,61.861 "/>
  <polygon id="_3_5" class="fil4" points="366.261,101.594 372.506,101.594 372.506,61.861 366.261,61.861 "/>
  <polygon id="_4_6" class="fil4" points="375.457,101.594 381.36,101.594 386.015,87.744 386.128,87.744 390.669,101.594 397.254,101.594 390.045,81.273 396.913,61.861 391.01,61.861 386.696,74.689 386.582,74.689 382.382,61.861 375.798,61.861 382.666,81.273 "/>
 </g>
</svg>
