<?xml version="1.0" encoding="UTF-8"?>
<!DOCTYPE svg PUBLIC "-//W3C//DTD SVG 1.1//EN" "http://www.w3.org/Graphics/SVG/1.1/DTD/svg11.dtd">
<!-- Creator: CorelDRAW 2021 (64-Bit) -->
<svg xmlns="http://www.w3.org/2000/svg" xml:space="preserve" width="100%" height="100%" version="1.1" style="shape-rendering:geometricPrecision; text-rendering:geometricPrecision; image-rendering:optimizeQuality; fill-rule:evenodd; clip-rule:evenodd"
viewBox="0 0 22000 10000"
 xmlns:xlink="http://www.w3.org/1999/xlink"
 xmlns:xodm="http://www.corel.com/coreldraw/odm/2003">
 <defs>
  <style type="text/css">
   <![CDATA[
    .str1 {stroke:#373435;stroke-width:7.62;stroke-miterlimit:22.9256}
    .str0 {stroke:#C10C58;stroke-width:7.62;stroke-miterlimit:22.9256}
    .fil3 {fill:none;fill-rule:nonzero}
    .fil1 {fill:#009E50}
    .fil0 {fill:#1480BA}
    .fil4 {fill:#373435;fill-rule:nonzero}
    .fil2 {fill:#C10C58;fill-rule:nonzero}
   ]]>
  </style>
 </defs>
 <g id="Capa_x0020_1">
  <metadata id="CorelCorpID_0Corel-Layer"/>
  <path class="fil0" d="M20851.54 579.43c-54.36,252.34 -167.9,495.81 -336.46,708.81 -308.45,377.69 -689.76,714.11 -1130.66,981.17 -226.67,126.49 -452.22,262.88 -624.49,443.21 19.22,-36.34 45.93,-69.13 72.22,-101.93 146.93,-192.44 314.36,-378.89 403.25,-597.96 46.08,-120.05 73.85,-248.78 51.42,-374.89 -28.55,-108.8 -77.29,-221.22 -175.48,-298.52 41.25,110.75 57.5,229.34 34.63,344.59 -31.19,139.82 -106.71,268.76 -184.95,393.26 -117.59,176.78 -235.65,355.31 -310.57,549.04 -45.94,117.78 -58.88,242.15 -64.88,365.52 -2.68,42.44 -22.75,106.08 33.22,128.92 48.11,-13.68 72.88,-54.87 105.19,-85.14 182.43,-200.58 429.03,-348.12 669.5,-493.93 237.49,-129.32 451.15,-288.62 641.24,-465.42 234.59,-219.06 439.17,-462.37 598.09,-726.3 138.24,-238.46 222.69,-503.61 218.73,-770.43zm-1669.41 2438.87c-60.15,107.09 -89.38,231.04 -55.54,347.95 9.02,35.15 32.48,66.4 67.26,87.05 29.59,-33.19 30.32,-76.06 40.11,-115.2 14.29,-71.62 41.98,-141.24 83.93,-204.64 91.28,-141.75 216.33,-265.62 349.54,-379.91 398.63,-312.59 760.94,-661.5 1053.81,-1050.23 120.49,-163.47 229.57,-336.73 284.22,-525.14 25.19,-81.86 28.68,-167.29 16.25,-251.02l-15.21 -41.96c12.92,86.99 -1.62,176.15 -35.83,258.62 -62.79,153.03 -166.3,291.06 -277.54,421.51 -316.05,359.76 -689.78,679.43 -1075.39,984.97 -176.35,131.81 -333.32,287.03 -435.61,468zm1363.45 -310.13c-31.01,36.14 -48.25,87.44 -17.45,127.9 27.3,46.41 94.94,51.65 136.48,84.84 28.21,18.51 48.22,45.96 49.23,76.88 3.94,66.02 -29.48,127.42 -56.92,187.48 -16.81,20.94 -28.23,44.56 -40.1,67.72 -38.84,47.23 -83.38,92.43 -110.51,145.73 -16.39,31.61 -8.35,70.89 27.11,90.78 44.13,25.9 40.27,11.22 80.22,60.14 54.86,64.63 18.72,137.11 -17.66,202.92 -86.38,145.38 -206.76,276.82 -356.08,379.39 175.33,-63.9 317.41,-181.1 432.47,-308.22 104.78,-109.48 123.65,-249.15 94.61,-308.61 -13.6,-25.1 -33.5,-34.78 -54.67,-65.26 -15.69,-31.95 12.93,-41.81 60.83,-113.95 80,-120.03 160.56,-250.29 154.1,-392.43 -2.37,-78.04 -49.93,-167.79 -147.22,-186.36 104.64,-95.77 156.73,-221.27 211.8,-340.86 37.16,-88.75 69.61,-192.8 15.86,-281.74 -40.04,-54.57 -124.55,-66.75 -194.15,-59.88 59.53,-29.32 83.16,-86.98 104.84,-138.97 68.3,-197.14 125.37,-397.91 151.99,-602.41 -117.3,237.65 -200.65,495.95 -399.39,697.17 -44.93,44.14 -87.35,103.56 -65.83,163.68 52.12,53.27 147.03,-6.2 203.19,41.09 25.19,28.8 10.33,67.27 -4.02,97.29 -69.71,132.81 -160.52,256.85 -258.73,375.68zm-2224 118.1c-46.29,-3.34 -94.67,-9.41 -139.5,4.57 -79.51,22.49 -136.12,82.7 -169.01,145.95 -60.13,125.02 -60.9,263.19 -113,390.21 -5.61,18 -17.79,35.73 -11.56,55.2 9.09,-7.96 103.04,-132.78 110.03,-146.31 63.76,-102.06 82.88,-229.57 191.33,-307.6 90.1,-64.77 203.88,32.36 300.61,-12.23 28.97,-17.44 38.47,-58.15 9.58,-79.29 -49.09,-35.78 -116.23,-44.56 -178.48,-50.5zm84.18 507.9c-58.61,-53.32 -146.06,-81.98 -231.46,-76.11 -81.57,7.32 -148.64,52.33 -211.25,93.72 -18.82,22.78 -22.63,24.05 -17.22,33.19l13.43 -14.38c73.4,-44.98 165.11,-94.75 261.49,-74.89 68.49,14.39 123.35,58.51 161.68,107.19 63.64,88.11 88.43,196.02 67.95,298.1 -12.12,104.23 -24.47,211.21 5.94,314.13 15.68,41.73 38.08,81.45 68.97,116.49 4.73,5.3 39.09,48.1 81.92,78.25 51.81,36.48 113.73,61.07 120.7,63.92 100.18,43.25 210.47,68.02 321.89,77.26 102.17,5.8 204.24,10.92 306.19,17.25 109.41,9.41 224.97,28.93 309.51,92.92 116.3,94.94 175.1,239.3 152.52,375.11 -22.06,205.3 -155.26,384.29 -288.2,550.68 -59.89,86.51 -138.14,164.93 -181.82,258.91 -9.94,13.28 -9.24,50.95 19.98,39.54 99.06,-39.69 174.34,-111.12 250.54,-176.23 179.58,-168.89 350.14,-361.54 395.87,-591.69 38.98,-152.18 11.28,-316.42 -83.68,-450.24 -71.96,-106.1 -189.86,-190.65 -328.42,-226.06 -215.17,-58.58 -444.01,-20.62 -664.36,-47.83 -58.9,-17.4 -199.06,-6.32 -293.21,-104.66l-39.84 -54.45c-11.75,-34.32 -18.99,-39.97 -30.89,-77.1 -14.77,-49.11 -18.45,-99.96 -20.73,-150.36 9.98,-22.66 -1.92,-48.26 -1.74,-72.1 7.35,-140.96 -24.96,-296.6 -145.76,-400.56zm914.49 1690.69c-60.05,59.82 -132.88,111.04 -180.33,179.4 -6.86,13.75 -16.96,37.62 5.2,45.88 37.28,3.23 69.04,-19.05 98.08,-35.92 115.13,-76.73 205.1,-180.62 258.6,-296.16 27.08,-63.72 39.24,-133.61 21.9,-200.46 -19.47,120.81 -109.13,220.28 -203.45,307.26zm430.84 -205.11c-19,-21.98 -40.75,4.71 -53.74,16.79 -48.3,54.98 -83.22,117.6 -120.43,178.46 -94.62,170.17 -237.48,316.41 -384.52,455.31 253.96,-129.89 473.17,-328.27 554.85,-575.23 6.69,-24.49 12.64,-50.67 3.84,-75.33zm167.25 951.51c-3.6,31.89 -11.43,72.28 22.52,94.44 27.84,13.69 53.38,-12.82 70.83,-28.18 63.47,-65.99 90.54,-152.92 94.96,-236.96 14.93,-192.65 -22.49,-384.47 -60.6,-573.64 -61.64,245.57 -74.74,497.65 -127.71,744.34zm490.4 -349.2c25.38,87.13 45.69,175.47 72.99,262.21 13.42,40.44 26.56,85.41 70.22,110.42l24.92 -6.54c25.6,-33.2 32.58,-73.25 33.62,-112.21 5.46,-132.49 -37.5,-263.54 -98.27,-384.4 -98.8,-179.01 -242.39,-340.88 -417.67,-470.76 132,188.83 244.98,389.08 314.19,601.28zm418.4 -747.41c-189.01,-91.35 -403.67,-149.24 -622.61,-146.34 294.6,70.81 547.84,226.79 771.63,399.63 78.5,59.48 149.58,126.3 234.46,179.42 21.41,12.68 58.38,29.48 78.65,6.69 12.33,-56.1 -35.26,-105.63 -65.99,-151.62 -102.3,-121.35 -244.56,-214.52 -396.14,-287.78zm-87.1 565.48c46.73,66.17 72.38,141.85 124.56,205.18 17.73,22.67 61.25,20.29 67.82,-8.75 30.93,-96.03 -11.22,-197.86 -68,-280.74 -157.58,-213.77 -410.56,-361.02 -671.64,-471.69 201.57,170.47 403.93,345.41 547.26,556zm464 -782.11c-141.84,-38.78 -292.31,-37.89 -438.94,-53.37 -193.93,-20.89 -387.62,-47.94 -576.9,-90.22 240.19,135.96 520.45,229.17 810.5,242.56 84.14,0.56 180.06,9.64 252.11,-34.22 34.24,-29.49 -15.6,-57.1 -46.77,-64.75z"/>
  <path class="fil1" d="M17614.96 2514.71c-98.38,48.06 -180.51,134.27 -197.95,237.15 -8.66,42.46 -4.99,85.99 2.09,128.44 74.3,-37.72 143.23,-90.52 179.58,-162.12 30.34,-63.91 30.59,-136.05 16.28,-203.47zm-307.46 188.16c91.48,271.6 228.07,533.35 425.35,754.56 125.1,136.93 268.76,259.55 426.19,365.16 25.75,18.9 71.81,29.39 92.74,-1.05 26.81,-24.98 18.06,-67.21 -12.38,-86.02 -104.69,-67.78 -217.52,-128.6 -306.61,-213.9 -27.24,-8.55 -44.98,-30.81 -65.96,-47.5 -224.64,-189.08 -393.17,-428.33 -513.99,-683.22 -12.78,-30.28 -27.62,-59.87 -45.34,-88.03zm520.53 -19.39c-99.14,34.64 -180.94,109.1 -216.04,200.74 -27.49,75.13 -24.93,157.16 -1.11,232.84 64.79,-59.48 122.7,-126.6 160.07,-203.54 32.6,-73.13 48.14,-151.78 57.08,-230.04zm-67.42 851.34c-150.43,-48.27 -317.55,-17.7 -458.61,42.61 76.58,55.06 180.18,81.77 276.12,61.53 71.28,-16 132.63,-56.22 182.49,-104.14zm-181.83 -222.86c-160.17,-57.57 -345.5,-63 -507.11,-5.38 52.04,47.73 125.55,71 196.47,83.82 110.03,20.24 223.87,-16.7 310.64,-78.44zm-194.01 -340.12c-136.96,-74.9 -303.07,-97.9 -459.01,-68.88l3.87 11.44c44.33,37.25 89.68,75.93 147.22,95.71 100.84,39.64 218.05,12.68 307.92,-38.27z"/>
  <path class="fil2" d="M3016.6 1294.7c66.82,1.85 129.46,15.77 187.47,40.83 58,25.52 105.8,57.54 142.92,96.06 37.12,38.51 67.28,81.67 90.95,129 23.67,47.8 37.12,93.73 41.3,138.75 4.17,45.01 -1.39,87.23 -16.71,127.14 -15.77,39.91 -39.9,70.54 -73.78,92.34 -48.72,32.02 -95.13,51.51 -138.28,59.4 -43.62,7.43 -80.74,4.18 -111.83,-9.74 -30.63,-13.92 -55.22,-28.31 -73.78,-43.62 -18.57,-14.85 -34.81,-32.02 -48.26,-51.05 -10.21,-14.38 -15.78,-24.59 -17.17,-31.09 -1.4,-6.49 1.39,-12.53 8.35,-18.09 6.5,-6.04 15.31,-11.61 26.45,-17.17 10.67,-5.57 25.52,-16.24 44.55,-32.02 19.02,-15.78 38.05,-35.73 56.14,-58.93 32.49,-44.55 47.34,-86.32 44.55,-125.76 -2.78,-39.44 -14.85,-72.85 -35.73,-99.3 -21.34,-26.92 -45.47,-42.69 -71.46,-46.87 -17.17,-2.78 -38.98,-2.32 -64.5,1.39 -25.99,3.25 -57.08,13.46 -93.27,30.63 -36.2,16.7 -70.54,38.98 -102.55,67.75 -32.49,28.77 -62.65,70.07 -91.42,125.29 -28.31,54.75 -48.72,117.86 -61.72,189.32 -11.6,52.9 -16.24,102.09 -14.38,148.96 2.32,46.87 6.5,87.7 11.6,122.5 5.57,34.81 15.31,67.29 29.23,96.99 14.39,30.16 26.92,54.75 38.98,74.24 11.6,19.49 25.53,37.13 40.84,52.9 15.31,15.78 26.91,27.38 35.27,33.88 7.88,6.96 15.31,12.06 21.8,15.78 5.11,2.78 14.39,6.03 27.85,9.74 12.99,3.25 22.73,6.5 28.3,9.28 6.04,2.78 11.6,9.28 16.24,19.95 5.11,10.21 2.32,23.67 -8.81,39.91 -20.88,42.69 -51.97,84.46 -93.74,125.29 -41.76,40.37 -85.84,66.82 -133.18,78.42 -23.66,6.5 -49.18,15.32 -77.49,25.99 -27.84,11.14 -59.86,27.38 -95.13,49.19 -35.26,21.34 -67.75,45.94 -97.91,72.39 -29.7,26.91 -56.61,60.32 -80.74,100.69 -24.13,40.37 -40.37,83.06 -48.26,128.54 -21.81,120.65 -12.53,219.02 27.84,295.13 40.37,76.1 103.95,114.61 191.18,115.54 79.35,0.93 145.71,-16.71 199.08,-52.44 52.9,-35.73 91.87,-79.81 117.4,-132.71 25.52,-51.51 57.54,-51.51 96.52,0 20.88,28.31 39.9,66.36 57.07,114.15 26.45,71 37.13,135.5 32.02,193.97 -5.1,58.47 -19.49,109.98 -43.62,154.99 -23.66,45.01 -57.54,83.99 -101.16,116.93 -43.62,32.95 -90.49,59.86 -141.53,80.28 -50.58,20.42 -104.41,35.27 -161.48,45.48 -56.15,8.81 -116.94,6.49 -182.37,-7.43 -64.96,-14.38 -129.46,-41.3 -192.11,-81.2 -63.11,-39.91 -119.72,-88.63 -170.3,-146.17 -50.12,-57.54 -89.09,-129.47 -116.94,-215.78 -27.38,-86.78 -38.05,-179.58 -31.55,-278.42 6.03,-99.31 23.66,-191.65 52.9,-276.57 28.77,-84.45 63.57,-156.38 103.01,-214.84 39.91,-58.47 85.85,-109.98 136.89,-154.99 51.05,-44.55 101.16,-79.35 149.42,-104.41 48.73,-25.06 97.45,-43.62 146.18,-56.61 -53.37,-82.14 -86.78,-170.77 -100.7,-264.97 -13.46,-94.2 -9.75,-183.75 11.6,-268.67 21.35,-84.46 55.22,-166.59 101.16,-245.01 46.4,-78.89 100.23,-146.64 161.95,-203.25 61.71,-57.08 129,-101.62 201.85,-134.57 72.86,-33.41 143.85,-48.72 213,-47.33z"/>
  <path id="_1" class="fil2" d="M4447.68 2879.84c18.56,-10.67 36.66,-16.24 54.75,-16.24 18.1,0 28.31,4.18 30.17,12.53 1.85,7.89 0.46,21.34 -4.18,39.44 -1.86,12.53 -9.28,38.98 -22.27,78.89 -13.46,39.44 -34.81,91.41 -64.97,154.99 -29.7,63.1 -64.04,122.96 -102.55,179.11 -38.52,56.15 -86.78,103.95 -145.24,143.39 -58.47,39.44 -119.73,58 -182.83,55.22 -44.55,-1.86 -82.14,-21.81 -113.23,-59.86 -30.62,-38.05 -52.43,-84.45 -64.96,-138.75 -12.53,-54.29 -21.35,-114.15 -25.06,-179.58 -4.18,-64.96 -4.64,-124.82 -1.39,-178.65 3.24,-53.83 8.35,-101.16 15.31,-142 8.35,-46.86 21.35,-108.58 39.44,-184.68 18.1,-76.1 33.41,-138.75 45.94,-187.94 12.07,-48.72 16.71,-75.17 13.92,-78.88 -2.78,-4.18 -22.27,19.49 -58.47,72.39 -36.19,52.43 -77.02,121.57 -122.96,206.96 -45.48,85.84 -79.35,162.41 -101.16,229.23 -17.17,52.44 -41.77,119.26 -73.32,200.46 -32.02,81.21 -55.69,147.1 -72.39,197.22 -16.24,50.58 -24.13,90.48 -24.13,120.18 0,51.97 -22.27,84.92 -65.89,99.31 -44.09,14.38 -88.17,1.85 -132.72,-38.05 -20.88,-19.03 -38.98,-37.13 -54.29,-54.76 -15.31,-18.1 -31.55,-40.84 -48.26,-69.61 -16.7,-28.3 -29.23,-57.54 -37.59,-86.77 -7.88,-29.7 -12.06,-64.97 -12.06,-106.26 0,-41.3 6.03,-84.46 17.63,-129.93 41.77,-161.95 140.14,-384.23 295.13,-665.89 41.76,-76.11 72.85,-122.97 93.73,-140.14 21.81,-19.03 44.09,-24.6 66.36,-16.24 14.85,5.56 25.52,9.74 32.95,12.99 6.96,3.25 16.24,8.82 26.91,17.63 11.14,8.35 18.1,17.64 21.81,26.92 3.71,9.74 5.1,22.73 4.64,38.97 -0.46,16.25 -4.64,35.27 -12.53,57.08 -1.85,4.64 -9.28,23.67 -21.81,57.54 -12.99,34.34 -22.74,61.25 -30.16,81.67 -6.96,20.42 -17.17,49.19 -30.63,86.31 -12.99,37.12 -23.66,69.61 -32.48,97.45 -8.82,27.38 -17.63,57.54 -26.45,89.56 -9.28,32.02 -16.24,60.79 -21.81,86.31 -5.57,25.52 -8.81,47.33 -9.28,65.43 8.82,-20.88 23.67,-56.15 44.55,-105.34 20.88,-49.65 35.73,-83.99 44.08,-103.94 8.82,-19.96 21.81,-50.12 39.44,-90.02 17.64,-39.91 31.56,-69.15 40.84,-88.17 9.74,-19.03 22.27,-43.62 38.05,-74.25 15.78,-30.16 29.7,-54.29 40.84,-71.46 11.6,-17.17 24.13,-34.8 38.05,-53.36 13.92,-18.56 27.84,-34.81 41.76,-48.26 27.84,-27.38 65.43,-46.87 112.76,-58.47 46.87,-12.07 92.34,-14.85 135.96,-8.82 43.16,5.57 78.42,25.52 105.34,59.4 26.45,34.34 34.34,78.89 22.27,134.11 -5.57,23.66 -13.92,59.39 -25.06,106.72 -11.13,47.8 -20.41,87.71 -27.37,119.72 -6.5,32.02 -13.92,70.07 -22.28,114.16 -8.35,44.08 -12.53,80.74 -12.99,109.97 -0.46,29.7 1.39,58.47 5.57,87.24 4.17,28.31 13.45,50.58 28.3,65.89 15.32,15.32 34.81,24.6 59.4,26.92 35.27,3.71 74.71,-6.96 118.33,-31.56 43.15,-25.05 74.71,-55.68 93.73,-91.87 4.64,-10.21 16.25,-20.42 34.81,-31.56z"/>
  <path id="_2" class="fil2" d="M5928.87 1778.69c68.68,-17.17 127.14,-23.21 174.48,-19.03 47.79,4.64 85.38,17.17 113.68,36.66 27.85,19.95 47.8,44.55 58.94,73.78 11.6,28.77 15.31,58.47 12.06,89.1 -2.78,30.16 -12.06,58.46 -27.84,84.91 -23.2,38.98 -46.87,66.83 -70.53,83.99 -23.67,17.17 -42.23,25.06 -56.62,22.74 -13.92,-2.32 -22.73,-9.74 -26.45,-22.74 -4.17,-15.31 -10.67,-28.3 -18.09,-39.44 -7.89,-10.67 -25.99,-23.2 -54.3,-37.12 -28.77,-13.92 -66.35,-24.13 -113.68,-30.63 -61.72,-8.35 -105.34,-5.57 -130.4,7.89 -94.2,245.01 -154.99,430.16 -182.36,556.38 -18.1,89.56 -25.53,166.59 -22.28,231.09 3.25,64.04 14.39,114.15 33.88,149.42 19.49,35.26 44.08,52.43 74.24,51.51 52.44,-1.86 106.73,-10.21 162.42,-25.53 55.68,-15.77 100.23,-38.05 133.64,-68.21 1.85,-1.86 6.96,-6.5 14.38,-14.85 7.89,-8.35 14.39,-14.85 20.42,-20.42 6.03,-5.56 12.99,-10.67 21.81,-15.77 8.82,-4.64 16.24,-7.43 22.27,-7.43 3.72,0 7.43,0 11.6,0 4.18,0 7.43,0 9.75,0 2.32,0 4.64,0 7.89,0 3.25,0 5.57,0.47 6.49,0.93 0.47,0.46 1.86,0.93 3.25,1.86 1.39,0.92 1.86,2.32 1.39,4.17 -0.46,1.86 -0.92,4.18 -0.92,6.96 -1.86,7.89 -6.5,22.74 -14.85,44.09 -7.89,21.34 -21.81,53.82 -41.3,97.91 -19.49,43.62 -41.3,88.16 -65.43,132.25 -24.13,44.55 -54.29,91.41 -90.49,140.14 -36.19,49.18 -74.24,91.88 -114.15,128.53 -39.91,36.66 -85.85,66.83 -138.75,89.56 -52.43,23.2 -106.26,33.88 -161.48,32.02 -77.03,-2.78 -138.28,-26.91 -183.76,-73.32 -45.01,-46.4 -74.24,-103.01 -86.77,-170.76 -13,-67.29 -15.78,-143.39 -8.82,-228.31 6.5,-84.91 19.49,-164.26 38.05,-239.44 18.56,-74.71 40.37,-144.31 65.89,-208.35 49.66,-129 123.44,-312.76 221.35,-552.2 -55.22,10.21 -98.84,19.49 -130.4,28.77 -37.12,9.74 -68.67,16.24 -94.66,19.02 -25.52,2.79 -46.4,1.4 -62.18,-4.17 -15.78,-5.57 -27.84,-11.14 -35.27,-17.64 -7.88,-6.49 -17.16,-15.77 -28.3,-28.77 -25.06,-30.62 8.81,-64.96 102.09,-103.01 68.21,-27.38 180.04,-62.18 335.96,-104.87 48.72,-117.87 78.42,-187.47 88.16,-209.28 11.14,-24.6 22.28,-44.55 33.88,-59.86 12.06,-15.32 25.06,-26.45 38.98,-32.49 13.92,-6.49 25.06,-10.67 32.48,-12.53 7.89,-1.39 19.49,-1.85 35.27,-0.92 16.24,0.46 25.52,0.92 28.3,0.92 36.2,-0.92 58.01,14.85 66.36,46.87 8.35,32.48 1.86,71.93 -19.03,119.26 -1.85,4.64 -4.17,10.21 -7.42,17.63 -3.25,7.43 -7.42,16.71 -12.07,28.31 -5.1,12.06 -9.28,22.27 -12.99,31.55 5.11,-1.85 12.99,-3.71 22.28,-6.03 9.74,-2.32 16.24,-4.18 19.95,-5.1z"/>
  <path id="_3" class="fil2" d="M6719.59 2870.56c2.78,0 6.96,-0.46 12.52,-0.93 5.11,0 9.75,-0.46 13,-0.46 2.78,0 6.96,0.46 12.06,0.46 5.11,0.47 8.36,1.39 10.21,2.79 1.86,1.39 4.18,3.24 7.43,5.1 3.24,1.86 4.17,4.18 3.24,7.89 -0.92,3.71 -1.39,8.35 -1.39,13.46 -4.17,16.7 -14.38,44.08 -30.62,83.06 -15.78,38.98 -41.3,91.88 -76.57,158.23 -35.27,66.83 -73.32,128.08 -114.15,184.23 -40.84,56.61 -90.03,103.94 -148.03,142.92 -58,38.98 -116.01,55.22 -174.01,49.19 -74.71,-8.36 -135.04,-36.2 -180.98,-83.07 -46.4,-47.33 -75.63,-105.33 -87.7,-174.94 -12.06,-69.14 -12.53,-145.24 -0.93,-227.37 12.07,-82.6 35.73,-164.27 71,-245.01 139.67,-320.65 219.02,-496.99 238.98,-528.54 17.63,-26.45 41.76,-46.87 73.78,-61.25 31.55,-14.39 64.04,-20.88 97.91,-19.03 14.39,0.93 27.38,3.71 38.52,8.82 11.13,5.1 21.81,13.46 32.01,25.06 9.75,11.6 14.85,27.84 14.39,48.26 -0.46,20.41 -5.57,46.4 -14.39,77.95 -3.71,11.14 -12.52,35.73 -27.37,74.25 -14.39,38.51 -27.85,74.71 -39.91,109.05 -12.07,33.87 -25.99,74.71 -40.84,122.97 -14.84,47.79 -26.45,91.41 -33.87,130.39 -7.89,38.98 -12.99,77.03 -15.78,114.62 -2.78,38.05 0.93,69.14 10.68,94.2 10.2,24.59 25.98,41.76 47.79,50.58 33.41,13.92 74.71,6.49 122.97,-22.28 48.72,-28.3 92.34,-65.43 131.32,-110.9 0.93,-0.93 2.79,-2.79 6.03,-6.5 3.25,-3.71 5.11,-6.03 6.04,-7.42 0.93,-1.39 3.25,-3.25 6.03,-5.57 3.25,-2.32 6.5,-4.18 8.82,-5.57 2.78,-1.39 6.03,-2.32 9.74,-3.25 3.71,-0.93 7.89,-1.39 12.07,-1.39zm-252.9 -802.32c-30.63,-2.32 -51.98,-21.34 -64.5,-57.07 -12.07,-35.27 -7.89,-87.7 12.99,-157.31 24.59,-70.07 45.94,-115.08 64.04,-135.5 18.09,-20.42 45.01,-29.23 81.67,-26.45 33.41,2.79 55.68,24.13 67.28,64.5 11.14,40.37 8.82,90.03 -7.42,148.96 -15.78,55.22 -38.05,96.98 -66.82,124.82 -29.24,28.31 -58.01,40.84 -87.24,38.05z"/>
  <path id="_4" class="fil3 str0" d="M3016.6 1294.7c66.82,1.85 129.46,15.77 187.47,40.83 58,25.52 105.8,57.54 142.92,96.06 37.12,38.51 67.28,81.67 90.95,129 23.67,47.8 37.12,93.73 41.3,138.75 4.17,45.01 -1.39,87.23 -16.71,127.14 -15.77,39.91 -39.9,70.54 -73.78,92.34 -48.72,32.02 -95.13,51.51 -138.28,59.4 -43.62,7.43 -80.74,4.18 -111.83,-9.74 -30.63,-13.92 -55.22,-28.31 -73.78,-43.62 -18.57,-14.85 -34.81,-32.02 -48.26,-51.05 -10.21,-14.38 -15.78,-24.59 -17.17,-31.09 -1.4,-6.49 1.39,-12.53 8.35,-18.09 6.5,-6.04 15.31,-11.61 26.45,-17.17 10.67,-5.57 25.52,-16.24 44.55,-32.02 19.02,-15.78 38.05,-35.73 56.14,-58.93 32.49,-44.55 47.34,-86.32 44.55,-125.76 -2.78,-39.44 -14.85,-72.85 -35.73,-99.3 -21.34,-26.92 -45.47,-42.69 -71.46,-46.87 -17.17,-2.78 -38.98,-2.32 -64.5,1.39 -25.99,3.25 -57.08,13.46 -93.27,30.63 -36.2,16.7 -70.54,38.98 -102.55,67.75 -32.49,28.77 -62.65,70.07 -91.42,125.29 -28.31,54.75 -48.72,117.86 -61.72,189.32 -11.6,52.9 -16.24,102.09 -14.38,148.96 2.32,46.87 6.5,87.7 11.6,122.5 5.57,34.81 15.31,67.29 29.23,96.99 14.39,30.16 26.92,54.75 38.98,74.24 11.6,19.49 25.53,37.13 40.84,52.9 15.31,15.78 26.91,27.38 35.27,33.88 7.88,6.96 15.31,12.06 21.8,15.78 5.11,2.78 14.39,6.03 27.85,9.74 12.99,3.25 22.73,6.5 28.3,9.28 6.04,2.78 11.6,9.28 16.24,19.95 5.11,10.21 2.32,23.67 -8.81,39.91 -20.88,42.69 -51.97,84.46 -93.74,125.29 -41.76,40.37 -85.84,66.82 -133.18,78.42 -23.66,6.5 -49.18,15.32 -77.49,25.99 -27.84,11.14 -59.86,27.38 -95.13,49.19 -35.26,21.34 -67.75,45.94 -97.91,72.39 -29.7,26.91 -56.61,60.32 -80.74,100.69 -24.13,40.37 -40.37,83.06 -48.26,128.54 -21.81,120.65 -12.53,219.02 27.84,295.13 40.37,76.1 103.95,114.61 191.18,115.54 79.35,0.93 145.71,-16.71 199.08,-52.44 52.9,-35.73 91.87,-79.81 117.4,-132.71 25.52,-51.51 57.54,-51.51 96.52,0 20.88,28.31 39.9,66.36 57.07,114.15 26.45,71 37.13,135.5 32.02,193.97 -5.1,58.47 -19.49,109.98 -43.62,154.99 -23.66,45.01 -57.54,83.99 -101.16,116.93 -43.62,32.95 -90.49,59.86 -141.53,80.28 -50.58,20.42 -104.41,35.27 -161.48,45.48 -56.15,8.81 -116.94,6.49 -182.37,-7.43 -64.96,-14.38 -129.46,-41.3 -192.11,-81.2 -63.11,-39.91 -119.72,-88.63 -170.3,-146.17 -50.12,-57.54 -89.09,-129.47 -116.94,-215.78 -27.38,-86.78 -38.05,-179.58 -31.55,-278.42 6.03,-99.31 23.66,-191.65 52.9,-276.57 28.77,-84.45 63.57,-156.38 103.01,-214.84 39.91,-58.47 85.85,-109.98 136.89,-154.99 51.05,-44.55 101.16,-79.35 149.42,-104.41 48.73,-25.06 97.45,-43.62 146.18,-56.61 -53.37,-82.14 -86.78,-170.77 -100.7,-264.97 -13.46,-94.2 -9.75,-183.75 11.6,-268.67 21.35,-84.46 55.22,-166.59 101.16,-245.01 46.4,-78.89 100.23,-146.64 161.95,-203.25 61.71,-57.08 129,-101.62 201.85,-134.57 72.86,-33.41 143.85,-48.72 213,-47.33z"/>
  <path id="_5" class="fil3 str0" d="M4447.68 2879.84c18.56,-10.67 36.66,-16.24 54.75,-16.24 18.1,0 28.31,4.18 30.17,12.53 1.85,7.89 0.46,21.34 -4.18,39.44 -1.86,12.53 -9.28,38.98 -22.27,78.89 -13.46,39.44 -34.81,91.41 -64.97,154.99 -29.7,63.1 -64.04,122.96 -102.55,179.11 -38.52,56.15 -86.78,103.95 -145.24,143.39 -58.47,39.44 -119.73,58 -182.83,55.22 -44.55,-1.86 -82.14,-21.81 -113.23,-59.86 -30.62,-38.05 -52.43,-84.45 -64.96,-138.75 -12.53,-54.29 -21.35,-114.15 -25.06,-179.58 -4.18,-64.96 -4.64,-124.82 -1.39,-178.65 3.24,-53.83 8.35,-101.16 15.31,-142 8.35,-46.86 21.35,-108.58 39.44,-184.68 18.1,-76.1 33.41,-138.75 45.94,-187.94 12.07,-48.72 16.71,-75.17 13.92,-78.88 -2.78,-4.18 -22.27,19.49 -58.47,72.39 -36.19,52.43 -77.02,121.57 -122.96,206.96 -45.48,85.84 -79.35,162.41 -101.16,229.23 -17.17,52.44 -41.77,119.26 -73.32,200.46 -32.02,81.21 -55.69,147.1 -72.39,197.22 -16.24,50.58 -24.13,90.48 -24.13,120.18 0,51.97 -22.27,84.92 -65.89,99.31 -44.09,14.38 -88.17,1.85 -132.72,-38.05 -20.88,-19.03 -38.98,-37.13 -54.29,-54.76 -15.31,-18.1 -31.55,-40.84 -48.26,-69.61 -16.7,-28.3 -29.23,-57.54 -37.59,-86.77 -7.88,-29.7 -12.06,-64.97 -12.06,-106.26 0,-41.3 6.03,-84.46 17.63,-129.93 41.77,-161.95 140.14,-384.23 295.13,-665.89 41.76,-76.11 72.85,-122.97 93.73,-140.14 21.81,-19.03 44.09,-24.6 66.36,-16.24 14.85,5.56 25.52,9.74 32.95,12.99 6.96,3.25 16.24,8.82 26.91,17.63 11.14,8.35 18.1,17.64 21.81,26.92 3.71,9.74 5.1,22.73 4.64,38.97 -0.46,16.25 -4.64,35.27 -12.53,57.08 -1.85,4.64 -9.28,23.67 -21.81,57.54 -12.99,34.34 -22.74,61.25 -30.16,81.67 -6.96,20.42 -17.17,49.19 -30.63,86.31 -12.99,37.12 -23.66,69.61 -32.48,97.45 -8.82,27.38 -17.63,57.54 -26.45,89.56 -9.28,32.02 -16.24,60.79 -21.81,86.31 -5.57,25.52 -8.81,47.33 -9.28,65.43 8.82,-20.88 23.67,-56.15 44.55,-105.34 20.88,-49.65 35.73,-83.99 44.08,-103.94 8.82,-19.96 21.81,-50.12 39.44,-90.02 17.64,-39.91 31.56,-69.15 40.84,-88.17 9.74,-19.03 22.27,-43.62 38.05,-74.25 15.78,-30.16 29.7,-54.29 40.84,-71.46 11.6,-17.17 24.13,-34.8 38.05,-53.36 13.92,-18.56 27.84,-34.81 41.76,-48.26 27.84,-27.38 65.43,-46.87 112.76,-58.47 46.87,-12.07 92.34,-14.85 135.96,-8.82 43.16,5.57 78.42,25.52 105.34,59.4 26.45,34.34 34.34,78.89 22.27,134.11 -5.57,23.66 -13.92,59.39 -25.06,106.72 -11.13,47.8 -20.41,87.71 -27.37,119.72 -6.5,32.02 -13.92,70.07 -22.28,114.16 -8.35,44.08 -12.53,80.74 -12.99,109.97 -0.46,29.7 1.39,58.47 5.57,87.24 4.17,28.31 13.45,50.58 28.3,65.89 15.32,15.32 34.81,24.6 59.4,26.92 35.27,3.71 74.71,-6.96 118.33,-31.56 43.15,-25.05 74.71,-55.68 93.73,-91.87 4.64,-10.21 16.25,-20.42 34.81,-31.56z"/>
  <path id="_6" class="fil3 str0" d="M5928.87 1778.69c68.68,-17.17 127.14,-23.21 174.48,-19.03 47.79,4.64 85.38,17.17 113.68,36.66 27.85,19.95 47.8,44.55 58.94,73.78 11.6,28.77 15.31,58.47 12.06,89.1 -2.78,30.16 -12.06,58.46 -27.84,84.91 -23.2,38.98 -46.87,66.83 -70.53,83.99 -23.67,17.17 -42.23,25.06 -56.62,22.74 -13.92,-2.32 -22.73,-9.74 -26.45,-22.74 -4.17,-15.31 -10.67,-28.3 -18.09,-39.44 -7.89,-10.67 -25.99,-23.2 -54.3,-37.12 -28.77,-13.92 -66.35,-24.13 -113.68,-30.63 -61.72,-8.35 -105.34,-5.57 -130.4,7.89 -94.2,245.01 -154.99,430.16 -182.36,556.38 -18.1,89.56 -25.53,166.59 -22.28,231.09 3.25,64.04 14.39,114.15 33.88,149.42 19.49,35.26 44.08,52.43 74.24,51.51 52.44,-1.86 106.73,-10.21 162.42,-25.53 55.68,-15.77 100.23,-38.05 133.64,-68.21 1.85,-1.86 6.96,-6.5 14.38,-14.85 7.89,-8.35 14.39,-14.85 20.42,-20.42 6.03,-5.56 12.99,-10.67 21.81,-15.77 8.82,-4.64 16.24,-7.43 22.27,-7.43 3.72,0 7.43,0 11.6,0 4.18,0 7.43,0 9.75,0 2.32,0 4.64,0 7.89,0 3.25,0 5.57,0.47 6.49,0.93 0.47,0.46 1.86,0.93 3.25,1.86 1.39,0.92 1.86,2.32 1.39,4.17 -0.46,1.86 -0.92,4.18 -0.92,6.96 -1.86,7.89 -6.5,22.74 -14.85,44.09 -7.89,21.34 -21.81,53.82 -41.3,97.91 -19.49,43.62 -41.3,88.16 -65.43,132.25 -24.13,44.55 -54.29,91.41 -90.49,140.14 -36.19,49.18 -74.24,91.88 -114.15,128.53 -39.91,36.66 -85.85,66.83 -138.75,89.56 -52.43,23.2 -106.26,33.88 -161.48,32.02 -77.03,-2.78 -138.28,-26.91 -183.76,-73.32 -45.01,-46.4 -74.24,-103.01 -86.77,-170.76 -13,-67.29 -15.78,-143.39 -8.82,-228.31 6.5,-84.91 19.49,-164.26 38.05,-239.44 18.56,-74.71 40.37,-144.31 65.89,-208.35 49.66,-129 123.44,-312.76 221.35,-552.2 -55.22,10.21 -98.84,19.49 -130.4,28.77 -37.12,9.74 -68.67,16.24 -94.66,19.02 -25.52,2.79 -46.4,1.4 -62.18,-4.17 -15.78,-5.57 -27.84,-11.14 -35.27,-17.64 -7.88,-6.49 -17.16,-15.77 -28.3,-28.77 -25.06,-30.62 8.81,-64.96 102.09,-103.01 68.21,-27.38 180.04,-62.18 335.96,-104.87 48.72,-117.87 78.42,-187.47 88.16,-209.28 11.14,-24.6 22.28,-44.55 33.88,-59.86 12.06,-15.32 25.06,-26.45 38.98,-32.49 13.92,-6.49 25.06,-10.67 32.48,-12.53 7.89,-1.39 19.49,-1.85 35.27,-0.92 16.24,0.46 25.52,0.92 28.3,0.92 36.2,-0.92 58.01,14.85 66.36,46.87 8.35,32.48 1.86,71.93 -19.03,119.26 -1.85,4.64 -4.17,10.21 -7.42,17.63 -3.25,7.43 -7.42,16.71 -12.07,28.31 -5.1,12.06 -9.28,22.27 -12.99,31.55 5.11,-1.85 12.99,-3.71 22.28,-6.03 9.74,-2.32 16.24,-4.18 19.95,-5.1z"/>
  <path id="_7" class="fil3 str0" d="M6719.59 2870.56c2.78,0 6.96,-0.46 12.52,-0.93 5.11,0 9.75,-0.46 13,-0.46 2.78,0 6.96,0.46 12.06,0.46 5.11,0.47 8.36,1.39 10.21,2.79 1.86,1.39 4.18,3.24 7.43,5.1 3.24,1.86 4.17,4.18 3.24,7.89 -0.92,3.71 -1.39,8.35 -1.39,13.46 -4.17,16.7 -14.38,44.08 -30.62,83.06 -15.78,38.98 -41.3,91.88 -76.57,158.23 -35.27,66.83 -73.32,128.08 -114.15,184.23 -40.84,56.61 -90.03,103.94 -148.03,142.92 -58,38.98 -116.01,55.22 -174.01,49.19 -74.71,-8.36 -135.04,-36.2 -180.98,-83.07 -46.4,-47.33 -75.63,-105.33 -87.7,-174.94 -12.06,-69.14 -12.53,-145.24 -0.93,-227.37 12.07,-82.6 35.73,-164.27 71,-245.01 139.67,-320.65 219.02,-496.99 238.98,-528.54 17.63,-26.45 41.76,-46.87 73.78,-61.25 31.55,-14.39 64.04,-20.88 97.91,-19.03 14.39,0.93 27.38,3.71 38.52,8.82 11.13,5.1 21.81,13.46 32.01,25.06 9.75,11.6 14.85,27.84 14.39,48.26 -0.46,20.41 -5.57,46.4 -14.39,77.95 -3.71,11.14 -12.52,35.73 -27.37,74.25 -14.39,38.51 -27.85,74.71 -39.91,109.05 -12.07,33.87 -25.99,74.71 -40.84,122.97 -14.84,47.79 -26.45,91.41 -33.87,130.39 -7.89,38.98 -12.99,77.03 -15.78,114.62 -2.78,38.05 0.93,69.14 10.68,94.2 10.2,24.59 25.98,41.76 47.79,50.58 33.41,13.92 74.71,6.49 122.97,-22.28 48.72,-28.3 92.34,-65.43 131.32,-110.9 0.93,-0.93 2.79,-2.79 6.03,-6.5 3.25,-3.71 5.11,-6.03 6.04,-7.42 0.93,-1.39 3.25,-3.25 6.03,-5.57 3.25,-2.32 6.5,-4.18 8.82,-5.57 2.78,-1.39 6.03,-2.32 9.74,-3.25 3.71,-0.93 7.89,-1.39 12.07,-1.39zm-252.9 -802.32c-30.63,-2.32 -51.98,-21.34 -64.5,-57.07 -12.07,-35.27 -7.89,-87.7 12.99,-157.31 24.59,-70.07 45.94,-115.08 64.04,-135.5 18.09,-20.42 45.01,-29.23 81.67,-26.45 33.41,2.79 55.68,24.13 67.28,64.5 11.14,40.37 8.82,90.03 -7.42,148.96 -15.78,55.22 -38.05,96.98 -66.82,124.82 -29.24,28.31 -58.01,40.84 -87.24,38.05z"/>
  <path class="fil4" d="M3401.69 4477.48c-250.01,12.65 -478.97,53.76 -686.89,123.33 -207.9,69.58 -382.65,181.05 -524.24,334.43 -141.58,153.38 -243.63,357.36 -306.13,611.93 -62.5,254.58 -73.35,573.19 -32.53,955.85 12.76,6.33 28.07,11.86 45.92,16.6 17.86,4.75 33.17,11.86 45.92,21.35 38.27,25.3 52.3,54.55 42.1,87.76 -10.21,33.2 -29.34,56.92 -57.41,71.15 -28.05,14.23 -58.67,9.49 -91.84,-14.23 -33.16,-23.72 -54.84,-83.01 -65.05,-177.89 -45.92,-430.09 -28.06,-784.28 53.57,-1062.58 81.64,-278.29 209.83,-497.29 384.58,-656.99 174.75,-159.71 388.4,-269.6 640.96,-329.69 252.56,-60.08 528.08,-86.96 826.56,-80.64 28.06,-12.65 61.86,-21.35 101.4,-26.09 39.54,-4.74 73.34,-3.95 101.41,2.37 30.61,9.49 50.38,25.3 59.31,47.44 8.93,22.14 9.57,44.27 1.92,66.41 -7.66,22.14 -20.41,40.32 -38.27,54.55 -17.86,14.23 -36.99,15.02 -57.4,2.37 -99.5,-56.92 -179.21,-52.97 -239.16,11.86 -59.96,64.83 -109.07,174.73 -147.33,329.69 -38.27,154.96 -69.52,343.91 -93.75,566.86 -24.24,222.96 -47.84,464.09 -70.8,723.41 40.82,-177.09 91.21,-360.52 151.15,-550.26 59.95,-189.75 131.39,-362.1 214.3,-517.06 82.91,-154.96 179.21,-281.46 288.91,-379.49 109.69,-98.04 235.97,-147.06 378.84,-147.06 125,0 232.78,37.16 323.35,111.48 90.56,74.32 160.71,170.77 210.46,289.36 49.75,118.59 79.08,253 88.01,403.21 8.93,150.22 -5.74,303.6 -44,460.14 -38.27,156.54 -100.78,308.34 -187.51,455.39 -86.73,147.05 -200.26,276.71 -340.57,388.98 -140.31,112.27 -307.41,199.23 -501.29,260.9 -193.88,61.67 -418.37,86.18 -673.49,73.53 -25.5,192.91 -56.12,383.44 -91.84,571.61 -35.71,188.16 -79.71,366.05 -132.01,533.66 -52.3,167.61 -114.8,323.36 -187.51,467.25 -72.7,143.89 -157.53,267.23 -254.47,370.01 -96.94,102.78 -207.91,183.42 -332.91,241.92 -125.01,58.51 -266.6,86.18 -424.76,83.02 -158.17,-3.16 -295.29,-40.32 -411.36,-111.48 -116.08,-71.15 -211.11,-165.24 -285.09,-282.25 -73.98,-117.01 -127.56,-249.83 -160.72,-398.46 -33.16,-148.64 -46.55,-299.64 -40.18,-453.02 6.38,-153.38 31.89,-303.6 76.54,-450.65 44.64,-147.05 107.14,-278.3 187.5,-393.72 80.36,-115.43 179.85,-207.94 298.48,-277.51 118.62,-69.57 254.46,-104.36 407.53,-104.36 125.01,0 237.26,33.21 336.75,99.62 99.49,66.41 167.09,167.61 202.81,303.59 10.21,31.63 16.58,59.3 19.13,83.02 2.56,23.71 3.83,45.06 3.83,64.04 0,41.11 -8.29,68.78 -24.88,83.01 -16.58,14.23 -34.44,19.76 -53.57,16.6 -19.13,-3.16 -35.71,-14.23 -49.74,-33.2 -14.04,-18.98 -18.5,-42.7 -13.4,-71.16 5.11,-18.97 13.4,-43.48 24.88,-73.53 11.48,-30.04 14.66,-54.55 9.57,-73.52 -35.72,-101.2 -92.48,-177.89 -170.29,-230.07 -77.81,-52.18 -165.19,-78.27 -262.13,-78.27 -165.82,0 -305.49,54.55 -419.01,163.66 -113.53,109.89 -201.54,245.88 -264.04,409.53 -62.5,162.87 -98.22,338.38 -107.14,527.34 -8.93,188.16 10.2,364.47 57.39,527.34 47.2,163.65 123.09,298.85 227.69,407.16 104.59,107.52 239.8,161.28 405.62,161.28 150.51,0 274.88,-56.13 373.09,-168.4 98.23,-112.26 178.58,-264.06 241.08,-453.81 62.5,-189.74 113.53,-408.74 153.07,-657.78 39.54,-248.25 74.62,-505.99 105.23,-774.01 30.62,-267.23 62.5,-534.45 95.67,-802.47 33.16,-267.23 77.17,-517.06 132.02,-750.29 54.84,-232.44 123.73,-437.21 206.64,-614.3 82.91,-177.89 189.42,-307.55 319.52,-389.77zm-179.85 2428.75c155.61,3.16 294.01,-26.88 415.19,-90.13 121.17,-63.25 227.68,-147.84 319.52,-253.78 91.84,-105.95 169.64,-226.12 233.43,-360.52 63.78,-134.41 114.16,-271.18 151.15,-410.33 36.99,-139.15 62.5,-275.92 76.53,-410.33 14.03,-134.4 17.22,-252.2 9.56,-353.4 -7.64,-101.2 -24.87,-181.84 -51.66,-241.92 -26.78,-60.09 -61.86,-86.97 -105.23,-80.65 -107.14,18.98 -202.81,65.62 -286.99,139.94 -84.19,74.32 -160.08,167.61 -227.69,279.88 -67.6,112.26 -127.55,237.18 -179.85,374.75 -52.3,137.56 -98.22,276.71 -137.76,417.44 -39.54,140.73 -73.34,278.29 -101.4,412.7 -28.07,134.4 -52.3,255.36 -72.71,362.89 -7.66,37.95 -14.67,74.31 -21.05,109.1 -6.38,34.79 -13.39,69.57 -21.04,104.36z"/>
  <path id="_1_0" class="fil4" d="M6195.13 7299.96c2.55,-9.49 8.29,-17.4 17.22,-23.72 8.93,-6.33 17.85,-8.7 26.78,-7.12 8.93,1.58 17.23,5.54 24.88,11.86 7.65,6.33 10.21,15.81 7.65,28.46 -15.3,75.9 -36.99,171.56 -65.05,286.99 -28.07,115.43 -61.23,235.61 -99.49,360.52 -38.27,124.92 -82.27,250.63 -132.02,377.12 -49.75,126.5 -105.87,239.56 -168.37,339.17 -62.51,99.62 -130.75,181.84 -204.73,246.67 -73.98,64.83 -153.06,97.25 -237.25,97.25 -135.21,0 -242.36,-32.42 -321.44,-97.25 -79.08,-64.83 -137.12,-150.21 -174.11,-256.15 -36.99,-105.94 -57.4,-227.7 -61.23,-365.26 -3.82,-137.57 1.28,-279.88 15.31,-426.93 14.03,-147.06 33.8,-292.53 59.32,-436.42 25.5,-143.89 48.46,-277.5 68.87,-400.84 43.37,-278.29 89.93,-555.8 139.67,-832.51 49.75,-276.72 98.86,-538.41 147.33,-785.08 28.06,-151.8 68.24,-281.46 120.54,-388.98 52.3,-107.52 110.34,-196.07 174.11,-265.64 63.78,-69.58 130.74,-120.18 200.9,-151.8 70.16,-31.62 139.67,-45.86 208.55,-42.69 94.39,6.32 178.58,42.69 252.56,109.1 73.98,66.41 125,162.87 153.07,288.57 15.3,72.74 20.41,149.43 15.3,230.07 -5.1,80.64 -17.22,163.66 -36.35,249.04 -19.13,85.39 -43.37,170.78 -72.71,255.37 -29.34,85.39 -59.31,167.61 -89.93,246.67 -56.12,135.99 -117.34,272.76 -183.67,409.54 -66.33,137.56 -133.3,266.43 -200.9,386.61 -67.6,120.17 -131.38,227.69 -191.33,321.77 -59.96,94.88 -110.34,167.61 -151.15,218.21 -12.76,82.23 -24.88,162.87 -36.36,241.93 -11.48,79.06 -23.59,156.54 -36.35,231.65 -15.31,117.01 -28.06,238.76 -38.27,365.26 -10.2,126.5 -14.66,242.72 -13.39,348.66 1.28,105.15 12.12,192.12 32.53,260.11 20.41,67.99 54.84,101.99 103.32,101.99 56.12,-3.17 111.6,-34.79 166.46,-94.88 54.84,-60.08 108.42,-136.77 160.71,-230.06 52.3,-93.3 100.77,-197.66 145.42,-313.09 44.64,-115.42 85.46,-229.27 122.45,-341.54 36.99,-112.27 68.24,-217.42 93.75,-315.45 25.51,-98.04 44.64,-177.1 57.4,-237.18zm-367.36 -2063.5c-35.72,91.71 -68.88,196.86 -99.49,315.46 -30.62,118.59 -58.67,241.92 -84.19,370 -25.51,128.08 -47.83,255.37 -66.96,381.87 -19.14,126.49 -36.36,244.29 -51.66,353.4 -15.31,109.1 -28.07,203.98 -38.27,284.62 -10.21,80.64 -17.85,138.36 -22.96,173.14 43.37,-63.25 91.84,-139.94 145.41,-230.07 53.58,-90.12 108.42,-187.37 164.55,-291.73 56.12,-104.36 111.61,-214.26 166.46,-329.68 54.85,-115.43 105.23,-230.07 151.15,-343.92 10.2,-28.46 23.59,-64.04 40.18,-106.73 16.58,-42.7 32.52,-89.34 47.84,-139.94 15.3,-50.6 29.96,-103.57 44,-158.91 14.03,-55.35 23.6,-109.9 28.7,-163.66 15.3,-120.17 6.37,-207.93 -26.79,-263.27 -33.16,-55.34 -75.25,-84.6 -126.28,-87.76 -48.47,-3.16 -98.21,16.6 -149.23,59.3 -51.03,42.69 -91.84,101.98 -122.46,177.88z"/>
  <path id="_2_1" class="fil4" d="M7733.43 7299.96c5.11,-22.14 20.41,-32.42 45.93,-30.84 25.51,1.58 35.71,15.02 30.6,40.32 -22.95,113.85 -53.57,237.98 -91.83,372.38 -38.27,134.4 -83.55,268.81 -135.85,403.21 -52.29,134.4 -112.25,264.06 -179.85,388.98 -67.6,124.92 -142.86,235.6 -225.77,332.06 -82.91,97.24 -173.48,173.93 -271.69,230.06 -98.22,56.93 -204.73,82.23 -319.53,75.9 -168.37,-9.48 -302.3,-56.92 -401.79,-142.31 -99.5,-85.38 -170.28,-194.49 -212.38,-327.31 -42.09,-132.82 -58.67,-280.67 -49.74,-443.53 8.93,-162.87 37.62,-326.52 86.09,-490.97 45.92,-154.96 107.78,-298.85 185.6,-431.67 77.8,-132.83 170.28,-241.93 277.42,-327.32 66.34,-50.59 139.04,-90.92 218.12,-120.96 79.09,-30.04 156.89,-43.48 233.43,-40.32 53.57,3.16 104.6,16.6 153.06,40.32 48.48,23.72 89.29,56.92 122.46,99.62 33.16,42.69 58.03,93.29 74.61,151.79 16.59,58.51 21.05,122.55 13.4,192.12 -12.76,110.69 -44.65,204.77 -95.67,282.25 -51.02,77.48 -113.52,140.73 -187.5,189.75 -73.99,49.02 -154.98,84.59 -242.99,106.73 -88.01,22.14 -172.84,34.79 -254.47,37.95 -30.62,128.87 -53.57,255.37 -68.88,377.91 -15.31,122.55 -19.14,232.44 -11.48,330.48 7.65,97.24 29.97,177.09 66.96,238.76 36.99,60.88 91.2,91.71 162.63,91.71 102.05,3.16 196.44,-22.14 283.17,-75.9 86.74,-53.76 167.1,-124.12 241.08,-211.09 73.98,-86.97 140.31,-187.38 198.99,-301.22 58.67,-113.85 111.61,-230.86 158.8,-351.03 47.2,-120.18 86.74,-240.35 118.63,-360.52 31.89,-120.18 58.03,-229.28 78.44,-327.31zm-719.41 -327.32c-61.22,-3.16 -117.98,26.88 -170.28,90.92 -52.3,63.25 -99.49,139.15 -141.59,226.12 -42.09,87.75 -77.8,178.68 -107.14,271.97 -29.34,94.08 -51.66,169.98 -66.96,226.9 71.43,-3.16 141.58,-15.02 210.46,-35.58 68.88,-20.55 131.38,-52.18 187.51,-93.29 56.12,-41.11 103.32,-94.87 141.58,-159.7 38.27,-65.62 62.5,-145.47 72.7,-241.14 12.76,-108.31 5.11,-181.84 -22.96,-222.16 -28.05,-39.53 -62.5,-60.88 -103.32,-64.04z"/>
  <path id="_3_2" class="fil4" d="M9776.85 7304.7c2.56,-9.49 8.29,-17.39 17.22,-23.72 8.93,-6.32 18.5,-8.7 28.71,-7.12 10.2,1.59 18.49,5.54 24.87,11.86 6.38,6.33 8.29,15.82 5.74,28.47 -12.75,66.41 -35.08,159.7 -66.97,279.87 -31.89,120.17 -71.42,250.63 -118.62,391.35 -47.2,140.73 -100.77,283.04 -160.72,426.93 -59.95,143.89 -124.37,273.55 -193.25,388.98 -68.87,115.43 -142.22,207.14 -220.03,275.14 -77.8,67.99 -156.25,97.24 -235.33,87.75 -94.39,-9.48 -176.67,-36.36 -246.82,-80.64 -70.16,-44.27 -120.55,-99.62 -151.15,-166.03 -35.72,-79.06 -51.03,-177.88 -45.93,-296.48 5.11,-118.59 19.77,-243.5 44.01,-374.74 24.24,-131.25 54.21,-263.28 89.93,-396.1 35.71,-132.82 66.96,-252.2 93.75,-358.15 26.78,-105.94 45.28,-192.11 55.48,-258.53 10.21,-66.41 2.55,-101.19 -22.96,-104.36 -53.57,-3.16 -106.5,33.21 -158.8,109.11 -52.3,75.9 -103.32,174.72 -153.07,296.48 -49.75,121.75 -96.3,256.15 -139.67,403.21 -43.36,147.05 -81.63,290.94 -114.8,431.67 -33.16,140.73 -61.22,269.6 -84.18,386.61 -22.96,117.01 -37,203.98 -42.09,260.9 -2.55,6.32 -29.98,11.86 -82.28,16.6 -52.29,4.75 -109.06,2.37 -170.28,-7.11 -61.23,-9.49 -116.07,-31.63 -164.55,-66.41 -48.47,-34.79 -68.88,-90.13 -61.23,-166.03 15.32,-161.29 34.44,-329.69 57.41,-505.2 22.96,-175.52 46.55,-345.5 70.79,-509.95 24.24,-164.44 47.19,-313.87 68.88,-448.27 21.68,-134.4 40.18,-241.14 55.48,-320.2 2.55,-9.49 17.86,-21.34 45.93,-35.58 28.05,-14.23 61.86,-26.09 101.4,-35.57 39.54,-9.49 81.63,-15.02 126.27,-16.61 44.65,-1.58 84.19,5.54 118.64,21.35 34.43,15.81 59.94,42.69 76.53,80.64 16.58,37.95 18.49,90.13 5.74,156.54 -33.17,154.96 -61.87,313.88 -86.11,476.74 -24.23,162.87 -46.55,326.52 -66.96,490.97 33.16,-142.31 72.07,-284.62 116.71,-426.93 44.64,-142.31 93.75,-270.39 147.33,-384.24 53.57,-113.84 111.61,-206.34 174.11,-277.5 62.5,-71.15 130.74,-106.73 204.72,-106.73 125,0 220.03,27.67 285.09,83.01 65.05,55.34 109.06,128.08 132.01,218.21 22.97,90.13 28.07,193.7 15.32,310.71 -12.76,117.01 -32.53,236.39 -59.32,358.15 -26.78,121.75 -56.76,241.92 -89.92,360.51 -33.17,118.6 -61.23,224.54 -84.19,317.83 -22.96,93.29 -35.08,169.98 -36.35,230.07 -1.28,60.08 15.94,93.29 51.66,99.61 61.22,9.49 123.09,-16.6 185.59,-78.27 62.5,-61.66 123.08,-143.89 181.76,-246.67 58.68,-102.78 114.8,-219 168.37,-348.66 53.58,-129.66 101.41,-256.15 143.5,-379.49 42.1,-123.33 77.17,-237.18 105.24,-341.54 28.06,-104.36 47.19,-181.84 57.39,-232.44z"/>
  <path id="_4_3" class="fil4" d="M11881.5 7304.7c5.1,-22.14 20.41,-32.42 45.92,-30.84 25.51,1.59 35.71,15.03 30.62,40.33 -15.32,75.89 -36.36,169.98 -63.14,282.24 -26.79,112.27 -59.32,231.65 -97.59,358.15 -38.26,126.5 -81.63,253 -130.1,379.49 -48.47,126.5 -102.68,240.35 -162.64,341.55 -59.94,101.19 -125.64,183.42 -197.07,246.67 -71.42,63.25 -147.96,94.87 -229.6,94.87 -119.89,0 -212.37,-27.67 -277.42,-83.01 -65.05,-55.35 -112.25,-129.66 -141.59,-222.96 -29.33,-93.29 -42.73,-200.02 -40.18,-320.19 2.55,-120.18 11.48,-245.09 26.79,-374.75 -38.27,139.15 -79.73,278.29 -124.37,417.44 -44.64,139.15 -92.48,262.48 -143.5,370.01 -58.67,126.49 -123.08,216.62 -193.24,270.38 -70.16,53.77 -140.95,77.48 -212.38,71.16 -150.52,-12.65 -261.48,-72.74 -332.92,-180.26 -71.43,-107.52 -116.07,-234.81 -133.93,-381.86 -17.86,-147.06 -16.58,-298.86 3.82,-455.4 20.41,-156.54 47.2,-291.73 80.37,-405.58 30.61,-113.85 68.88,-222.16 114.8,-324.94 45.91,-102.78 100.77,-192.91 164.54,-270.39 63.78,-77.48 139.03,-137.56 225.77,-180.26 86.74,-42.69 187.5,-60.87 302.3,-54.55 89.3,6.33 176.67,30.83 262.13,73.53 85.47,42.69 166.46,98.03 242.99,166.03 76.53,67.99 147.33,146.26 212.38,234.81 65.05,88.54 121.82,181.84 170.28,279.87 -10.2,44.28 -26.14,103.57 -47.83,177.89 -21.68,74.32 -44.01,155.75 -66.97,244.3 -22.95,88.55 -44,177.89 -63.14,268.01 -19.13,90.13 -31.88,171.57 -38.26,244.3 -6.38,72.74 -3.19,132.83 9.56,180.26 12.76,47.44 39.55,71.16 80.36,71.16 33.17,0 66.33,-8.7 99.5,-26.09 33.16,-17.4 62.5,-40.32 88.01,-68.79 71.43,-82.22 136.48,-188.16 195.16,-317.82 58.67,-129.66 110.33,-264.06 154.98,-403.21 44.64,-139.15 82.9,-272.76 114.8,-400.84 31.89,-128.08 55.48,-231.65 70.79,-310.71zm-1764.07 1598.61c38.26,3.16 79.07,-30.83 122.44,-101.99 43.37,-71.15 87.38,-161.28 132.02,-270.39 44.65,-109.1 88.01,-230.85 130.11,-365.26 42.09,-134.4 80.99,-264.06 116.71,-388.98 35.72,-124.91 66.97,-238.76 93.75,-341.54 26.79,-102.78 46.56,-177.89 59.31,-225.32 -58.67,-94.88 -118.62,-137.57 -179.85,-128.08 -61.22,6.32 -119.9,56.13 -176.02,149.42 -56.12,93.29 -107.78,207.14 -154.98,341.55 -47.19,134.4 -87.37,278.29 -120.54,431.67 -33.16,153.38 -57.4,296.48 -72.7,429.3 -15.31,132.82 -19.77,243.51 -13.39,332.06 6.37,88.54 27.42,134.4 63.14,137.56z"/>
  <path id="_5_4" class="fil4" d="M14816.53 7304.7c5.09,-22.14 20.41,-32.42 45.91,-30.84 25.52,1.59 35.72,15.03 30.62,40.33 -12.76,66.41 -35.08,159.7 -66.97,279.87 -31.88,120.17 -71.43,250.63 -118.63,391.35 -47.19,140.73 -101.4,283.04 -162.62,426.93 -61.23,143.89 -126.28,273.55 -195.17,388.98 -68.88,115.43 -141.58,207.14 -218.11,275.14 -76.53,67.99 -154.35,97.24 -233.43,87.75 -96.94,-9.48 -180.48,-36.36 -250.64,-80.64 -70.16,-44.27 -119.26,-99.62 -147.33,-166.03 -35.72,-79.06 -51.66,-177.88 -47.83,-296.48 3.83,-118.59 17.86,-243.5 42.09,-374.74 24.24,-131.25 54.21,-263.28 89.93,-396.1 35.71,-132.82 66.96,-252.2 93.75,-358.15 26.78,-105.94 45.28,-192.11 55.49,-258.53 10.2,-66.41 2.55,-101.19 -22.96,-104.36 -51.02,-3.16 -99.5,25.3 -145.41,85.39 -45.92,60.09 -90.57,139.15 -133.94,237.18 -43.37,98.04 -84.18,208.72 -122.44,332.06 -38.27,123.33 -73.99,248.25 -107.16,374.75 -30.61,145.47 -63.77,291.73 -99.49,438.79 -35.71,147.05 -67.6,293.31 -95.66,438.78 -2.56,6.33 -29.98,9.49 -82.27,9.49 -52.3,0 -108.43,-7.9 -168.37,-23.72 -59.96,-15.81 -112.89,-43.48 -158.82,-83.01 -45.91,-39.53 -62.5,-97.25 -49.74,-173.14 38.26,-234.02 79.08,-454.6 122.45,-661.74 43.38,-207.14 86.74,-424.56 130.11,-652.26 17.86,-88.55 29.98,-163.65 36.35,-225.32 6.38,-61.67 0.64,-94.08 -17.22,-97.25 -53.57,-3.16 -106.51,33.21 -158.81,109.11 -52.29,75.9 -103.31,173.93 -153.06,294.1 -49.75,120.18 -95.66,253.79 -137.75,400.84 -42.1,147.06 -79.73,291.74 -112.89,434.05 -33.16,142.31 -61.23,271.97 -84.19,388.98 -22.96,117.01 -36.99,203.98 -42.09,260.9 -2.55,6.32 -29.98,11.86 -82.27,16.6 -52.3,4.75 -109.07,2.37 -170.29,-7.11 -61.22,-9.49 -116.07,-31.63 -164.54,-66.41 -48.48,-34.79 -68.89,-90.13 -61.23,-166.03 15.31,-161.29 34.44,-329.69 57.4,-505.2 22.96,-175.52 46.56,-345.5 70.79,-509.95 24.24,-164.44 47.2,-313.87 68.88,-448.27 21.69,-134.4 40.18,-241.14 55.49,-320.2 2.54,-9.49 17.86,-21.34 45.92,-35.58 28.06,-14.23 61.86,-26.09 101.4,-35.57 39.54,-9.49 81.64,-15.02 126.28,-16.61 44.65,-1.58 84.18,5.54 118.63,21.35 34.44,15.81 59.94,42.69 76.53,80.64 16.58,37.95 18.5,90.13 5.74,156.54 -30.61,151.8 -58.04,305.97 -82.27,462.51 -24.24,156.54 -46.56,315.45 -66.97,476.74 25.51,-107.52 54.85,-216.63 88.02,-327.31 33.16,-110.69 68.23,-214.26 105.23,-310.71 36.98,-96.46 77.16,-183.43 120.53,-260.91 43.37,-77.48 90.57,-138.35 141.59,-182.63 35.71,-34.78 75.89,-59.29 120.54,-73.52 44.65,-14.23 88.65,-18.19 132.02,-11.86 104.59,9.49 188.78,49.81 252.55,120.96 63.78,71.16 100.78,173.14 110.98,305.97 2.55,44.27 2.55,91.71 0,142.31 61.23,-161.29 129.46,-296.48 204.72,-405.59 75.26,-109.1 158.81,-163.65 250.64,-163.65 125.01,0 220.67,27.67 287.01,83.01 66.32,55.34 110.33,128.08 132.01,218.21 21.68,90.13 26.79,193.7 15.31,310.71 -11.48,117.01 -31.25,236.39 -59.31,358.15 -28.06,121.75 -58.67,241.92 -91.85,360.51 -33.16,118.6 -61.21,224.54 -84.18,317.83 -22.96,93.29 -35.08,169.98 -36.35,230.07 -1.27,60.08 15.94,93.29 51.66,99.61 61.23,9.49 123.09,-16.6 185.59,-78.27 62.51,-61.66 123.09,-143.89 181.77,-246.67 58.67,-102.78 114.79,-219 168.37,-348.66 53.57,-129.66 101.4,-256.15 143.5,-379.49 42.09,-123.33 77.8,-237.18 107.14,-341.54 29.34,-104.36 49.11,-181.84 59.32,-232.44z"/>
  <path id="_6_5" class="fil4" d="M16354.83 7299.96c5.11,-22.14 20.41,-32.42 45.93,-30.84 25.5,1.58 35.71,15.02 30.6,40.32 -22.96,113.85 -53.57,237.98 -91.83,372.38 -38.27,134.4 -83.55,268.81 -135.85,403.21 -52.29,134.4 -112.25,264.06 -179.85,388.98 -67.6,124.92 -142.86,235.6 -225.77,332.06 -82.91,97.24 -173.48,173.93 -271.69,230.06 -98.22,56.93 -204.73,82.23 -319.53,75.9 -168.37,-9.48 -302.3,-56.92 -401.79,-142.31 -99.5,-85.38 -170.29,-194.49 -212.38,-327.31 -42.09,-132.82 -58.68,-280.67 -49.75,-443.53 8.93,-162.87 37.63,-326.52 86.1,-490.97 45.92,-154.96 107.78,-298.85 185.59,-431.67 77.81,-132.83 170.29,-241.93 277.43,-327.32 66.34,-50.59 139.04,-90.92 218.12,-120.96 79.09,-30.04 156.89,-43.48 233.43,-40.32 53.57,3.16 104.6,16.6 153.06,40.32 48.47,23.72 89.29,56.92 122.46,99.62 33.16,42.69 58.03,93.29 74.61,151.79 16.59,58.51 21.05,122.55 13.39,192.12 -12.75,110.69 -44.64,204.77 -95.66,282.25 -51.02,77.48 -113.52,140.73 -187.51,189.75 -73.98,49.02 -154.98,84.59 -242.98,106.73 -88.01,22.14 -172.84,34.79 -254.47,37.95 -30.62,128.87 -53.58,255.37 -68.89,377.91 -15.3,122.55 -19.13,232.44 -11.48,330.48 7.66,97.24 29.98,177.09 66.97,238.76 36.99,60.88 91.2,91.71 162.63,91.71 102.05,3.16 196.44,-22.14 283.17,-75.9 86.74,-53.76 167.1,-124.12 241.08,-211.09 73.98,-86.97 140.31,-187.38 198.99,-301.22 58.67,-113.85 111.61,-230.86 158.8,-351.03 47.2,-120.18 86.74,-240.35 118.63,-360.52 31.89,-120.18 58.03,-229.28 78.44,-327.31zm-719.41 -327.32c-61.22,-3.16 -117.98,26.88 -170.28,90.92 -52.3,63.25 -99.49,139.15 -141.59,226.12 -42.09,87.75 -77.8,178.68 -107.14,271.97 -29.34,94.08 -51.66,169.98 -66.96,226.9 71.43,-3.16 141.58,-15.02 210.46,-35.58 68.88,-20.55 131.38,-52.18 187.5,-93.29 56.13,-41.11 103.32,-94.87 141.59,-159.7 38.26,-65.62 62.5,-145.47 72.7,-241.14 12.76,-108.31 5.11,-181.84 -22.96,-222.16 -28.05,-39.53 -62.5,-60.88 -103.32,-64.04z"/>
  <path id="_7_6" class="fil4" d="M18398.25 7304.7c2.56,-9.49 8.29,-17.39 17.22,-23.72 8.93,-6.32 18.5,-8.7 28.7,-7.12 10.21,1.59 18.5,5.54 24.87,11.86 6.39,6.33 8.3,15.82 5.75,28.47 -12.76,66.41 -35.08,159.7 -66.97,279.87 -31.89,120.17 -71.43,250.63 -118.63,391.35 -47.19,140.73 -100.77,283.04 -160.71,426.93 -59.95,143.89 -124.37,273.55 -193.25,388.98 -68.87,115.43 -142.22,207.14 -220.03,275.14 -77.81,67.99 -156.26,97.24 -235.33,87.75 -94.39,-9.48 -176.67,-36.36 -246.83,-80.64 -70.15,-44.27 -120.54,-99.62 -151.14,-166.03 -35.72,-79.06 -51.03,-177.88 -45.93,-296.48 5.11,-118.59 19.77,-243.5 44.01,-374.74 24.24,-131.25 54.21,-263.28 89.93,-396.1 35.71,-132.82 66.96,-252.2 93.75,-358.15 26.78,-105.94 45.28,-192.11 55.48,-258.53 10.21,-66.41 2.55,-101.19 -22.96,-104.36 -53.57,-3.16 -106.5,33.21 -158.8,109.11 -52.3,75.9 -103.32,174.72 -153.07,296.48 -49.75,121.75 -96.3,256.15 -139.67,403.21 -43.37,147.05 -81.63,290.94 -114.8,431.67 -33.16,140.73 -61.22,269.6 -84.18,386.61 -22.96,117.01 -37,203.98 -42.1,260.9 -2.54,6.32 -29.97,11.86 -82.27,16.6 -52.3,4.75 -109.06,2.37 -170.28,-7.11 -61.23,-9.49 -116.08,-31.63 -164.55,-66.41 -48.47,-34.79 -68.88,-90.13 -61.23,-166.03 15.31,-161.29 34.44,-329.69 57.41,-505.2 22.96,-175.52 46.55,-345.5 70.78,-509.95 24.24,-164.44 47.2,-313.87 68.89,-448.27 21.68,-134.4 40.18,-241.14 55.48,-320.2 2.55,-9.49 17.86,-21.34 45.92,-35.58 28.06,-14.23 61.87,-26.09 101.4,-35.57 39.55,-9.49 81.64,-15.02 126.28,-16.61 44.65,-1.58 84.19,5.54 118.63,21.35 34.44,15.81 59.95,42.69 76.53,80.64 16.59,37.95 18.5,90.13 5.75,156.54 -33.17,154.96 -61.87,313.88 -86.11,476.74 -24.23,162.87 -46.55,326.52 -66.96,490.97 33.16,-142.31 72.07,-284.62 116.71,-426.93 44.64,-142.31 93.75,-270.39 147.33,-384.24 53.57,-113.84 111.61,-206.34 174.11,-277.5 62.5,-71.15 130.74,-106.73 204.72,-106.73 125,0 220.03,27.67 285.09,83.01 65.05,55.34 109.06,128.08 132.01,218.21 22.97,90.13 28.07,193.7 15.31,310.71 -12.75,117.01 -32.52,236.39 -59.31,358.15 -26.78,121.75 -56.76,241.92 -89.92,360.51 -33.17,118.6 -61.23,224.54 -84.2,317.83 -22.95,93.29 -35.07,169.98 -36.34,230.07 -1.28,60.08 15.94,93.29 51.66,99.61 61.22,9.49 123.09,-16.6 185.59,-78.27 62.5,-61.66 123.08,-143.89 181.76,-246.67 58.68,-102.78 114.8,-219 168.37,-348.66 53.57,-129.66 101.41,-256.15 143.5,-379.49 42.1,-123.33 77.17,-237.18 105.23,-341.54 28.07,-104.36 47.2,-181.84 57.4,-232.44z"/>
  <path id="_8" class="fil4" d="M19672.52 7304.7c2.55,-9.49 8.93,-17.39 19.13,-23.72 10.21,-6.32 19.78,-8.7 28.7,-7.12 8.93,1.59 17.22,5.54 24.88,11.86 7.65,6.33 10.2,15.82 7.65,28.47 -20.41,104.36 -45.29,222.95 -74.62,355.77 -29.34,132.82 -65.06,268.81 -107.15,407.96 -42.09,139.14 -90.56,273.55 -145.41,403.21 -54.85,129.66 -118.62,244.29 -191.33,343.91 -72.71,99.62 -154.34,176.31 -244.9,230.07 -90.57,53.76 -193.25,74.32 -308.05,61.67 -117.35,-15.82 -218.76,-71.16 -304.22,-166.03 -85.46,-94.87 -129.46,-229.28 -132.02,-403.21 0,-132.82 10.21,-286.99 30.62,-462.51 20.4,-175.51 45.92,-360.52 76.53,-555.01 30.62,-194.49 65.05,-392.14 103.32,-592.95 38.26,-200.82 73.98,-394.52 107.15,-581.1 -122.46,15.81 -236.62,18.97 -342.49,9.48 -105.87,-9.48 -194.52,-45.85 -265.95,-109.1 -15.31,-15.81 -17.22,-30.04 -5.74,-42.69 11.48,-12.65 23.6,-28.47 36.35,-47.44 61.23,63.25 144.78,98.04 250.64,104.36 105.88,6.33 221.32,1.58 346.32,-14.23l114.8 -635.65c68.88,-3.16 135.85,-7.91 200.9,-14.23 65.05,-6.33 121.81,-4.75 170.28,4.74 48.47,9.49 86.1,28.46 112.89,56.93 26.78,28.46 36.35,75.89 28.7,142.31 -12.76,94.87 -31.89,213.46 -57.4,355.77 127.55,-12.65 239.16,-8.7 334.83,11.86 95.66,20.56 162.63,76.69 200.89,168.4 12.76,25.3 11.48,39.53 -3.82,42.69 -15.3,3.16 -33.16,11.07 -53.57,23.72 -28.07,-82.22 -86.74,-131.24 -176.03,-147.05 -89.29,-15.81 -195.16,-15.81 -317.61,0 -25.51,154.96 -55.49,325.73 -89.93,512.31 -34.43,186.59 -67.6,373.96 -99.48,562.13 -31.9,188.16 -59.96,370.79 -84.2,547.89 -24.23,177.1 -39.53,334.43 -45.91,471.99 -6.38,137.57 -1.28,247.46 15.31,329.69 16.57,82.22 49.1,123.33 97.57,123.33 63.78,0 125.01,-26.88 183.68,-80.64 58.68,-53.76 112.88,-124.92 162.63,-213.46 49.75,-88.55 96.3,-188.17 139.67,-298.85 43.38,-110.69 81.64,-221.38 114.8,-332.06 33.17,-110.69 61.23,-217.42 84.19,-320.2 22.96,-102.78 42.09,-190.54 57.4,-263.27z"/>
  <path id="_9" class="fil4" d="M21210.83 7299.96c5.1,-22.14 20.4,-32.42 45.92,-30.84 25.51,1.58 35.71,15.02 30.61,40.32 -22.96,113.85 -53.58,237.98 -91.84,372.38 -38.27,134.4 -83.55,268.81 -135.84,403.21 -52.3,134.4 -112.25,264.06 -179.86,388.98 -67.6,124.92 -142.86,235.6 -225.77,332.06 -82.91,97.24 -173.48,173.93 -271.69,230.06 -98.22,56.93 -204.73,82.23 -319.53,75.9 -168.37,-9.48 -302.3,-56.92 -401.79,-142.31 -99.5,-85.38 -170.28,-194.49 -212.37,-327.31 -42.1,-132.82 -58.68,-280.67 -49.75,-443.53 8.93,-162.87 37.62,-326.52 86.09,-490.97 45.92,-154.96 107.79,-298.85 185.6,-431.67 77.8,-132.83 170.28,-241.93 277.42,-327.32 66.34,-50.59 139.04,-90.92 218.12,-120.96 79.09,-30.04 156.9,-43.48 233.43,-40.32 53.58,3.16 104.6,16.6 153.06,40.32 48.48,23.72 89.3,56.92 122.46,99.62 33.16,42.69 58.03,93.29 74.62,151.79 16.58,58.51 21.04,122.55 13.39,192.12 -12.76,110.69 -44.64,204.77 -95.67,282.25 -51.02,77.48 -113.52,140.73 -187.5,189.75 -73.98,49.02 -154.98,84.59 -242.99,106.73 -88.01,22.14 -172.84,34.79 -254.47,37.95 -30.61,128.87 -53.57,255.37 -68.88,377.91 -15.31,122.55 -19.14,232.44 -11.48,330.48 7.65,97.24 29.97,177.09 66.96,238.76 37,60.88 91.2,91.71 162.64,91.71 102.04,3.16 196.43,-22.14 283.17,-75.9 86.73,-53.76 167.09,-124.12 241.07,-211.09 73.99,-86.97 140.31,-187.38 198.99,-301.22 58.68,-113.85 111.61,-230.86 158.8,-351.03 47.2,-120.18 86.75,-240.35 118.63,-360.52 31.89,-120.18 58.04,-229.28 78.45,-327.31zm-719.41 -327.32c-61.23,-3.16 -117.99,26.88 -170.29,90.92 -52.29,63.25 -99.48,139.15 -141.59,226.12 -42.09,87.75 -77.8,178.68 -107.14,271.97 -29.34,94.08 -51.66,169.98 -66.96,226.9 71.43,-3.16 141.58,-15.02 210.46,-35.58 68.88,-20.55 131.39,-52.18 187.51,-93.29 56.12,-41.11 103.32,-94.87 141.58,-159.7 38.27,-65.62 62.5,-145.47 72.71,-241.14 12.76,-108.31 5.1,-181.84 -22.96,-222.16 -28.06,-39.53 -62.51,-60.88 -103.32,-64.04z"/>
  <path id="_10" class="fil3 str1" d="M3401.69 4477.48c-250.01,12.65 -478.97,53.76 -686.89,123.33 -207.9,69.58 -382.65,181.05 -524.24,334.43 -141.58,153.38 -243.63,357.36 -306.13,611.93 -62.5,254.58 -73.35,573.19 -32.53,955.85 12.76,6.33 28.07,11.86 45.92,16.6 17.86,4.75 33.17,11.86 45.92,21.35 38.27,25.3 52.3,54.55 42.1,87.76 -10.21,33.2 -29.34,56.92 -57.41,71.15 -28.05,14.23 -58.67,9.49 -91.84,-14.23 -33.16,-23.72 -54.84,-83.01 -65.05,-177.89 -45.92,-430.09 -28.06,-784.28 53.57,-1062.58 81.64,-278.29 209.83,-497.29 384.58,-656.99 174.75,-159.71 388.4,-269.6 640.96,-329.69 252.56,-60.08 528.08,-86.96 826.56,-80.64 28.06,-12.65 61.86,-21.35 101.4,-26.09 39.54,-4.74 73.34,-3.95 101.41,2.37 30.61,9.49 50.38,25.3 59.31,47.44 8.93,22.14 9.57,44.27 1.92,66.41 -7.66,22.14 -20.41,40.32 -38.27,54.55 -17.86,14.23 -36.99,15.02 -57.4,2.37 -99.5,-56.92 -179.21,-52.97 -239.16,11.86 -59.96,64.83 -109.07,174.73 -147.33,329.69 -38.27,154.96 -69.52,343.91 -93.75,566.86 -24.24,222.96 -47.84,464.09 -70.8,723.41 40.82,-177.09 91.21,-360.52 151.15,-550.26 59.95,-189.75 131.39,-362.1 214.3,-517.06 82.91,-154.96 179.21,-281.46 288.91,-379.49 109.69,-98.04 235.97,-147.06 378.84,-147.06 125,0 232.78,37.16 323.35,111.48 90.56,74.32 160.71,170.77 210.46,289.36 49.75,118.59 79.08,253 88.01,403.21 8.93,150.22 -5.74,303.6 -44,460.14 -38.27,156.54 -100.78,308.34 -187.51,455.39 -86.73,147.05 -200.26,276.71 -340.57,388.98 -140.31,112.27 -307.41,199.23 -501.29,260.9 -193.88,61.67 -418.37,86.18 -673.49,73.53 -25.5,192.91 -56.12,383.44 -91.84,571.61 -35.71,188.16 -79.71,366.05 -132.01,533.66 -52.3,167.61 -114.8,323.36 -187.51,467.25 -72.7,143.89 -157.53,267.23 -254.47,370.01 -96.94,102.78 -207.91,183.42 -332.91,241.92 -125.01,58.51 -266.6,86.18 -424.76,83.02 -158.17,-3.16 -295.29,-40.32 -411.36,-111.48 -116.08,-71.15 -211.11,-165.24 -285.09,-282.25 -73.98,-117.01 -127.56,-249.83 -160.72,-398.46 -33.16,-148.64 -46.55,-299.64 -40.18,-453.02 6.38,-153.38 31.89,-303.6 76.54,-450.65 44.64,-147.05 107.14,-278.3 187.5,-393.72 80.36,-115.43 179.85,-207.94 298.48,-277.51 118.62,-69.57 254.46,-104.36 407.53,-104.36 125.01,0 237.26,33.21 336.75,99.62 99.49,66.41 167.09,167.61 202.81,303.59 10.21,31.63 16.58,59.3 19.13,83.02 2.56,23.71 3.83,45.06 3.83,64.04 0,41.11 -8.29,68.78 -24.88,83.01 -16.58,14.23 -34.44,19.76 -53.57,16.6 -19.13,-3.16 -35.71,-14.23 -49.74,-33.2 -14.04,-18.98 -18.5,-42.7 -13.4,-71.16 5.11,-18.97 13.4,-43.48 24.88,-73.53 11.48,-30.04 14.66,-54.55 9.57,-73.52 -35.72,-101.2 -92.48,-177.89 -170.29,-230.07 -77.81,-52.18 -165.19,-78.27 -262.13,-78.27 -165.82,0 -305.49,54.55 -419.01,163.66 -113.53,109.89 -201.54,245.88 -264.04,409.53 -62.5,162.87 -98.22,338.38 -107.14,527.34 -8.93,188.16 10.2,364.47 57.39,527.34 47.2,163.65 123.09,298.85 227.69,407.16 104.59,107.52 239.8,161.28 405.62,161.28 150.51,0 274.88,-56.13 373.09,-168.4 98.23,-112.26 178.58,-264.06 241.08,-453.81 62.5,-189.74 113.53,-408.74 153.07,-657.78 39.54,-248.25 74.62,-505.99 105.23,-774.01 30.62,-267.23 62.5,-534.45 95.67,-802.47 33.16,-267.23 77.17,-517.06 132.02,-750.29 54.84,-232.44 123.73,-437.21 206.64,-614.3 82.91,-177.89 189.42,-307.55 319.52,-389.77zm-179.85 2428.75c155.61,3.16 294.01,-26.88 415.19,-90.13 121.17,-63.25 227.68,-147.84 319.52,-253.78 91.84,-105.95 169.64,-226.12 233.43,-360.52 63.78,-134.41 114.16,-271.18 151.15,-410.33 36.99,-139.15 62.5,-275.92 76.53,-410.33 14.03,-134.4 17.22,-252.2 9.56,-353.4 -7.64,-101.2 -24.87,-181.84 -51.66,-241.92 -26.78,-60.09 -61.86,-86.97 -105.23,-80.65 -107.14,18.98 -202.81,65.62 -286.99,139.94 -84.19,74.32 -160.08,167.61 -227.69,279.88 -67.6,112.26 -127.55,237.18 -179.85,374.75 -52.3,137.56 -98.22,276.71 -137.76,417.44 -39.54,140.73 -73.34,278.29 -101.4,412.7 -28.07,134.4 -52.3,255.36 -72.71,362.89 -7.66,37.95 -14.67,74.31 -21.05,109.1 -6.38,34.79 -13.39,69.57 -21.04,104.36z"/>
  <path id="_11" class="fil3 str1" d="M6195.13 7299.96c2.55,-9.49 8.29,-17.4 17.22,-23.72 8.93,-6.33 17.85,-8.7 26.78,-7.12 8.93,1.58 17.23,5.54 24.88,11.86 7.65,6.33 10.21,15.81 7.65,28.46 -15.3,75.9 -36.99,171.56 -65.05,286.99 -28.07,115.43 -61.23,235.61 -99.49,360.52 -38.27,124.92 -82.27,250.63 -132.02,377.12 -49.75,126.5 -105.87,239.56 -168.37,339.17 -62.51,99.62 -130.75,181.84 -204.73,246.67 -73.98,64.83 -153.06,97.25 -237.25,97.25 -135.21,0 -242.36,-32.42 -321.44,-97.25 -79.08,-64.83 -137.12,-150.21 -174.11,-256.15 -36.99,-105.94 -57.4,-227.7 -61.23,-365.26 -3.82,-137.57 1.28,-279.88 15.31,-426.93 14.03,-147.06 33.8,-292.53 59.32,-436.42 25.5,-143.89 48.46,-277.5 68.87,-400.84 43.37,-278.29 89.93,-555.8 139.67,-832.51 49.75,-276.72 98.86,-538.41 147.33,-785.08 28.06,-151.8 68.24,-281.46 120.54,-388.98 52.3,-107.52 110.34,-196.07 174.11,-265.64 63.78,-69.58 130.74,-120.18 200.9,-151.8 70.16,-31.62 139.67,-45.86 208.55,-42.69 94.39,6.32 178.58,42.69 252.56,109.1 73.98,66.41 125,162.87 153.07,288.57 15.3,72.74 20.41,149.43 15.3,230.07 -5.1,80.64 -17.22,163.66 -36.35,249.04 -19.13,85.39 -43.37,170.78 -72.71,255.37 -29.34,85.39 -59.31,167.61 -89.93,246.67 -56.12,135.99 -117.34,272.76 -183.67,409.54 -66.33,137.56 -133.3,266.43 -200.9,386.61 -67.6,120.17 -131.38,227.69 -191.33,321.77 -59.96,94.88 -110.34,167.61 -151.15,218.21 -12.76,82.23 -24.88,162.87 -36.36,241.93 -11.48,79.06 -23.59,156.54 -36.35,231.65 -15.31,117.01 -28.06,238.76 -38.27,365.26 -10.2,126.5 -14.66,242.72 -13.39,348.66 1.28,105.15 12.12,192.12 32.53,260.11 20.41,67.99 54.84,101.99 103.32,101.99 56.12,-3.17 111.6,-34.79 166.46,-94.88 54.84,-60.08 108.42,-136.77 160.71,-230.06 52.3,-93.3 100.77,-197.66 145.42,-313.09 44.64,-115.42 85.46,-229.27 122.45,-341.54 36.99,-112.27 68.24,-217.42 93.75,-315.45 25.51,-98.04 44.64,-177.1 57.4,-237.18zm-367.36 -2063.5c-35.72,91.71 -68.88,196.86 -99.49,315.46 -30.62,118.59 -58.67,241.92 -84.19,370 -25.51,128.08 -47.83,255.37 -66.96,381.87 -19.14,126.49 -36.36,244.29 -51.66,353.4 -15.31,109.1 -28.07,203.98 -38.27,284.62 -10.21,80.64 -17.85,138.36 -22.96,173.14 43.37,-63.25 91.84,-139.94 145.41,-230.07 53.58,-90.12 108.42,-187.37 164.55,-291.73 56.12,-104.36 111.61,-214.26 166.46,-329.68 54.85,-115.43 105.23,-230.07 151.15,-343.92 10.2,-28.46 23.59,-64.04 40.18,-106.73 16.58,-42.7 32.52,-89.34 47.84,-139.94 15.3,-50.6 29.96,-103.57 44,-158.91 14.03,-55.35 23.6,-109.9 28.7,-163.66 15.3,-120.17 6.37,-207.93 -26.79,-263.27 -33.16,-55.34 -75.25,-84.6 -126.28,-87.76 -48.47,-3.16 -98.21,16.6 -149.23,59.3 -51.03,42.69 -91.84,101.98 -122.46,177.88z"/>
  <path id="_12" class="fil3 str1" d="M7733.43 7299.96c5.11,-22.14 20.41,-32.42 45.93,-30.84 25.51,1.58 35.71,15.02 30.6,40.32 -22.95,113.85 -53.57,237.98 -91.83,372.38 -38.27,134.4 -83.55,268.81 -135.85,403.21 -52.29,134.4 -112.25,264.06 -179.85,388.98 -67.6,124.92 -142.86,235.6 -225.77,332.06 -82.91,97.24 -173.48,173.93 -271.69,230.06 -98.22,56.93 -204.73,82.23 -319.53,75.9 -168.37,-9.48 -302.3,-56.92 -401.79,-142.31 -99.5,-85.38 -170.28,-194.49 -212.38,-327.31 -42.09,-132.82 -58.67,-280.67 -49.74,-443.53 8.93,-162.87 37.62,-326.52 86.09,-490.97 45.92,-154.96 107.78,-298.85 185.6,-431.67 77.8,-132.83 170.28,-241.93 277.42,-327.32 66.34,-50.59 139.04,-90.92 218.12,-120.96 79.09,-30.04 156.89,-43.48 233.43,-40.32 53.57,3.16 104.6,16.6 153.06,40.32 48.48,23.72 89.29,56.92 122.46,99.62 33.16,42.69 58.03,93.29 74.61,151.79 16.59,58.51 21.05,122.55 13.4,192.12 -12.76,110.69 -44.65,204.77 -95.67,282.25 -51.02,77.48 -113.52,140.73 -187.5,189.75 -73.99,49.02 -154.98,84.59 -242.99,106.73 -88.01,22.14 -172.84,34.79 -254.47,37.95 -30.62,128.87 -53.57,255.37 -68.88,377.91 -15.31,122.55 -19.14,232.44 -11.48,330.48 7.65,97.24 29.97,177.09 66.96,238.76 36.99,60.88 91.2,91.71 162.63,91.71 102.05,3.16 196.44,-22.14 283.17,-75.9 86.74,-53.76 167.1,-124.12 241.08,-211.09 73.98,-86.97 140.31,-187.38 198.99,-301.22 58.67,-113.85 111.61,-230.86 158.8,-351.03 47.2,-120.18 86.74,-240.35 118.63,-360.52 31.89,-120.18 58.03,-229.28 78.44,-327.31zm-719.41 -327.32c-61.22,-3.16 -117.98,26.88 -170.28,90.92 -52.3,63.25 -99.49,139.15 -141.59,226.12 -42.09,87.75 -77.8,178.68 -107.14,271.97 -29.34,94.08 -51.66,169.98 -66.96,226.9 71.43,-3.16 141.58,-15.02 210.46,-35.58 68.88,-20.55 131.38,-52.18 187.51,-93.29 56.12,-41.11 103.32,-94.87 141.58,-159.7 38.27,-65.62 62.5,-145.47 72.7,-241.14 12.76,-108.31 5.11,-181.84 -22.96,-222.16 -28.05,-39.53 -62.5,-60.88 -103.32,-64.04z"/>
  <path id="_13" class="fil3 str1" d="M9776.85 7304.7c2.56,-9.49 8.29,-17.39 17.22,-23.72 8.93,-6.32 18.5,-8.7 28.71,-7.12 10.2,1.59 18.49,5.54 24.87,11.86 6.38,6.33 8.29,15.82 5.74,28.47 -12.75,66.41 -35.08,159.7 -66.97,279.87 -31.89,120.17 -71.42,250.63 -118.62,391.35 -47.2,140.73 -100.77,283.04 -160.72,426.93 -59.95,143.89 -124.37,273.55 -193.25,388.98 -68.87,115.43 -142.22,207.14 -220.03,275.14 -77.8,67.99 -156.25,97.24 -235.33,87.75 -94.39,-9.48 -176.67,-36.36 -246.82,-80.64 -70.16,-44.27 -120.55,-99.62 -151.15,-166.03 -35.72,-79.06 -51.03,-177.88 -45.93,-296.48 5.11,-118.59 19.77,-243.5 44.01,-374.74 24.24,-131.25 54.21,-263.28 89.93,-396.1 35.71,-132.82 66.96,-252.2 93.75,-358.15 26.78,-105.94 45.28,-192.11 55.48,-258.53 10.21,-66.41 2.55,-101.19 -22.96,-104.36 -53.57,-3.16 -106.5,33.21 -158.8,109.11 -52.3,75.9 -103.32,174.72 -153.07,296.48 -49.75,121.75 -96.3,256.15 -139.67,403.21 -43.36,147.05 -81.63,290.94 -114.8,431.67 -33.16,140.73 -61.22,269.6 -84.18,386.61 -22.96,117.01 -37,203.98 -42.09,260.9 -2.55,6.32 -29.98,11.86 -82.28,16.6 -52.29,4.75 -109.06,2.37 -170.28,-7.11 -61.23,-9.49 -116.07,-31.63 -164.55,-66.41 -48.47,-34.79 -68.88,-90.13 -61.23,-166.03 15.32,-161.29 34.44,-329.69 57.41,-505.2 22.96,-175.52 46.55,-345.5 70.79,-509.95 24.24,-164.44 47.19,-313.87 68.88,-448.27 21.68,-134.4 40.18,-241.14 55.48,-320.2 2.55,-9.49 17.86,-21.34 45.93,-35.58 28.05,-14.23 61.86,-26.09 101.4,-35.57 39.54,-9.49 81.63,-15.02 126.27,-16.61 44.65,-1.58 84.19,5.54 118.64,21.35 34.43,15.81 59.94,42.69 76.53,80.64 16.58,37.95 18.49,90.13 5.74,156.54 -33.17,154.96 -61.87,313.88 -86.11,476.74 -24.23,162.87 -46.55,326.52 -66.96,490.97 33.16,-142.31 72.07,-284.62 116.71,-426.93 44.64,-142.31 93.75,-270.39 147.33,-384.24 53.57,-113.84 111.61,-206.34 174.11,-277.5 62.5,-71.15 130.74,-106.73 204.72,-106.73 125,0 220.03,27.67 285.09,83.01 65.05,55.34 109.06,128.08 132.01,218.21 22.97,90.13 28.07,193.7 15.32,310.71 -12.76,117.01 -32.53,236.39 -59.32,358.15 -26.78,121.75 -56.76,241.92 -89.92,360.51 -33.17,118.6 -61.23,224.54 -84.19,317.83 -22.96,93.29 -35.08,169.98 -36.35,230.07 -1.28,60.08 15.94,93.29 51.66,99.61 61.22,9.49 123.09,-16.6 185.59,-78.27 62.5,-61.66 123.08,-143.89 181.76,-246.67 58.68,-102.78 114.8,-219 168.37,-348.66 53.58,-129.66 101.41,-256.15 143.5,-379.49 42.1,-123.33 77.17,-237.18 105.24,-341.54 28.06,-104.36 47.19,-181.84 57.39,-232.44z"/>
  <path id="_14" class="fil3 str1" d="M11881.5 7304.7c5.1,-22.14 20.41,-32.42 45.92,-30.84 25.51,1.59 35.71,15.03 30.62,40.33 -15.32,75.89 -36.36,169.98 -63.14,282.24 -26.79,112.27 -59.32,231.65 -97.59,358.15 -38.26,126.5 -81.63,253 -130.1,379.49 -48.47,126.5 -102.68,240.35 -162.64,341.55 -59.94,101.19 -125.64,183.42 -197.07,246.67 -71.42,63.25 -147.96,94.87 -229.6,94.87 -119.89,0 -212.37,-27.67 -277.42,-83.01 -65.05,-55.35 -112.25,-129.66 -141.59,-222.96 -29.33,-93.29 -42.73,-200.02 -40.18,-320.19 2.55,-120.18 11.48,-245.09 26.79,-374.75 -38.27,139.15 -79.73,278.29 -124.37,417.44 -44.64,139.15 -92.48,262.48 -143.5,370.01 -58.67,126.49 -123.08,216.62 -193.24,270.38 -70.16,53.77 -140.95,77.48 -212.38,71.16 -150.52,-12.65 -261.48,-72.74 -332.92,-180.26 -71.43,-107.52 -116.07,-234.81 -133.93,-381.86 -17.86,-147.06 -16.58,-298.86 3.82,-455.4 20.41,-156.54 47.2,-291.73 80.37,-405.58 30.61,-113.85 68.88,-222.16 114.8,-324.94 45.91,-102.78 100.77,-192.91 164.54,-270.39 63.78,-77.48 139.03,-137.56 225.77,-180.26 86.74,-42.69 187.5,-60.87 302.3,-54.55 89.3,6.33 176.67,30.83 262.13,73.53 85.47,42.69 166.46,98.03 242.99,166.03 76.53,67.99 147.33,146.26 212.38,234.81 65.05,88.54 121.82,181.84 170.28,279.87 -10.2,44.28 -26.14,103.57 -47.83,177.89 -21.68,74.32 -44.01,155.75 -66.97,244.3 -22.95,88.55 -44,177.89 -63.14,268.01 -19.13,90.13 -31.88,171.57 -38.26,244.3 -6.38,72.74 -3.19,132.83 9.56,180.26 12.76,47.44 39.55,71.16 80.36,71.16 33.17,0 66.33,-8.7 99.5,-26.09 33.16,-17.4 62.5,-40.32 88.01,-68.79 71.43,-82.22 136.48,-188.16 195.16,-317.82 58.67,-129.66 110.33,-264.06 154.98,-403.21 44.64,-139.15 82.9,-272.76 114.8,-400.84 31.89,-128.08 55.48,-231.65 70.79,-310.71zm-1764.07 1598.61c38.26,3.16 79.07,-30.83 122.44,-101.99 43.37,-71.15 87.38,-161.28 132.02,-270.39 44.65,-109.1 88.01,-230.85 130.11,-365.26 42.09,-134.4 80.99,-264.06 116.71,-388.98 35.72,-124.91 66.97,-238.76 93.75,-341.54 26.79,-102.78 46.56,-177.89 59.31,-225.32 -58.67,-94.88 -118.62,-137.57 -179.85,-128.08 -61.22,6.32 -119.9,56.13 -176.02,149.42 -56.12,93.29 -107.78,207.14 -154.98,341.55 -47.19,134.4 -87.37,278.29 -120.54,431.67 -33.16,153.38 -57.4,296.48 -72.7,429.3 -15.31,132.82 -19.77,243.51 -13.39,332.06 6.37,88.54 27.42,134.4 63.14,137.56z"/>
  <path id="_15" class="fil3 str1" d="M14816.53 7304.7c5.09,-22.14 20.41,-32.42 45.91,-30.84 25.52,1.59 35.72,15.03 30.62,40.33 -12.76,66.41 -35.08,159.7 -66.97,279.87 -31.88,120.17 -71.43,250.63 -118.63,391.35 -47.19,140.73 -101.4,283.04 -162.62,426.93 -61.23,143.89 -126.28,273.55 -195.17,388.98 -68.88,115.43 -141.58,207.14 -218.11,275.14 -76.53,67.99 -154.35,97.24 -233.43,87.75 -96.94,-9.48 -180.48,-36.36 -250.64,-80.64 -70.16,-44.27 -119.26,-99.62 -147.33,-166.03 -35.72,-79.06 -51.66,-177.88 -47.83,-296.48 3.83,-118.59 17.86,-243.5 42.09,-374.74 24.24,-131.25 54.21,-263.28 89.93,-396.1 35.71,-132.82 66.96,-252.2 93.75,-358.15 26.78,-105.94 45.28,-192.11 55.49,-258.53 10.2,-66.41 2.55,-101.19 -22.96,-104.36 -51.02,-3.16 -99.5,25.3 -145.41,85.39 -45.92,60.09 -90.57,139.15 -133.94,237.18 -43.37,98.04 -84.18,208.72 -122.44,332.06 -38.27,123.33 -73.99,248.25 -107.16,374.75 -30.61,145.47 -63.77,291.73 -99.49,438.79 -35.71,147.05 -67.6,293.31 -95.66,438.78 -2.56,6.33 -29.98,9.49 -82.27,9.49 -52.3,0 -108.43,-7.9 -168.37,-23.72 -59.96,-15.81 -112.89,-43.48 -158.82,-83.01 -45.91,-39.53 -62.5,-97.25 -49.74,-173.14 38.26,-234.02 79.08,-454.6 122.45,-661.74 43.38,-207.14 86.74,-424.56 130.11,-652.26 17.86,-88.55 29.98,-163.65 36.35,-225.32 6.38,-61.67 0.64,-94.08 -17.22,-97.25 -53.57,-3.16 -106.51,33.21 -158.81,109.11 -52.29,75.9 -103.31,173.93 -153.06,294.1 -49.75,120.18 -95.66,253.79 -137.75,400.84 -42.1,147.06 -79.73,291.74 -112.89,434.05 -33.16,142.31 -61.23,271.97 -84.19,388.98 -22.96,117.01 -36.99,203.98 -42.09,260.9 -2.55,6.32 -29.98,11.86 -82.27,16.6 -52.3,4.75 -109.07,2.37 -170.29,-7.11 -61.22,-9.49 -116.07,-31.63 -164.54,-66.41 -48.48,-34.79 -68.89,-90.13 -61.23,-166.03 15.31,-161.29 34.44,-329.69 57.4,-505.2 22.96,-175.52 46.56,-345.5 70.79,-509.95 24.24,-164.44 47.2,-313.87 68.88,-448.27 21.69,-134.4 40.18,-241.14 55.49,-320.2 2.54,-9.49 17.86,-21.34 45.92,-35.58 28.06,-14.23 61.86,-26.09 101.4,-35.57 39.54,-9.49 81.64,-15.02 126.28,-16.61 44.65,-1.58 84.18,5.54 118.63,21.35 34.44,15.81 59.94,42.69 76.53,80.64 16.58,37.95 18.5,90.13 5.74,156.54 -30.61,151.8 -58.04,305.97 -82.27,462.51 -24.24,156.54 -46.56,315.45 -66.97,476.74 25.51,-107.52 54.85,-216.63 88.02,-327.31 33.16,-110.69 68.23,-214.26 105.23,-310.71 36.98,-96.46 77.16,-183.43 120.53,-260.91 43.37,-77.48 90.57,-138.35 141.59,-182.63 35.71,-34.78 75.89,-59.29 120.54,-73.52 44.65,-14.23 88.65,-18.19 132.02,-11.86 104.59,9.49 188.78,49.81 252.55,120.96 63.78,71.16 100.78,173.14 110.98,305.97 2.55,44.27 2.55,91.71 0,142.31 61.23,-161.29 129.46,-296.48 204.72,-405.59 75.26,-109.1 158.81,-163.65 250.64,-163.65 125.01,0 220.67,27.67 287.01,83.01 66.32,55.34 110.33,128.08 132.01,218.21 21.68,90.13 26.79,193.7 15.31,310.71 -11.48,117.01 -31.25,236.39 -59.31,358.15 -28.06,121.75 -58.67,241.92 -91.85,360.51 -33.16,118.6 -61.21,224.54 -84.18,317.83 -22.96,93.29 -35.08,169.98 -36.35,230.07 -1.27,60.08 15.94,93.29 51.66,99.61 61.23,9.49 123.09,-16.6 185.59,-78.27 62.51,-61.66 123.09,-143.89 181.77,-246.67 58.67,-102.78 114.79,-219 168.37,-348.66 53.57,-129.66 101.4,-256.15 143.5,-379.49 42.09,-123.33 77.8,-237.18 107.14,-341.54 29.34,-104.36 49.11,-181.84 59.32,-232.44z"/>
  <path id="_16" class="fil3 str1" d="M16354.83 7299.96c5.11,-22.14 20.41,-32.42 45.93,-30.84 25.5,1.58 35.71,15.02 30.6,40.32 -22.96,113.85 -53.57,237.98 -91.83,372.38 -38.27,134.4 -83.55,268.81 -135.85,403.21 -52.29,134.4 -112.25,264.06 -179.85,388.98 -67.6,124.92 -142.86,235.6 -225.77,332.06 -82.91,97.24 -173.48,173.93 -271.69,230.06 -98.22,56.93 -204.73,82.23 -319.53,75.9 -168.37,-9.48 -302.3,-56.92 -401.79,-142.31 -99.5,-85.38 -170.29,-194.49 -212.38,-327.31 -42.09,-132.82 -58.68,-280.67 -49.75,-443.53 8.93,-162.87 37.63,-326.52 86.1,-490.97 45.92,-154.96 107.78,-298.85 185.59,-431.67 77.81,-132.83 170.29,-241.93 277.43,-327.32 66.34,-50.59 139.04,-90.92 218.12,-120.96 79.09,-30.04 156.89,-43.48 233.43,-40.32 53.57,3.16 104.6,16.6 153.06,40.32 48.47,23.72 89.29,56.92 122.46,99.62 33.16,42.69 58.03,93.29 74.61,151.79 16.59,58.51 21.05,122.55 13.39,192.12 -12.75,110.69 -44.64,204.77 -95.66,282.25 -51.02,77.48 -113.52,140.73 -187.51,189.75 -73.98,49.02 -154.98,84.59 -242.98,106.73 -88.01,22.14 -172.84,34.79 -254.47,37.95 -30.62,128.87 -53.58,255.37 -68.89,377.91 -15.3,122.55 -19.13,232.44 -11.48,330.48 7.66,97.24 29.98,177.09 66.97,238.76 36.99,60.88 91.2,91.71 162.63,91.71 102.05,3.16 196.44,-22.14 283.17,-75.9 86.74,-53.76 167.1,-124.12 241.08,-211.09 73.98,-86.97 140.31,-187.38 198.99,-301.22 58.67,-113.85 111.61,-230.86 158.8,-351.03 47.2,-120.18 86.74,-240.35 118.63,-360.52 31.89,-120.18 58.03,-229.28 78.44,-327.31zm-719.41 -327.32c-61.22,-3.16 -117.98,26.88 -170.28,90.92 -52.3,63.25 -99.49,139.15 -141.59,226.12 -42.09,87.75 -77.8,178.68 -107.14,271.97 -29.34,94.08 -51.66,169.98 -66.96,226.9 71.43,-3.16 141.58,-15.02 210.46,-35.58 68.88,-20.55 131.38,-52.18 187.5,-93.29 56.13,-41.11 103.32,-94.87 141.59,-159.7 38.26,-65.62 62.5,-145.47 72.7,-241.14 12.76,-108.31 5.11,-181.84 -22.96,-222.16 -28.05,-39.53 -62.5,-60.88 -103.32,-64.04z"/>
  <path id="_17" class="fil3 str1" d="M18398.25 7304.7c2.56,-9.49 8.29,-17.39 17.22,-23.72 8.93,-6.32 18.5,-8.7 28.7,-7.12 10.21,1.59 18.5,5.54 24.87,11.86 6.39,6.33 8.3,15.82 5.75,28.47 -12.76,66.41 -35.08,159.7 -66.97,279.87 -31.89,120.17 -71.43,250.63 -118.63,391.35 -47.19,140.73 -100.77,283.04 -160.71,426.93 -59.95,143.89 -124.37,273.55 -193.25,388.98 -68.87,115.43 -142.22,207.14 -220.03,275.14 -77.81,67.99 -156.26,97.24 -235.33,87.75 -94.39,-9.48 -176.67,-36.36 -246.83,-80.64 -70.15,-44.27 -120.54,-99.62 -151.14,-166.03 -35.72,-79.06 -51.03,-177.88 -45.93,-296.48 5.11,-118.59 19.77,-243.5 44.01,-374.74 24.24,-131.25 54.21,-263.28 89.93,-396.1 35.71,-132.82 66.96,-252.2 93.75,-358.15 26.78,-105.94 45.28,-192.11 55.48,-258.53 10.21,-66.41 2.55,-101.19 -22.96,-104.36 -53.57,-3.16 -106.5,33.21 -158.8,109.11 -52.3,75.9 -103.32,174.72 -153.07,296.48 -49.75,121.75 -96.3,256.15 -139.67,403.21 -43.37,147.05 -81.63,290.94 -114.8,431.67 -33.16,140.73 -61.22,269.6 -84.18,386.61 -22.96,117.01 -37,203.98 -42.1,260.9 -2.54,6.32 -29.97,11.86 -82.27,16.6 -52.3,4.75 -109.06,2.37 -170.28,-7.11 -61.23,-9.49 -116.08,-31.63 -164.55,-66.41 -48.47,-34.79 -68.88,-90.13 -61.23,-166.03 15.31,-161.29 34.44,-329.69 57.41,-505.2 22.96,-175.52 46.55,-345.5 70.78,-509.95 24.24,-164.44 47.2,-313.87 68.89,-448.27 21.68,-134.4 40.18,-241.14 55.48,-320.2 2.55,-9.49 17.86,-21.34 45.92,-35.58 28.06,-14.23 61.87,-26.09 101.4,-35.57 39.55,-9.49 81.64,-15.02 126.28,-16.61 44.65,-1.58 84.19,5.54 118.63,21.35 34.44,15.81 59.95,42.69 76.53,80.64 16.59,37.95 18.5,90.13 5.75,156.54 -33.17,154.96 -61.87,313.88 -86.11,476.74 -24.23,162.87 -46.55,326.52 -66.96,490.97 33.16,-142.31 72.07,-284.62 116.71,-426.93 44.64,-142.31 93.75,-270.39 147.33,-384.24 53.57,-113.84 111.61,-206.34 174.11,-277.5 62.5,-71.15 130.74,-106.73 204.72,-106.73 125,0 220.03,27.67 285.09,83.01 65.05,55.34 109.06,128.08 132.01,218.21 22.97,90.13 28.07,193.7 15.31,310.71 -12.75,117.01 -32.52,236.39 -59.31,358.15 -26.78,121.75 -56.76,241.92 -89.92,360.51 -33.17,118.6 -61.23,224.54 -84.2,317.83 -22.95,93.29 -35.07,169.98 -36.34,230.07 -1.28,60.08 15.94,93.29 51.66,99.61 61.22,9.49 123.09,-16.6 185.59,-78.27 62.5,-61.66 123.08,-143.89 181.76,-246.67 58.68,-102.78 114.8,-219 168.37,-348.66 53.57,-129.66 101.41,-256.15 143.5,-379.49 42.1,-123.33 77.17,-237.18 105.23,-341.54 28.07,-104.36 47.2,-181.84 57.4,-232.44z"/>
  <path id="_18" class="fil3 str1" d="M19672.52 7304.7c2.55,-9.49 8.93,-17.39 19.13,-23.72 10.21,-6.32 19.78,-8.7 28.7,-7.12 8.93,1.59 17.22,5.54 24.88,11.86 7.65,6.33 10.2,15.82 7.65,28.47 -20.41,104.36 -45.29,222.95 -74.62,355.77 -29.34,132.82 -65.06,268.81 -107.15,407.96 -42.09,139.14 -90.56,273.55 -145.41,403.21 -54.85,129.66 -118.62,244.29 -191.33,343.91 -72.71,99.62 -154.34,176.31 -244.9,230.07 -90.57,53.76 -193.25,74.32 -308.05,61.67 -117.35,-15.82 -218.76,-71.16 -304.22,-166.03 -85.46,-94.87 -129.46,-229.28 -132.02,-403.21 0,-132.82 10.21,-286.99 30.62,-462.51 20.4,-175.51 45.92,-360.52 76.53,-555.01 30.62,-194.49 65.05,-392.14 103.32,-592.95 38.26,-200.82 73.98,-394.52 107.15,-581.1 -122.46,15.81 -236.62,18.97 -342.49,9.48 -105.87,-9.48 -194.52,-45.85 -265.95,-109.1 -15.31,-15.81 -17.22,-30.04 -5.74,-42.69 11.48,-12.65 23.6,-28.47 36.35,-47.44 61.23,63.25 144.78,98.04 250.64,104.36 105.88,6.33 221.32,1.58 346.32,-14.23l114.8 -635.65c68.88,-3.16 135.85,-7.91 200.9,-14.23 65.05,-6.33 121.81,-4.75 170.28,4.74 48.47,9.49 86.1,28.46 112.89,56.93 26.78,28.46 36.35,75.89 28.7,142.31 -12.76,94.87 -31.89,213.46 -57.4,355.77 127.55,-12.65 239.16,-8.7 334.83,11.86 95.66,20.56 162.63,76.69 200.89,168.4 12.76,25.3 11.48,39.53 -3.82,42.69 -15.3,3.16 -33.16,11.07 -53.57,23.72 -28.07,-82.22 -86.74,-131.24 -176.03,-147.05 -89.29,-15.81 -195.16,-15.81 -317.61,0 -25.51,154.96 -55.49,325.73 -89.93,512.31 -34.43,186.59 -67.6,373.96 -99.48,562.13 -31.9,188.16 -59.96,370.79 -84.2,547.89 -24.23,177.1 -39.53,334.43 -45.91,471.99 -6.38,137.57 -1.28,247.46 15.31,329.69 16.57,82.22 49.1,123.33 97.57,123.33 63.78,0 125.01,-26.88 183.68,-80.64 58.68,-53.76 112.88,-124.92 162.63,-213.46 49.75,-88.55 96.3,-188.17 139.67,-298.85 43.38,-110.69 81.64,-221.38 114.8,-332.06 33.17,-110.69 61.23,-217.42 84.19,-320.2 22.96,-102.78 42.09,-190.54 57.4,-263.27z"/>
  <path id="_19" class="fil3 str1" d="M21210.83 7299.96c5.1,-22.14 20.4,-32.42 45.92,-30.84 25.51,1.58 35.71,15.02 30.61,40.32 -22.96,113.85 -53.58,237.98 -91.84,372.38 -38.27,134.4 -83.55,268.81 -135.84,403.21 -52.3,134.4 -112.25,264.06 -179.86,388.98 -67.6,124.92 -142.86,235.6 -225.77,332.06 -82.91,97.24 -173.48,173.93 -271.69,230.06 -98.22,56.93 -204.73,82.23 -319.53,75.9 -168.37,-9.48 -302.3,-56.92 -401.79,-142.31 -99.5,-85.38 -170.28,-194.49 -212.37,-327.31 -42.1,-132.82 -58.68,-280.67 -49.75,-443.53 8.93,-162.87 37.62,-326.52 86.09,-490.97 45.92,-154.96 107.79,-298.85 185.6,-431.67 77.8,-132.83 170.28,-241.93 277.42,-327.32 66.34,-50.59 139.04,-90.92 218.12,-120.96 79.09,-30.04 156.9,-43.48 233.43,-40.32 53.58,3.16 104.6,16.6 153.06,40.32 48.48,23.72 89.3,56.92 122.46,99.62 33.16,42.69 58.03,93.29 74.62,151.79 16.58,58.51 21.04,122.55 13.39,192.12 -12.76,110.69 -44.64,204.77 -95.67,282.25 -51.02,77.48 -113.52,140.73 -187.5,189.75 -73.98,49.02 -154.98,84.59 -242.99,106.73 -88.01,22.14 -172.84,34.79 -254.47,37.95 -30.61,128.87 -53.57,255.37 -68.88,377.91 -15.31,122.55 -19.14,232.44 -11.48,330.48 7.65,97.24 29.97,177.09 66.96,238.76 37,60.88 91.2,91.71 162.64,91.71 102.04,3.16 196.43,-22.14 283.17,-75.9 86.73,-53.76 167.09,-124.12 241.07,-211.09 73.99,-86.97 140.31,-187.38 198.99,-301.22 58.68,-113.85 111.61,-230.86 158.8,-351.03 47.2,-120.18 86.75,-240.35 118.63,-360.52 31.89,-120.18 58.04,-229.28 78.45,-327.31zm-719.41 -327.32c-61.23,-3.16 -117.99,26.88 -170.29,90.92 -52.29,63.25 -99.48,139.15 -141.59,226.12 -42.09,87.75 -77.8,178.68 -107.14,271.97 -29.34,94.08 -51.66,169.98 -66.96,226.9 71.43,-3.16 141.58,-15.02 210.46,-35.58 68.88,-20.55 131.39,-52.18 187.51,-93.29 56.12,-41.11 103.32,-94.87 141.58,-159.7 38.27,-65.62 62.5,-145.47 72.71,-241.14 12.76,-108.31 5.1,-181.84 -22.96,-222.16 -28.06,-39.53 -62.51,-60.88 -103.32,-64.04z"/>
 </g>
</svg>
